<svg width="34" height="34" viewBox="0 0 34 34" fill="none" xmlns="http://www.w3.org/2000/svg">
<g clip-path="url(#clip0_315_1185)">
<path d="M23.1439 0.535156C21.3829 0.656961 19.3246 1.78417 18.1252 3.25202C17.031 4.58361 16.1309 6.56139 16.4818 8.48342C18.4059 8.54329 20.394 7.38925 21.546 5.89662C22.6237 4.50723 23.4391 2.54184 23.1439 0.535156Z" fill="black"/>
<path d="M30.1024 11.6163C28.4116 9.49606 26.0354 8.26562 23.7913 8.26562C20.8288 8.26562 19.5756 9.68393 17.5173 9.68393C15.395 9.68393 13.7827 8.26975 11.2207 8.26975C8.70405 8.26975 6.02435 9.8078 4.32528 12.438C1.93667 16.1416 2.34543 23.1051 6.21635 29.0364C7.60161 31.1587 9.45139 33.5453 11.871 33.5659C14.0242 33.5865 14.6312 32.1848 17.5483 32.1703C20.4654 32.1538 21.0187 33.5845 23.1678 33.5618C25.5895 33.5432 27.5404 30.8986 28.9257 28.7763C29.9187 27.2548 30.2882 26.4888 31.0583 24.7712C25.4573 22.6386 24.5593 14.6738 30.1024 11.6163Z" fill="black"/>
</g>
<defs>
<clipPath id="clip0_315_1185">
<rect width="33.032" height="33.032" fill="white" transform="translate(0.435547 0.535156)"/>
</clipPath>
</defs>
</svg>
