<svg width="22" height="22" viewBox="0 0 22 22" fill="none" xmlns="http://www.w3.org/2000/svg">
<path d="M11.8474 18.7103C12.1201 18.332 12.6405 18.2143 13.053 18.4524C13.4657 18.6906 13.6244 19.2005 13.4331 19.6258L13.39 19.7093C13.1478 20.1288 12.7995 20.477 12.3802 20.7192C11.9607 20.9614 11.4844 21.0893 11.0002 21.0893C10.5158 21.0893 10.0397 20.9614 9.62015 20.7192C9.25298 20.5073 8.94027 20.2141 8.70554 19.863L8.60941 19.7093L8.56628 19.6258C8.37507 19.2005 8.5338 18.6906 8.94632 18.4524C9.35887 18.2143 9.87931 18.332 10.152 18.7103L10.2032 18.7893L10.2698 18.89C10.343 18.9854 10.4353 19.0657 10.5402 19.1262C10.6799 19.2068 10.8388 19.2493 11.0002 19.2493C11.1615 19.2493 11.3204 19.2069 11.4602 19.1262C11.5999 19.0456 11.7155 18.9291 11.7961 18.7893L11.8474 18.7103Z" fill="#22262E"/>
<path d="M15.5998 7.32965C15.5998 6.10981 15.1155 4.93994 14.253 4.0773C13.3903 3.21464 12.2198 2.72965 10.9998 2.72965C9.77989 2.72971 8.61006 3.21469 7.74745 4.0773C6.88485 4.93996 6.39979 6.10971 6.39979 7.32965L6.3962 7.72855C6.35681 9.68347 6.02591 11.0809 5.51034 12.1723C4.96711 13.3222 4.24625 14.0645 3.64069 14.6896L18.3598 14.6896C17.753 14.0641 17.0331 13.3214 16.4902 12.1723C15.94 11.0078 15.5998 9.49542 15.5998 7.32965ZM17.4398 7.32965C17.4398 9.30277 17.7488 10.5302 18.1532 11.3861C18.4571 12.0296 18.8318 12.5022 19.2582 12.9646L19.7012 13.4301L19.7209 13.4516C19.9609 13.7154 20.1193 14.043 20.1764 14.395C20.2335 14.7468 20.1876 15.1076 20.0435 15.4336C19.8992 15.7595 19.663 16.0369 19.3643 16.2314C19.1027 16.4016 18.8026 16.5028 18.4928 16.5251L18.3598 16.5296L3.63979 16.5296C3.28318 16.5294 2.934 16.4253 2.63534 16.2305C2.33667 16.0356 2.10088 15.758 1.95702 15.4317C1.8132 15.1055 1.76736 14.7442 1.82495 14.3923C1.88256 14.0405 2.04115 13.7132 2.28135 13.4498L2.30022 13.4292L2.74315 12.9646C3.16895 12.5023 3.54248 12.0296 3.84643 11.3861C4.22547 10.5837 4.52076 9.45476 4.5562 7.69082L4.55979 7.32965C4.55979 5.62165 5.23877 3.9832 6.44651 2.77546C7.65416 1.568 9.29202 0.889713 10.9998 0.889648C12.7077 0.889648 14.3462 1.56781 15.554 2.77546C16.7617 3.9832 17.4398 5.62165 17.4398 7.32965Z" fill="#22262E"/>
</svg>
