<svg width="25" height="27" viewBox="0 0 25 27" fill="none" xmlns="http://www.w3.org/2000/svg">
<path d="M6.01562 6.0245L6.01562 1.2049C6.01562 0.539458 6.55508 0 7.22053 0C7.88597 0 8.42543 0.539458 8.42543 1.2049L8.42543 6.0245C8.42543 6.68995 7.88597 7.22941 7.22053 7.22941C6.55508 7.22941 6.01562 6.68995 6.01562 6.0245Z" fill="url(#paint0_linear_212_24394)"/>
<path d="M15.6726 6.0245L15.6726 1.2049C15.6726 0.539458 16.212 0 16.8775 0C17.543 0 18.0824 0.539458 18.0824 1.2049V6.0245C18.0824 6.68995 17.543 7.22941 16.8775 7.22941C16.212 7.22941 15.6726 6.68995 15.6726 6.0245Z" fill="url(#paint1_linear_212_24394)"/>
<path d="M21.6882 6.0522C21.6882 5.38676 21.1488 4.8473 20.4833 4.8473L3.6147 4.8473C2.94926 4.8473 2.4098 5.38676 2.4098 6.0522L2.4098 22.9208C2.4098 23.5863 2.94926 24.1257 3.6147 24.1257L20.4833 24.1257C21.1488 24.1257 21.6882 23.5863 21.6882 22.9208L21.6882 6.0522ZM24.098 22.9208C24.098 24.9172 22.4797 26.5355 20.4833 26.5355L3.6147 26.5355C1.61836 26.5355 0 24.9172 0 22.9208L0 6.0522C0 4.05586 1.61836 2.4375 3.6147 2.4375L20.4833 2.4375C22.4797 2.4375 24.098 4.05586 24.098 6.0522L24.098 22.9208Z" fill="url(#paint2_linear_212_24394)"/>
<path d="M22.8931 9.65723C23.5586 9.65723 24.098 10.1967 24.098 10.8621C24.098 11.5276 23.5586 12.067 22.8931 12.067L1.2049 12.067C0.539458 12.067 0 11.5276 0 10.8621C0 10.1967 0.539458 9.65723 1.2049 9.65723L22.8931 9.65723Z" fill="url(#paint3_linear_212_24394)"/>
<path d="M14.9037 14.7664C15.3769 14.3805 16.0745 14.4077 16.5156 14.8488C16.9568 15.2899 16.9841 15.9876 16.598 16.4608L16.5156 16.5525L11.696 21.3721C11.2549 21.8134 10.5573 21.8406 10.0841 21.4546L9.99228 21.3721L7.58245 18.9623L7.50009 18.8706C7.1141 18.3974 7.14132 17.6997 7.58245 17.2586C8.02358 16.8175 8.72123 16.7903 9.19448 17.1762L9.28626 17.2586L10.8441 18.8164L14.8119 14.8488L14.9037 14.7664Z" fill="url(#paint4_linear_212_24394)"/>
<defs>
<linearGradient id="paint0_linear_212_24394" x1="5.66337" y1="3.6147" x2="8.82377" y2="3.6147" gradientUnits="userSpaceOnUse">
<stop stop-color="#302B3A"/>
<stop offset="1" stop-color="#404D5D"/>
</linearGradient>
<linearGradient id="paint1_linear_212_24394" x1="15.3204" y1="3.6147" x2="18.4808" y2="3.6147" gradientUnits="userSpaceOnUse">
<stop stop-color="#302B3A"/>
<stop offset="1" stop-color="#404D5D"/>
</linearGradient>
<linearGradient id="paint2_linear_212_24394" x1="-3.52252" y1="14.4865" x2="28.0814" y2="14.4865" gradientUnits="userSpaceOnUse">
<stop stop-color="#302B3A"/>
<stop offset="1" stop-color="#404D5D"/>
</linearGradient>
<linearGradient id="paint3_linear_212_24394" x1="-3.52252" y1="10.8621" x2="28.0814" y2="10.8621" gradientUnits="userSpaceOnUse">
<stop stop-color="#302B3A"/>
<stop offset="1" stop-color="#404D5D"/>
</linearGradient>
<linearGradient id="paint4_linear_212_24394" x1="5.8208" y1="18.1105" x2="18.4617" y2="18.1105" gradientUnits="userSpaceOnUse">
<stop stop-color="#302B3A"/>
<stop offset="1" stop-color="#404D5D"/>
</linearGradient>
</defs>
</svg>
