<svg width="24" height="24" viewBox="0 0 24 24" fill="none" xmlns="http://www.w3.org/2000/svg">
<path fill-rule="evenodd" clip-rule="evenodd" d="M12 1C9.08262 1 6.28473 2.15893 4.22183 4.22183C2.15893 6.28473 1 9.08262 1 12C1 14.9174 2.15893 17.7153 4.22183 19.7782C6.28473 21.8411 9.08262 23 12 23H17.5C19.2087 23 20.063 23 20.7364 22.7213C21.1814 22.5371 21.5858 22.2669 21.9264 21.9264C22.2669 21.5858 22.5371 21.1814 22.7213 20.7364C23 20.063 23 19.2087 23 17.5V12C23 9.08262 21.8411 6.28473 19.7782 4.22183C17.7153 2.15893 14.9174 1 12 1ZM7.11111 10.7778C7.11111 10.4536 7.23988 10.1427 7.46909 9.91354C7.6983 9.68433 8.00918 9.55556 8.33333 9.55556H15.6667C15.9908 9.55556 16.3017 9.68433 16.5309 9.91354C16.7601 10.1427 16.8889 10.4536 16.8889 10.7778C16.8889 11.1019 16.7601 11.4128 16.5309 11.642C16.3017 11.8712 15.9908 12 15.6667 12H8.33333C8.00918 12 7.6983 11.8712 7.46909 11.642C7.23988 11.4128 7.11111 11.1019 7.11111 10.7778ZM10.7778 15.6667C10.7778 15.3425 10.9065 15.0316 11.1358 14.8024C11.365 14.5732 11.6758 14.4444 12 14.4444H15.6667C15.9908 14.4444 16.3017 14.5732 16.5309 14.8024C16.7601 15.0316 16.8889 15.3425 16.8889 15.6667C16.8889 15.9908 16.7601 16.3017 16.5309 16.5309C16.3017 16.7601 15.9908 16.8889 15.6667 16.8889H12C11.6758 16.8889 11.365 16.7601 11.1358 16.5309C10.9065 16.3017 10.7778 15.9908 10.7778 15.6667Z" fill="#E4EADF"/>
</svg>
