<svg width="16" height="16" viewBox="0 0 16 16" fill="none" xmlns="http://www.w3.org/2000/svg">
<path d="M11.5563 3.51167C11.8179 3.25002 12.242 3.25002 12.5037 3.51167C12.7654 3.77332 12.7654 4.19744 12.5037 4.45909L5.13369 11.8291C4.87204 12.0907 4.44792 12.0907 4.18627 11.8291L0.836269 8.47908L0.790468 8.42803C0.575833 8.16492 0.590971 7.77699 0.836269 7.5317C1.08156 7.28635 1.4695 7.2712 1.73266 7.48587L1.78369 7.5317L4.65998 10.4079L11.5563 3.51167Z" fill="#1DC000"/>
<path d="M14.2623 6.13861C14.5254 5.92398 14.9133 5.93911 15.1586 6.18441C15.404 6.42971 15.4191 6.81764 15.2044 7.08082L15.1586 7.13181L10.1336 12.1568C9.88833 12.4022 9.5004 12.4173 9.23729 12.2026L9.18624 12.1568L8.18124 11.1518L8.13541 11.1008C7.92081 10.8376 7.93595 10.4497 8.18124 10.2044C8.42652 9.95914 8.81445 9.944 9.07763 10.1586L9.12862 10.2044L9.65993 10.7357L14.2112 6.18441L14.2623 6.13861Z" fill="#1DC000"/>
</svg>
