<svg width="16" height="16" viewBox="0 0 16 16" fill="none" xmlns="http://www.w3.org/2000/svg">
<g clip-path="url(#clip0_212_24265)">
<path d="M14.0299 8.00086C14.0299 4.67058 11.3302 1.97086 7.99988 1.97086C4.66961 1.97086 1.96988 4.67058 1.96988 8.00086C1.96988 11.3312 4.66961 14.0309 7.99988 14.0309C11.3302 14.0309 14.0299 11.3312 14.0299 8.00086ZM15.3699 8.00086C15.3699 12.0712 12.0702 15.3709 7.99988 15.3709C3.92955 15.3709 0.629883 12.0712 0.629883 8.00086C0.629883 3.93052 3.92955 0.630859 7.99988 0.630859C12.0702 0.630859 15.3699 3.93052 15.3699 8.00086Z" fill="url(#paint0_linear_212_24265)"/>
<path d="M7.31982 3.99031C7.31982 3.62028 7.61978 3.32031 7.98982 3.32031C8.35987 3.32031 8.65982 3.62028 8.65982 3.99031L8.65982 7.59612L10.9695 8.751L11.029 8.78497C11.3159 8.9668 11.4243 9.33973 11.2691 9.65C11.114 9.96028 10.7505 10.0976 10.433 9.9771L10.3701 9.94963L7.69013 8.60963C7.4632 8.49613 7.31982 8.26411 7.31982 8.01031L7.31982 3.99031Z" fill="url(#paint1_linear_212_24265)"/>
</g>
<defs>
<linearGradient id="paint0_linear_212_24265" x1="-1.52473" y1="8.00086" x2="17.8064" y2="8.00086" gradientUnits="userSpaceOnUse">
<stop stop-color="#302B3A"/>
<stop offset="1" stop-color="#404D5D"/>
</linearGradient>
<linearGradient id="paint1_linear_212_24265" x1="6.73218" y1="6.67039" x2="12.0045" y2="6.67039" gradientUnits="userSpaceOnUse">
<stop stop-color="#302B3A"/>
<stop offset="1" stop-color="#404D5D"/>
</linearGradient>
<clipPath id="clip0_212_24265">
<rect width="16" height="16" fill="white"/>
</clipPath>
</defs>
</svg>
