<svg width="33" height="33" viewBox="0 0 33 33" fill="none" xmlns="http://www.w3.org/2000/svg">
<path d="M6.875 27.5V24.75H26.125V27.5H6.875ZM6.875 22.6875L5.12188 11.6531C5.07604 11.6531 5.02425 11.6591 4.9665 11.671C4.90875 11.6829 4.85742 11.6884 4.8125 11.6875C4.23959 11.6875 3.75284 11.4868 3.35225 11.0853C2.95167 10.6838 2.75092 10.197 2.75 9.625C2.74909 9.053 2.94984 8.56625 3.35225 8.16475C3.75467 7.76325 4.24142 7.5625 4.8125 7.5625C5.38359 7.5625 5.8708 7.76325 6.27413 8.16475C6.67746 8.56625 6.87775 9.053 6.875 9.625C6.875 9.78542 6.85759 9.93438 6.82275 10.0719C6.78792 10.2094 6.74804 10.3354 6.70313 10.45L11 12.375L15.2969 6.49688C15.0448 6.31354 14.8385 6.07292 14.6781 5.775C14.5177 5.47709 14.4375 5.15625 14.4375 4.8125C14.4375 4.23959 14.6383 3.75238 15.0398 3.35088C15.4413 2.94938 15.928 2.74909 16.5 2.75C17.072 2.75092 17.5592 2.95167 17.9616 3.35225C18.364 3.75284 18.5643 4.23959 18.5625 4.8125C18.5625 5.15625 18.4823 5.47709 18.3219 5.775C18.1615 6.07292 17.9552 6.31354 17.7031 6.49688L22 12.375L26.2969 10.45C26.251 10.3354 26.2107 10.2094 26.1759 10.0719C26.141 9.93438 26.1241 9.78542 26.125 9.625C26.125 9.05209 26.3258 8.56488 26.7273 8.16338C27.1288 7.76188 27.6155 7.56159 28.1875 7.5625C28.7595 7.56342 29.2467 7.76417 29.6491 8.16475C30.0515 8.56534 30.2518 9.05209 30.25 9.625C30.2482 10.1979 30.0479 10.6851 29.6491 11.0866C29.2504 11.4881 28.7632 11.6884 28.1875 11.6875C28.1417 11.6875 28.0903 11.682 28.0335 11.671C27.9767 11.66 27.9249 11.654 27.8781 11.6531L26.125 22.6875H6.875ZM9.2125 19.9375H23.7875L24.6813 14.1969L21.0719 15.7781L16.5 9.4875L11.9281 15.7781L8.31875 14.1969L9.2125 19.9375Z" fill="black"/>
</svg>
