<svg width="59" height="59" viewBox="0 0 59 59" fill="none" xmlns="http://www.w3.org/2000/svg">
<path d="M31.8684 36.3859L47.28 54.836C48.8941 56.7662 51.7682 57.0275 53.6984 55.4134L53.7742 55.3502C55.9067 53.5675 55.9614 50.3099 53.8922 48.4598L36.5252 32.4961L39.4878 30.0223C27.9575 15.1712 13.6837 6.55296 3.59473 2.52832L31.8684 36.3859Z" fill="white"/>
<path d="M52.358 50.2887L37.0264 35.9433C36.7019 35.6483 36.2089 35.6356 35.8675 35.918L35.8549 35.9306C35.484 36.2383 35.4334 36.7903 35.7369 37.1612L49.0245 53.441C49.8252 54.4229 51.2749 54.562 52.2484 53.7486L52.2864 53.7149C53.3441 52.8341 53.3821 51.2158 52.358 50.2887Z" fill="white"/>
<path d="M48.1144 54.1407L32.7028 35.6905L5.76508 3.44282C5.02337 3.11411 4.29851 2.81068 3.59473 2.52832L31.8726 36.3859L47.2842 54.836C48.8983 56.7662 51.7724 57.0275 53.7026 55.4134L53.7742 55.3544C52.2613 56.6145 49.7243 56.0708 48.1144 54.1407Z" fill="#F6F8F4"/>
<path d="M14.7583 8.1084C22.3314 13.3889 30.8864 20.844 38.6659 30.7054L39.4877 30.0185C31.7798 20.0938 22.8497 12.9548 14.7583 8.1084Z" fill="#C8CDC3"/>
<path d="M36.5251 32.4961L36.3481 32.6436L53.2011 49.0329C55.1228 50.8619 55.4726 53.6602 54.0229 55.1142C55.9066 53.2936 55.8814 50.2298 53.8964 48.4514L36.5251 32.4961Z" fill="white"/>
<path d="M50.7819 56.8886C49.3575 56.8886 47.9415 56.2818 46.9554 55.1018L3.27007 2.79829C3.14364 2.65079 3.13943 2.43586 3.25321 2.27993C3.36278 2.124 3.56928 2.065 3.7505 2.13665C10.1225 4.67786 26.3854 12.4574 39.8206 29.7613C39.9596 29.9425 39.9301 30.1996 39.7574 30.3429L37.1656 32.509L54.1786 48.144C55.2533 49.1049 55.8559 50.4871 55.8306 51.9326C55.8054 53.3781 55.1564 54.7394 54.0438 55.6665L53.9679 55.7297C53.0408 56.5094 51.9071 56.8886 50.7819 56.8886ZM32.1927 36.1164L47.6044 54.5666C49.0667 56.3155 51.6796 56.5515 53.4285 55.0891L53.5044 55.0259C54.4273 54.2547 54.9667 53.1253 54.9878 51.9242C55.0089 50.7231 54.5074 49.5726 53.6097 48.7719L36.2384 32.8082C36.1499 32.7239 36.0994 32.6101 36.1036 32.4879C36.1078 32.3657 36.1626 32.2519 36.2553 32.1761L38.9061 29.9636C26.6467 14.3201 12.0948 6.62486 5.01478 3.57793L32.1927 36.1164Z" fill="url(#paint0_linear_553_2659)"/>
<path d="M49.8168 52.7801L36.5291 36.5003C36.3437 36.2728 36.2931 35.982 36.3606 35.7207C36.1836 35.7333 36.0108 35.8008 35.8675 35.9188L35.8549 35.9314C35.484 36.2391 35.4334 36.7911 35.7369 37.162L49.0245 53.4418C49.8252 54.4237 51.2749 54.5628 52.2484 53.7494L52.2864 53.7157C52.417 53.6061 52.5308 53.4881 52.6277 53.3575C51.6921 53.8506 50.5121 53.6314 49.8168 52.7801Z" fill="white"/>
<path d="M50.7946 54.7017C50.7061 54.7017 50.6176 54.6975 50.5333 54.6891C49.8084 54.6175 49.1594 54.2719 48.7001 53.7072L35.4124 37.4274C34.9657 36.8753 35.0416 36.0577 35.5852 35.6068C36.0951 35.1812 36.8284 35.198 37.3088 35.6321L52.6488 49.9817C53.222 50.5043 53.5423 51.2502 53.5254 52.0299C53.5086 52.8095 53.1546 53.5428 52.5561 54.0401L52.5182 54.0738C52.0293 54.4826 51.4267 54.7017 50.7946 54.7017ZM36.4365 36.1336C36.3311 36.1336 36.2258 36.1673 36.1415 36.239C35.935 36.4117 35.9097 36.6983 36.0656 36.8922L49.3533 53.172C49.6693 53.5597 50.1161 53.7999 50.6133 53.8462C51.1064 53.8926 51.5953 53.7451 51.9788 53.4248L52.0167 53.3911C52.4297 53.0455 52.6699 52.544 52.6826 52.0088C52.6952 51.4736 52.4718 50.9595 52.0757 50.597L36.7357 36.2474C36.6556 36.1757 36.5461 36.1336 36.4365 36.1336Z" fill="url(#paint1_linear_553_2659)"/>
<path d="M48.9912 21.0888L56.3452 12.4748C56.5306 12.2598 56.5179 11.9396 56.3157 11.7373L56.2904 11.712C56.0839 11.5055 55.7509 11.4971 55.536 11.6993L45.4259 21.1351C44.9961 21.5355 44.3302 21.5228 43.913 21.1098L43.8962 21.093C43.4832 20.68 43.4705 20.0099 43.8709 19.5801L53.3067 9.46999C53.5047 9.25506 53.5005 8.92213 53.294 8.71563L53.2856 8.7072C53.0791 8.5007 52.7462 8.49227 52.5312 8.69456L42.4212 18.1303C41.9913 18.5307 41.3254 18.5181 40.9082 18.1051L40.8914 18.0882C40.4784 17.6752 40.4657 17.0051 40.8661 16.5753L50.3019 6.4652C50.4999 6.25027 50.4957 5.91734 50.2892 5.71084L50.2808 5.70241C50.0743 5.49591 49.7414 5.48749 49.5264 5.68977L39.4206 15.1298C38.9907 15.5301 38.3249 15.5175 37.9077 15.1045L37.8908 15.0876C37.4778 14.6746 37.4652 14.0046 37.8655 13.5747L47.3013 3.46463C47.4994 3.2497 47.4952 2.91677 47.2887 2.71027L47.2634 2.68499C47.0611 2.4827 46.7408 2.47006 46.5259 2.65549L37.9161 10.0136C35.0167 12.4874 34.4182 16.5963 36.2051 19.7486L3.83516 49.4172C2.14523 50.9638 2.08623 53.6104 3.70873 55.2329L3.76773 55.2919C5.39023 56.9144 8.03259 56.8554 9.58344 55.1655L39.2562 22.7998C42.4085 24.5866 46.5174 23.9882 48.9912 21.0888Z" fill="white"/>
<path d="M22.5587 36.5973L22.546 36.5846C22.2089 36.2475 21.6652 36.2433 21.3239 36.5762L5.26745 50.5128C4.36981 51.3894 4.36138 52.8265 5.24638 53.7157L5.28009 53.7494C6.24517 54.7145 7.83817 54.6049 8.66417 53.5176L22.6345 37.7393C22.9 37.3938 22.8663 36.9049 22.5587 36.5973Z" fill="white"/>
<path d="M5.9884 51.2335L22.0448 37.2968C22.2513 37.0945 22.5337 37.0187 22.7992 37.065C22.7697 36.8923 22.6896 36.7279 22.559 36.5973L22.5463 36.5846C22.2092 36.2475 21.6655 36.2433 21.32 36.5762L5.26355 50.5128C4.3659 51.3894 4.35747 52.8265 5.24247 53.7157L5.27619 53.7494C5.39419 53.8674 5.52483 53.9685 5.65969 54.057C5.1034 53.1805 5.21297 51.9963 5.9884 51.2335Z" fill="white"/>
<path d="M6.87749 54.832C6.16949 54.832 5.49099 54.5538 4.98949 54.0481L4.95578 54.0144C4.44585 53.5045 4.16771 52.826 4.17192 52.1096C4.17614 51.3889 4.46271 50.7146 4.97685 50.2131L21.0501 36.2596C21.5348 35.7834 22.3524 35.7918 22.8496 36.2891C23.3174 36.7569 23.3638 37.4818 22.9761 37.9959L8.98464 53.7995C8.53792 54.3895 7.82992 54.773 7.05871 54.8278C6.99971 54.832 6.93649 54.832 6.87749 54.832ZM21.9267 36.7527C21.8129 36.7527 21.7034 36.7948 21.6191 36.8791L5.54578 50.8326C5.21285 51.1613 5.01478 51.6207 5.01057 52.1138C5.00635 52.6068 5.19599 53.0704 5.54578 53.4202L5.57949 53.4539C5.95457 53.829 6.46871 54.0228 6.99549 53.9849C7.52228 53.9512 8.00692 53.6857 8.32721 53.2643L22.3186 37.4607C22.4324 37.309 22.4156 37.0519 22.2596 36.896C22.1669 36.7991 22.0489 36.7527 21.9267 36.7527Z" fill="url(#paint2_linear_553_2659)"/>
<path d="M53.0707 9.2371L43.5928 19.305C43.1924 19.7307 43.1587 20.3586 43.5211 20.721L43.5338 20.7337C43.5928 20.7927 43.6602 20.8348 43.7318 20.877C43.4916 20.4724 43.538 19.9456 43.8709 19.5874L53.3067 9.47731C53.5048 9.26239 53.5005 8.92946 53.294 8.72296L53.2856 8.71453C53.2519 8.68081 53.2098 8.65974 53.1718 8.63867C53.2688 8.81567 53.2393 9.0601 53.0707 9.2371Z" fill="#C8CDC3"/>
<path d="M38.2699 15.4659L38.2826 15.4785C38.645 15.841 39.2729 15.8115 39.6986 15.4069L49.7665 5.92897C49.9435 5.7604 50.1879 5.7309 50.3691 5.82783C50.3481 5.7899 50.327 5.74776 50.2933 5.71405L50.2849 5.70562C50.0784 5.49912 49.7454 5.49069 49.5305 5.69297L39.4204 15.1288C39.0622 15.4659 38.5354 15.508 38.1309 15.2678C38.1646 15.3395 38.2109 15.4069 38.2699 15.4659Z" fill="#C8CDC3"/>
<path d="M4.19758 49.779L36.9932 20.5361C35.5139 17.6914 35.7373 13.2074 38.6114 10.7084L47.1454 3.27858C47.2339 3.20273 47.3392 3.16058 47.4446 3.14794C47.4572 2.99201 47.4109 2.83608 47.2929 2.71808L47.2676 2.6928C47.0653 2.49051 46.745 2.47787 46.5301 2.6633L37.9161 10.013C35.0167 12.4868 34.4182 16.5957 36.2051 19.748L3.83516 49.4166C2.14523 50.9632 2.08623 53.6098 3.70873 55.2323L3.71294 55.2365C2.29694 53.8163 2.51609 51.3341 4.19758 49.779Z" fill="white"/>
<path d="M48.9911 21.0881L56.345 12.4741C56.5304 12.2592 56.5178 11.9389 56.3155 11.7366L56.2902 11.7113C56.1722 11.5933 56.0163 11.547 55.8604 11.5596C55.8435 11.665 55.8056 11.7661 55.7297 11.8588L48.2957 20.3928C45.7924 23.2669 41.3084 23.4861 38.468 22.0111L9.22508 54.8066C7.66579 56.4881 5.18358 56.7073 3.76758 55.2871L3.77179 55.2913C5.39429 56.9138 8.03665 56.8548 9.58751 55.1648L39.2561 22.7991C42.4084 24.586 46.5173 23.9876 48.9911 21.0881Z" fill="#C8CDC3"/>
<path d="M6.61219 56.8932C5.42376 56.8932 4.31119 56.4338 3.47255 55.591L3.41355 55.532C2.54962 54.668 2.08605 53.5133 2.11133 52.2912C2.13662 51.0648 2.65076 49.9354 3.55262 49.1094L35.6781 19.66C33.9503 16.3012 34.751 12.1627 37.642 9.69316L46.256 2.33924C46.6353 2.01474 47.2126 2.03581 47.5666 2.38981C47.9586 2.78174 47.9712 3.37174 47.613 3.75524L38.173 13.8653C37.9286 14.1308 37.9328 14.5354 38.1898 14.7924C38.4596 15.0622 38.8683 15.0706 39.1296 14.8219L49.2397 5.38616C49.6232 5.02795 50.2132 5.04059 50.5798 5.40724C50.9591 5.78652 50.9675 6.37231 50.6093 6.75581L41.1778 16.8659C40.9333 17.1314 40.9375 17.536 41.1946 17.793C41.4643 18.0627 41.8731 18.0712 42.1344 17.8225L52.2445 8.38674C52.628 8.03274 53.2138 8.04116 53.5846 8.40781C53.9639 8.78709 53.9723 9.37288 53.6141 9.75638L44.1783 19.8665C43.9339 20.132 43.9381 20.5365 44.1952 20.7936C44.4649 21.0633 44.8737 21.0717 45.135 20.8231L55.245 11.3873C55.6286 11.0291 56.2186 11.0417 56.5852 11.4126C56.9645 11.7919 56.9855 12.365 56.661 12.7443L49.3071 21.3583C46.8376 24.2493 42.6949 25.0458 39.3403 23.3222L9.89091 55.4477C9.06491 56.3495 7.93126 56.8637 6.70912 56.889C6.67962 56.8932 6.64591 56.8932 6.61219 56.8932ZM46.8755 2.95452C46.8502 2.95452 46.8249 2.96295 46.8038 2.97981L38.1898 10.3337C35.518 12.6137 34.8395 16.4866 36.5715 19.542C36.6685 19.7147 36.6348 19.9297 36.4915 20.0603L4.12155 49.7289C3.38826 50.399 2.97526 51.3135 2.95419 52.308C2.93312 53.2984 3.30819 54.234 4.00776 54.9335L4.06676 54.9925C4.77055 55.6963 5.69769 56.063 6.69226 56.0461C7.68262 56.025 8.60133 55.6078 9.27141 54.8787L38.9442 22.5088C39.0748 22.3655 39.294 22.3276 39.4626 22.4287C42.5179 24.1608 46.3908 23.4823 48.6708 20.8105L56.0247 12.1965C56.0668 12.1459 56.0626 12.0742 56.0163 12.0321C55.9446 11.9605 55.8688 11.9605 55.8224 12.0068L45.7123 21.4426C45.1139 21.9989 44.1952 21.9862 43.6136 21.4047C43.0194 20.8105 43.0068 19.8917 43.5631 19.2933L52.9988 9.18324C53.0452 9.13266 53.041 9.06102 52.9946 9.01466C52.9398 8.95988 52.864 8.95988 52.8176 9.00202L42.7076 18.4378C42.1091 18.9941 41.1904 18.9815 40.6088 18.3999C40.0146 17.8057 40.002 16.887 40.5583 16.2885L49.994 6.17845C50.0404 6.12788 50.0362 6.05624 49.9898 6.00988C49.9351 5.95509 49.8592 5.95509 49.8128 6.00145L39.707 15.4372C39.1086 15.9935 38.1898 15.9809 37.6083 15.3993C37.014 14.8051 36.9972 13.8864 37.5577 13.288L46.9935 3.17788C47.0398 3.12731 47.0356 3.05566 46.9893 3.00931C46.9513 2.97138 46.9092 2.95452 46.8755 2.95452Z" fill="url(#paint3_linear_553_2659)"/>
<defs>
<linearGradient id="paint0_linear_553_2659" x1="-4.52618" y1="29.4975" x2="64.5361" y2="29.4975" gradientUnits="userSpaceOnUse">
<stop stop-color="#302B9D"/>
<stop offset="1" stop-color="#40905D"/>
</linearGradient>
<linearGradient id="paint1_linear_553_2659" x1="32.4313" y1="4.9993" x2="56.5683" y2="44.9993" gradientUnits="userSpaceOnUse">
<stop stop-color="#302B3A"/>
<stop offset="1" stop-color="#404D5D"/>
</linearGradient>
<linearGradient id="paint2_linear_553_2659" x1="1.38504" y1="45.3706" x2="26.3884" y2="45.3706" gradientUnits="userSpaceOnUse">
<stop stop-color="#302B3A"/>
<stop offset="1" stop-color="#404D5D"/>
</linearGradient>
<linearGradient id="paint3_linear_553_2659" x1="-5.89681" y1="29.5013" x2="65.9431" y2="29.5013" gradientUnits="userSpaceOnUse">
<stop stop-color="#302B3A"/>
<stop offset="1" stop-color="#404D5D"/>
</linearGradient>
</defs>
</svg>
