<svg width="101" height="101" viewBox="0 0 101 101" fill="none" xmlns="http://www.w3.org/2000/svg">
<g clip-path="url(#clip0_1192_4258)">
<path fill-rule="evenodd" clip-rule="evenodd" d="M46.3347 33.8972C47.5309 32.7009 49.4697 32.7009 50.6659 33.8972L64.1031 47.3364C65.2994 48.5327 65.2994 50.4694 64.1031 51.6636L50.6659 65.1028C49.4697 66.2991 47.533 66.2991 46.3388 65.1028L32.8975 51.6656C32.6125 51.382 32.3863 51.0448 32.232 50.6736C32.0777 50.3023 31.9983 49.9041 31.9983 49.5021C31.9983 49.1 32.0777 48.7019 32.232 48.3306C32.3863 47.9593 32.6125 47.6221 32.8975 47.3385L46.3347 33.8972Z" fill="url(#paint0_linear_1192_4258)"/>
</g>
<g clip-path="url(#clip1_1192_4258)" filter="url(#filter0_df_1192_4258)">
<path fill-rule="evenodd" clip-rule="evenodd" d="M46.3347 32.8972C47.5309 31.7009 49.4697 31.7009 50.6659 32.8972L64.1031 46.3364C65.2994 47.5327 65.2994 49.4694 64.1031 50.6636L50.6659 64.1028C49.4697 65.2991 47.533 65.2991 46.3388 64.1028L32.8975 50.6656C32.6125 50.382 32.3863 50.0448 32.232 49.6736C32.0777 49.3023 31.9983 48.9041 31.9983 48.5021C31.9983 48.1 32.0777 47.7019 32.232 47.3306C32.3863 46.9593 32.6125 46.6221 32.8975 46.3385L46.3347 32.8972Z" fill="url(#paint1_linear_1192_4258)"/>
</g>
<defs>
<filter id="filter0_df_1192_4258" x="0" y="0" width="101" height="101" filterUnits="userSpaceOnUse" color-interpolation-filters="sRGB">
<feFlood flood-opacity="0" result="BackgroundImageFix"/>
<feColorMatrix in="SourceAlpha" type="matrix" values="0 0 0 0 0 0 0 0 0 0 0 0 0 0 0 0 0 0 127 0" result="hardAlpha"/>
<feOffset dx="2" dy="2"/>
<feGaussianBlur stdDeviation="17"/>
<feComposite in2="hardAlpha" operator="out"/>
<feColorMatrix type="matrix" values="0 0 0 0 1 0 0 0 0 1 0 0 0 0 1 0 0 0 0.24 0"/>
<feBlend mode="normal" in2="BackgroundImageFix" result="effect1_dropShadow_1192_4258"/>
<feBlend mode="normal" in="SourceGraphic" in2="effect1_dropShadow_1192_4258" result="shape"/>
<feGaussianBlur stdDeviation="10" result="effect2_foregroundBlur_1192_4258"/>
</filter>
<linearGradient id="paint0_linear_1192_4258" x1="48.4993" y1="33" x2="48.4993" y2="66" gradientUnits="userSpaceOnUse">
<stop stop-color="white"/>
<stop offset="1" stop-color="#999999"/>
</linearGradient>
<linearGradient id="paint1_linear_1192_4258" x1="48.4993" y1="32" x2="48.4993" y2="65" gradientUnits="userSpaceOnUse">
<stop stop-color="white"/>
<stop offset="1" stop-color="#999999"/>
</linearGradient>
<clipPath id="clip0_1192_4258">
<rect width="33" height="33" fill="white" transform="translate(32 33)"/>
</clipPath>
<clipPath id="clip1_1192_4258">
<rect width="33" height="33" fill="white" transform="translate(32 32)"/>
</clipPath>
</defs>
</svg>
