<svg width="47" height="43" viewBox="0 0 47 43" fill="none" xmlns="http://www.w3.org/2000/svg">
<path d="M33.5037 20.3885C33.642 20.4243 33.8209 20.4175 34.0403 20.3681C34.2596 20.3187 34.4798 20.2548 34.7009 20.1763C36.4799 19.5748 38.079 18.8706 39.4981 18.0637C40.9187 17.2512 42.0926 16.3424 43.0201 15.3373C43.9489 14.3266 44.5667 13.2294 44.8734 12.0457C45.0855 11.2271 45.1448 10.4515 45.0513 9.71899C44.9647 8.98236 44.7542 8.31395 44.4198 7.71378C44.091 7.11504 43.6587 6.60758 43.1232 6.1914C42.5876 5.77522 41.9825 5.47971 41.3077 5.30486C40.4614 5.08559 39.6761 5.10936 38.9518 5.37619C38.2344 5.63891 37.6058 6.06039 37.0659 6.64061C36.8756 5.87121 36.528 5.19678 36.023 4.61733C35.5249 4.03377 34.8527 3.63236 34.0064 3.41309C33.3261 3.23681 32.6508 3.20055 31.9805 3.3043C31.3158 3.40949 30.6915 3.64321 30.1078 4.00548C29.524 4.36774 29.0126 4.84912 28.5737 5.44961C28.1418 6.046 27.8197 6.7535 27.6076 7.57213C27.3009 8.75581 27.3082 10.0149 27.6294 11.3495C27.952 12.6785 28.537 14.0431 29.3843 15.4431C30.2385 16.8391 31.2972 18.2319 32.5603 19.6217C32.7154 19.7976 32.8768 19.9604 33.0446 20.1102C33.2124 20.2599 33.3655 20.3527 33.5037 20.3885Z" fill="#ED0072"/>
<path d="M20.3392 40.1356C20.4775 40.1714 20.6563 40.1646 20.8757 40.1152C21.0951 40.0658 21.3153 40.0019 21.5363 39.9234C23.3154 39.3219 24.9145 38.6177 26.3336 37.8107C27.7541 36.9983 28.9281 36.0895 29.8555 35.0843C30.7844 34.0737 31.4021 32.9765 31.7088 31.7928C31.9209 30.9742 31.9802 30.1986 31.8867 29.4661C31.8002 28.7294 31.5897 28.061 31.2553 27.4609C30.9264 26.8621 30.4942 26.3547 29.9586 25.9385C29.4231 25.5223 28.8179 25.2268 28.1431 25.0519C27.2968 24.8327 26.5115 24.8564 25.7872 25.1233C25.0699 25.386 24.4412 25.8075 23.9013 26.3877C23.7111 25.6183 23.3635 24.9439 22.8584 24.3644C22.3603 23.7808 21.6882 23.3794 20.8419 23.1602C20.1615 22.9839 19.4862 22.9476 18.816 23.0514C18.1512 23.1566 17.527 23.3903 16.9432 23.7525C16.3594 24.1148 15.8481 24.5962 15.4092 25.1967C14.9772 25.7931 14.6552 26.5006 14.4431 27.3192C14.1364 28.5029 14.1436 29.762 14.4648 31.0966C14.7875 32.4256 15.3724 33.7902 16.2197 35.1902C17.0739 36.5861 18.1326 37.979 19.3957 39.3687C19.5508 39.5447 19.7123 39.7075 19.8801 39.8572C20.0479 40.007 20.2009 40.0997 20.3392 40.1356Z" fill="#ED0072"/>
<path d="M14.5258 19.3592C14.658 19.3051 14.7972 19.1927 14.9434 19.0218C15.0896 18.8509 15.2277 18.6679 15.3578 18.4727C16.4229 16.926 17.2824 15.4047 17.9363 13.9089C18.588 12.4078 18.9844 10.9771 19.1258 9.61677C19.2649 8.25116 19.1031 7.00245 18.6403 5.87065C18.3202 5.0879 17.9035 4.43111 17.3901 3.90025C16.8799 3.36195 16.3112 2.95249 15.6841 2.67186C15.0622 2.38907 14.4123 2.24125 13.7341 2.2284C13.056 2.21555 12.3943 2.34105 11.7491 2.60489C10.9399 2.93577 10.325 3.42486 9.90451 4.07215C9.4871 4.71199 9.23579 5.4259 9.15057 6.21386C8.53766 5.71136 7.8555 5.37916 7.10409 5.21727C6.35579 5.04792 5.57705 5.12868 4.76786 5.45957C4.11734 5.72557 3.55466 6.10072 3.07982 6.58502C2.61028 7.06716 2.25009 7.62804 1.99927 8.26767C1.74845 8.90729 1.62694 9.59898 1.63476 10.3427C1.6457 11.079 1.8112 11.8386 2.13127 12.6213C2.59408 13.7531 3.35354 14.7574 4.40965 15.6343C5.4636 16.5059 6.74894 17.2488 8.26568 17.8633C9.78554 18.4702 11.4673 18.9524 13.311 19.3096C13.5406 19.3577 13.7674 19.3915 13.9914 19.411C14.2154 19.4306 14.3936 19.4133 14.5258 19.3592Z" fill="#ED0072"/>
</svg>
