<svg width="34" height="34" viewBox="0 0 34 34" fill="none" xmlns="http://www.w3.org/2000/svg">
<g clip-path="url(#clip0_315_1176)">
<path d="M32.5565 14.1794L19.0831 14.1787C18.4881 14.1787 18.0059 14.6609 18.0059 15.2559V19.56C18.0059 20.1549 18.4881 20.6372 19.083 20.6372H26.6704C25.8396 22.7933 24.2889 24.5991 22.3105 25.7464L25.5457 31.3469C30.7355 28.3455 33.8037 23.0791 33.8037 17.1838C33.8037 16.3444 33.7418 15.7444 33.6181 15.0687C33.524 14.5554 33.0784 14.1794 32.5565 14.1794Z" fill="#167EE6"/>
<path d="M17.2876 27.1031C13.5745 27.1031 10.333 25.0744 8.59204 22.0723L2.9917 25.3002C5.84167 30.2397 11.1806 33.5659 17.2876 33.5659C20.2835 33.5659 23.1104 32.7593 25.5456 31.3535V31.3459L22.3104 25.7453C20.8305 26.6036 19.118 27.1031 17.2876 27.1031Z" fill="#12B347"/>
<path d="M25.5461 31.3534V31.3457L22.3108 25.7451C20.831 26.6034 19.1186 27.103 17.2881 27.103V33.5658C20.284 33.5658 23.111 32.7591 25.5461 31.3534Z" fill="#0F993E"/>
<path d="M7.23426 17.0501C7.23426 15.2199 7.73374 13.5076 8.59187 12.0278L2.99153 8.7998C1.57806 11.2273 0.771484 14.0465 0.771484 17.0501C0.771484 20.0537 1.57806 22.8729 2.99153 25.3004L8.59187 22.0725C7.73374 20.5927 7.23426 18.8804 7.23426 17.0501Z" fill="#FFD500"/>
<path d="M17.2876 6.99794C19.709 6.99794 21.9331 7.85832 23.6703 9.28946C24.0989 9.64249 24.7218 9.61701 25.1143 9.22443L28.164 6.17478C28.6094 5.72937 28.5777 5.00028 28.1019 4.58751C25.1912 2.06243 21.4042 0.535156 17.2876 0.535156C11.1806 0.535156 5.84167 3.86139 2.9917 8.80083L8.59204 12.0288C10.333 9.02669 13.5745 6.99794 17.2876 6.99794Z" fill="#FF4B26"/>
<path d="M23.6707 9.28946C24.0993 9.64249 24.7223 9.61701 25.1148 9.22443L28.1645 6.17478C28.6098 5.72937 28.5781 5.00028 28.1023 4.58751C25.1917 2.06237 21.4046 0.535156 17.2881 0.535156V6.99794C19.7094 6.99794 21.9335 7.85832 23.6707 9.28946Z" fill="#D93F21"/>
</g>
<defs>
<clipPath id="clip0_315_1176">
<rect width="33.032" height="33.032" fill="white" transform="translate(0.771484 0.535156)"/>
</clipPath>
</defs>
</svg>
