<svg width="97" height="97" viewBox="0 0 97 97" fill="none" xmlns="http://www.w3.org/2000/svg">
<circle cx="48.5" cy="48.5" r="48.5" fill="#D9D9D9" fill-opacity="0.2"/>
<path d="M50.8684 55.3859L66.28 73.836C67.8941 75.7662 70.7682 76.0275 72.6984 74.4134L72.7742 74.3502C74.9067 72.5675 74.9614 69.3099 72.8922 67.4598L55.5252 51.4961L58.4878 49.0223C46.9575 34.1712 32.6837 25.553 22.5947 21.5283L50.8684 55.3859Z" fill="#E4EADF"/>
<path d="M71.358 69.2887L56.0264 54.9433C55.7019 54.6483 55.2089 54.6356 54.8675 54.918L54.8549 54.9306C54.484 55.2383 54.4334 55.7903 54.7369 56.1612L68.0245 72.441C68.8252 73.4229 70.2749 73.562 71.2484 72.7486L71.2864 72.7149C72.3441 71.8341 72.3821 70.2158 71.358 69.2887Z" fill="#CCCCCC"/>
<path d="M67.1144 73.1407L51.7028 54.6905L24.7651 22.4428C24.0234 22.1141 23.2985 21.8107 22.5947 21.5283L50.8726 55.3859L66.2842 73.836C67.8983 75.7662 70.7724 76.0275 72.7026 74.4134L72.7742 74.3544C71.2613 75.6145 68.7243 75.0708 67.1144 73.1407Z" fill="#F6F8F4"/>
<path d="M33.7583 27.1084C41.3314 32.3889 49.8864 39.844 57.6659 49.7054L58.4877 49.0185C50.7798 39.0938 41.8497 31.9548 33.7583 27.1084Z" fill="#C8CDC3"/>
<path d="M55.5251 51.4961L55.3481 51.6436L72.2011 68.0329C74.1228 69.8619 74.4726 72.6602 73.0229 74.1142C74.9066 72.2936 74.8814 69.2298 72.8964 67.4514L55.5251 51.4961Z" fill="#C8CDC3"/>
<path d="M69.7819 75.8886C68.3575 75.8886 66.9415 75.2818 65.9554 74.1018L22.2701 21.7983C22.1436 21.6508 22.1394 21.4359 22.2532 21.2799C22.3628 21.124 22.5693 21.065 22.7505 21.1366C29.1225 23.6779 45.3854 31.4574 58.8206 48.7613C58.9596 48.9425 58.9301 49.1996 58.7574 49.3429L56.1656 51.509L73.1786 67.144C74.2533 68.1049 74.8559 69.4871 74.8306 70.9326C74.8054 72.3781 74.1564 73.7394 73.0438 74.6665L72.9679 74.7297C72.0408 75.5094 70.9071 75.8886 69.7819 75.8886ZM51.1927 55.1164L66.6044 73.5666C68.0667 75.3155 70.6796 75.5515 72.4285 74.0891L72.5044 74.0259C73.4273 73.2547 73.9667 72.1253 73.9878 70.9242C74.0089 69.7231 73.5074 68.5726 72.6097 67.7719L55.2384 51.8082C55.1499 51.7239 55.0994 51.6101 55.1036 51.4879C55.1078 51.3657 55.1626 51.2519 55.2553 51.1761L57.9061 48.9636C45.6467 33.3201 31.0948 25.6249 24.0148 22.5779L51.1927 55.1164Z" fill="url(#paint0_linear_553_2755)"/>
<path d="M68.8168 71.7801L55.5291 55.5003C55.3437 55.2728 55.2931 54.982 55.3606 54.7207C55.1836 54.7333 55.0108 54.8008 54.8675 54.9188L54.8549 54.9314C54.484 55.2391 54.4334 55.7911 54.7369 56.162L68.0245 72.4418C68.8252 73.4237 70.2749 73.5628 71.2484 72.7494L71.2864 72.7157C71.417 72.6061 71.5308 72.4881 71.6277 72.3575C70.6921 72.8506 69.5121 72.6314 68.8168 71.7801Z" fill="#B3B3B3"/>
<path d="M69.7946 73.7017C69.7061 73.7017 69.6176 73.6975 69.5333 73.6891C68.8084 73.6175 68.1594 73.2719 67.7001 72.7072L54.4124 56.4274C53.9657 55.8753 54.0416 55.0577 54.5852 54.6068C55.0951 54.1812 55.8284 54.198 56.3088 54.6321L71.6488 68.9817C72.222 69.5043 72.5423 70.2502 72.5254 71.0299C72.5086 71.8095 72.1546 72.5428 71.5561 73.0401L71.5182 73.0738C71.0293 73.4826 70.4267 73.7017 69.7946 73.7017ZM55.4365 55.1336C55.3311 55.1336 55.2258 55.1673 55.1415 55.239C54.935 55.4117 54.9097 55.6983 55.0656 55.8922L68.3533 72.172C68.6693 72.5597 69.1161 72.7999 69.6133 72.8462C70.1064 72.8926 70.5953 72.7451 70.9788 72.4248L71.0167 72.3911C71.4297 72.0455 71.6699 71.544 71.6826 71.0088C71.6952 70.4736 71.4718 69.9595 71.0757 69.597L55.7357 55.2474C55.6556 55.1757 55.5461 55.1336 55.4365 55.1336Z" fill="url(#paint1_linear_553_2755)"/>
<path d="M67.9912 40.0888L75.3452 31.4748C75.5306 31.2598 75.5179 30.9396 75.3157 30.7373L75.2904 30.712C75.0839 30.5055 74.7509 30.4971 74.536 30.6993L64.4259 40.1351C63.9961 40.5355 63.3302 40.5228 62.913 40.1098L62.8962 40.093C62.4832 39.68 62.4705 39.0099 62.8709 38.5801L72.3067 28.47C72.5047 28.2551 72.5005 27.9221 72.294 27.7156L72.2856 27.7072C72.0791 27.5007 71.7462 27.4923 71.5312 27.6946L61.4212 37.1303C60.9913 37.5307 60.3254 37.5181 59.9082 37.1051L59.8914 37.0882C59.4784 36.6752 59.4657 36.0051 59.8661 35.5753L69.3019 25.4652C69.4999 25.2503 69.4957 24.9173 69.2892 24.7108L69.2808 24.7024C69.0743 24.4959 68.7414 24.4875 68.5264 24.6898L58.4206 34.1298C57.9907 34.5301 57.3249 34.5175 56.9077 34.1045L56.8908 34.0876C56.4778 33.6746 56.4652 33.0046 56.8655 32.5747L66.3013 22.4646C66.4994 22.2497 66.4952 21.9168 66.2887 21.7103L66.2634 21.685C66.0611 21.4827 65.7408 21.4701 65.5259 21.6555L56.9161 29.0136C54.0167 31.4874 53.4182 35.5963 55.2051 38.7486L22.8352 68.4172C21.1452 69.9638 21.0862 72.6104 22.7087 74.2329L22.7677 74.2919C24.3902 75.9144 27.0326 75.8554 28.5834 74.1655L58.2562 41.7998C61.4085 43.5866 65.5174 42.9882 67.9912 40.0888Z" fill="#E4EADF"/>
<path d="M41.5587 55.5973L41.546 55.5846C41.2089 55.2475 40.6652 55.2433 40.3239 55.5762L24.2675 69.5128C23.3698 70.3894 23.3614 71.8265 24.2464 72.7157L24.2801 72.7494C25.2452 73.7145 26.8382 73.6049 27.6642 72.5176L41.6345 56.7393C41.9 56.3938 41.8663 55.9049 41.5587 55.5973Z" fill="#CCCCCC"/>
<path d="M24.9884 70.2335L41.0448 56.2968C41.2513 56.0945 41.5337 56.0187 41.7992 56.065C41.7697 55.8923 41.6896 55.7279 41.559 55.5973L41.5463 55.5846C41.2092 55.2475 40.6655 55.2433 40.32 55.5762L24.2635 69.5128C23.3659 70.3894 23.3575 71.8265 24.2425 72.7157L24.2762 72.7494C24.3942 72.8674 24.5248 72.9685 24.6597 73.057C24.1034 72.1805 24.213 70.9963 24.9884 70.2335Z" fill="#B3B3B3"/>
<path d="M25.8775 73.832C25.1695 73.832 24.491 73.5538 23.9895 73.0481L23.9558 73.0144C23.4459 72.5045 23.1677 71.826 23.1719 71.1096C23.1761 70.3889 23.4627 69.7146 23.9769 69.2131L40.0501 55.2596C40.5348 54.7834 41.3524 54.7918 41.8496 55.2891C42.3174 55.7569 42.3638 56.4818 41.9761 56.9959L27.9846 72.7995C27.5379 73.3895 26.8299 73.773 26.0587 73.8278C25.9997 73.832 25.9365 73.832 25.8775 73.832ZM40.9267 55.7527C40.8129 55.7527 40.7034 55.7948 40.6191 55.8791L24.5458 69.8326C24.2129 70.1613 24.0148 70.6207 24.0106 71.1138C24.0064 71.6068 24.196 72.0704 24.5458 72.4202L24.5795 72.4539C24.9546 72.829 25.4687 73.0228 25.9955 72.9849C26.5223 72.9512 27.0069 72.6857 27.3272 72.2643L41.3186 56.4607C41.4324 56.309 41.4156 56.0519 41.2596 55.896C41.1669 55.7991 41.0489 55.7527 40.9267 55.7527Z" fill="url(#paint2_linear_553_2755)"/>
<path d="M72.0707 28.2371L62.5928 38.305C62.1924 38.7307 62.1587 39.3586 62.5211 39.721L62.5338 39.7337C62.5928 39.7927 62.6602 39.8348 62.7318 39.877C62.4916 39.4724 62.538 38.9456 62.8709 38.5874L72.3067 28.4773C72.5048 28.2624 72.5005 27.9295 72.294 27.723L72.2856 27.7145C72.2519 27.6808 72.2098 27.6597 72.1718 27.6387C72.2688 27.8157 72.2393 28.0601 72.0707 28.2371Z" fill="#C8CDC3"/>
<path d="M57.2699 34.4659L57.2826 34.4785C57.645 34.841 58.2729 34.8115 58.6986 34.4069L68.7665 24.929C68.9435 24.7604 69.1879 24.7309 69.3691 24.8278C69.3481 24.7899 69.327 24.7478 69.2933 24.714L69.2849 24.7056C69.0784 24.4991 68.7454 24.4907 68.5305 24.693L58.4204 34.1288C58.0622 34.4659 57.5354 34.508 57.1309 34.2678C57.1646 34.3395 57.2109 34.4069 57.2699 34.4659Z" fill="#C8CDC3"/>
<path d="M23.1976 68.779L55.9932 39.5361C54.5139 36.6914 54.7373 32.2074 57.6114 29.7084L66.1454 22.2786C66.2339 22.2027 66.3392 22.1606 66.4446 22.1479C66.4572 21.992 66.4109 21.8361 66.2929 21.7181L66.2676 21.6928C66.0653 21.4905 65.745 21.4779 65.5301 21.6633L56.9161 29.013C54.0167 31.4868 53.4182 35.5957 55.2051 38.748L22.8352 68.4166C21.1452 69.9632 21.0862 72.6098 22.7087 74.2323L22.7129 74.2365C21.2969 72.8163 21.5161 70.3341 23.1976 68.779Z" fill="white"/>
<path d="M67.9911 40.0881L75.345 31.4741C75.5304 31.2592 75.5178 30.9389 75.3155 30.7366L75.2902 30.7113C75.1722 30.5933 75.0163 30.547 74.8604 30.5596C74.8435 30.665 74.8056 30.7661 74.7297 30.8588L67.2957 39.3928C64.7924 42.2669 60.3084 42.4861 57.468 41.0111L28.2251 73.8066C26.6658 75.4881 24.1836 75.7073 22.7676 74.2871L22.7718 74.2913C24.3943 75.9138 27.0366 75.8548 28.5875 74.1648L58.2561 41.7991C61.4084 43.586 65.5173 42.9876 67.9911 40.0881Z" fill="#C8CDC3"/>
<path d="M25.6122 75.8932C24.4238 75.8932 23.3112 75.4338 22.4725 74.591L22.4135 74.532C21.5496 73.668 21.086 72.5133 21.1113 71.2912C21.1366 70.0648 21.6508 68.9354 22.5526 68.1094L54.6781 38.66C52.9503 35.3012 53.751 31.1627 56.642 28.6932L65.256 21.3392C65.6353 21.0147 66.2126 21.0358 66.5666 21.3898C66.9586 21.7817 66.9712 22.3717 66.613 22.7552L57.173 32.8653C56.9286 33.1308 56.9328 33.5354 57.1898 33.7924C57.4596 34.0622 57.8683 34.0706 58.1296 33.8219L68.2397 24.3862C68.6232 24.0279 69.2132 24.0406 69.5798 24.4072C69.9591 24.7865 69.9675 25.3723 69.6093 25.7558L60.1778 35.8659C59.9333 36.1314 59.9375 36.536 60.1946 36.793C60.4643 37.0627 60.8731 37.0712 61.1344 36.8225L71.2445 27.3867C71.628 27.0327 72.2138 27.0412 72.5846 27.4078C72.9639 27.7871 72.9723 28.3729 72.6141 28.7564L63.1783 38.8665C62.9339 39.132 62.9381 39.5365 63.1952 39.7936C63.4649 40.0633 63.8737 40.0717 64.135 39.8231L74.245 30.3873C74.6286 30.0291 75.2186 30.0417 75.5852 30.4126C75.9645 30.7919 75.9855 31.365 75.661 31.7443L68.3071 40.3583C65.8376 43.2493 61.6949 44.0458 58.3403 42.3222L28.8909 74.4477C28.0649 75.3495 26.9313 75.8637 25.7091 75.889C25.6796 75.8932 25.6459 75.8932 25.6122 75.8932ZM65.8755 21.9545C65.8502 21.9545 65.8249 21.963 65.8038 21.9798L57.1898 29.3337C54.518 31.6137 53.8395 35.4866 55.5715 38.542C55.6685 38.7147 55.6348 38.9297 55.4915 39.0603L23.1215 68.7289C22.3883 69.399 21.9753 70.3135 21.9542 71.308C21.9331 72.2984 22.3082 73.234 23.0078 73.9335L23.0668 73.9925C23.7705 74.6963 24.6977 75.063 25.6923 75.0461C26.6826 75.025 27.6013 74.6078 28.2714 73.8787L57.9442 41.5088C58.0748 41.3655 58.294 41.3276 58.4626 41.4287C61.5179 43.1608 65.3908 42.4823 67.6708 39.8105L75.0247 31.1965C75.0668 31.1459 75.0626 31.0742 75.0163 31.0321C74.9446 30.9605 74.8688 30.9605 74.8224 31.0068L64.7123 40.4426C64.1139 40.9989 63.1952 40.9862 62.6136 40.4047C62.0194 39.8105 62.0068 38.8917 62.5631 38.2933L71.9988 28.1832C72.0452 28.1327 72.041 28.061 71.9946 28.0147C71.9398 27.9599 71.864 27.9599 71.8176 28.002L61.7076 37.4378C61.1091 37.9941 60.1904 37.9815 59.6088 37.3999C59.0146 36.8057 59.002 35.887 59.5583 35.2885L68.994 25.1785C69.0404 25.1279 69.0362 25.0562 68.9898 25.0099C68.9351 24.9551 68.8592 24.9551 68.8128 25.0015L58.707 34.4372C58.1086 34.9935 57.1898 34.9809 56.6083 34.3993C56.014 33.8051 55.9972 32.8864 56.5577 32.288L65.9935 22.1779C66.0398 22.1273 66.0356 22.0557 65.9893 22.0093C65.9513 21.9714 65.9092 21.9545 65.8755 21.9545Z" fill="url(#paint3_linear_553_2755)"/>
<defs>
<linearGradient id="paint0_linear_553_2755" x1="14.4738" y1="48.4975" x2="83.5361" y2="48.4975" gradientUnits="userSpaceOnUse">
<stop stop-color="#302B3A"/>
<stop offset="1" stop-color="#404D5D"/>
</linearGradient>
<linearGradient id="paint1_linear_553_2755" x1="51.4313" y1="63.9993" x2="75.5683" y2="63.9993" gradientUnits="userSpaceOnUse">
<stop stop-color="#302B3A"/>
<stop offset="1" stop-color="#404D5D"/>
</linearGradient>
<linearGradient id="paint2_linear_553_2755" x1="20.385" y1="64.3706" x2="45.3884" y2="64.3706" gradientUnits="userSpaceOnUse">
<stop stop-color="#302B3A"/>
<stop offset="1" stop-color="#404D5D"/>
</linearGradient>
<linearGradient id="paint3_linear_553_2755" x1="13.1032" y1="48.5013" x2="84.9431" y2="48.5013" gradientUnits="userSpaceOnUse">
<stop stop-color="#302B3A"/>
<stop offset="1" stop-color="#404D5D"/>
</linearGradient>
</defs>
</svg>
