<svg width="38" height="38" viewBox="0 0 38 38" fill="none" xmlns="http://www.w3.org/2000/svg">
<circle cx="19" cy="19" r="19" fill="#D9D9D9" fill-opacity="0.5"/>
<path d="M10 19C10 20.1819 10.2328 21.3522 10.6851 22.4442C11.1374 23.5361 11.8003 24.5282 12.636 25.364C13.4718 26.1997 14.4639 26.8626 15.5558 27.3149C16.6478 27.7672 17.8181 28 19 28C20.1819 28 21.3522 27.7672 22.4442 27.3149C23.5361 26.8626 24.5282 26.1997 25.364 25.364C26.1997 24.5282 26.8626 23.5361 27.3149 22.4442C27.7672 21.3522 28 20.1819 28 19C28 16.6131 27.0518 14.3239 25.364 12.636C23.6761 10.9482 21.3869 10 19 10C16.6131 10 14.3239 10.9482 12.636 12.636C10.9482 14.3239 10 16.6131 10 19Z" stroke="black" stroke-width="2" stroke-linecap="round" stroke-linejoin="round"/>
<path d="M19 14V19L22 22" stroke="black" stroke-width="2" stroke-linecap="round" stroke-linejoin="round"/>
</svg>
