<svg width="38" height="38" viewBox="0 0 38 38" fill="none" xmlns="http://www.w3.org/2000/svg">
<circle cx="19" cy="19" r="19" fill="#D9D9D9" fill-opacity="0.5"/>
<path d="M19 15C19 15 19 15 18.24 14C17.36 12.84 16.06 12 14.5 12C12.01 12 10 14.01 10 16.5C10 17.43 10.28 18.29 10.76 19C11.57 20.21 19 28 19 28M19 15C19 15 19 15 19.76 14C20.64 12.84 21.94 12 23.5 12C25.99 12 28 14.01 28 16.5C28 17.43 27.72 18.29 27.24 19C26.43 20.21 19 28 19 28" stroke="black" stroke-width="2" stroke-linecap="round" stroke-linejoin="round"/>
</svg>
