<svg width="38" height="38" viewBox="0 0 38 38" fill="none" xmlns="http://www.w3.org/2000/svg">
<circle cx="19" cy="19" r="19" fill="#D9D9D9" fill-opacity="0.5"/>
<path d="M27 17C27 23.5 19 29 19 29C19 29 11 23.5 11 17C11 14.8783 11.8429 12.8434 13.3431 11.3431C14.8434 9.84285 16.8783 9 19 9C21.1217 9 23.1566 9.84285 24.6569 11.3431C26.1571 12.8434 27 14.8783 27 17Z" stroke="black" stroke-width="2"/>
<path d="M22 17C22 17.7956 21.6839 18.5587 21.1213 19.1213C20.5587 19.6839 19.7956 20 19 20C18.2044 20 17.4413 19.6839 16.8787 19.1213C16.3161 18.5587 16 17.7956 16 17C16 16.2044 16.3161 15.4413 16.8787 14.8787C17.4413 14.3161 18.2044 14 19 14C19.7956 14 20.5587 14.3161 21.1213 14.8787C21.6839 15.4413 22 16.2044 22 17Z" stroke="black" stroke-width="2"/>
</svg>
