<svg width="21" height="22" viewBox="0 0 21 22" fill="none" xmlns="http://www.w3.org/2000/svg">
<path d="M20.5295 8.37402V19.3894C20.5292 19.689 20.4699 19.9856 20.3549 20.2622C20.2399 20.5389 20.0715 20.7902 19.8594 21.0017C19.6472 21.2132 19.3954 21.3809 19.1185 21.4951C18.8415 21.6093 18.5447 21.6677 18.2451 21.6671H3.20091C2.59602 21.6677 2.01564 21.4282 1.5873 21.0011C1.15895 20.574 0.917682 19.9943 0.916504 19.3894V8.37402H20.5295Z" fill="#E0E0E0"/>
<path d="M18.9451 15.0939V19.0938C18.9454 19.3947 18.8862 19.6926 18.771 19.9705C18.6557 20.2483 18.4867 20.5007 18.2736 20.713C18.0604 20.9253 17.8074 21.0933 17.5291 21.2075C17.2508 21.3217 16.9527 21.3797 16.6518 21.3783H2.08763C1.73085 21.1807 1.43383 20.8908 1.22777 20.5389C1.02171 20.187 0.914201 19.7861 0.916541 19.3783V8.37402H13.9163C15.3677 8.80106 16.6418 9.6864 17.5483 10.8977C18.4547 12.1089 18.9448 13.581 18.9451 15.0939Z" fill="#E4EADF"/>
<path d="M18.2444 21.9998H3.20025C2.50696 22.0004 1.8418 21.7257 1.35094 21.2361C0.860084 20.7465 0.583697 20.082 0.58252 19.3887V8.37337C0.58252 8.28496 0.617638 8.20018 0.680149 8.13767C0.74266 8.07516 0.827443 8.04004 0.915847 8.04004H20.5289C20.6173 8.04004 20.702 8.07516 20.7646 8.13767C20.8271 8.20018 20.8622 8.28496 20.8622 8.37337V19.3887C20.861 20.082 20.5846 20.7465 20.0938 21.2361C19.6029 21.7257 18.9377 22.0004 18.2444 21.9998ZM1.24918 8.70669V19.3887C1.25035 19.9052 1.4565 20.4001 1.82234 20.7647C2.18817 21.1293 2.68377 21.3337 3.20025 21.3332H18.2444C18.7609 21.3337 19.2565 21.1293 19.6224 20.7647C19.9882 20.4001 20.1943 19.9052 20.1955 19.3887V8.70669H1.24918Z" fill="url(#paint0_linear_611_848)"/>
<path d="M20.5295 5.2765V8.37422H0.916504V5.2765C0.917087 4.97709 0.976638 4.68073 1.09176 4.40433C1.20687 4.12794 1.3753 3.87692 1.58743 3.66562C1.79956 3.45432 2.05123 3.28687 2.32807 3.17283C2.60491 3.05879 2.9015 3.0004 3.20091 3.00098H5.07866V4.06763C5.07843 4.23882 5.1123 4.40835 5.17831 4.5663C5.24432 4.72426 5.34113 4.86748 5.46309 4.98761C5.64601 5.16727 5.87774 5.28915 6.12942 5.33806C6.3811 5.38697 6.64161 5.36076 6.8785 5.26269C7.11539 5.16461 7.3182 4.99901 7.46166 4.78651C7.60511 4.57402 7.68288 4.32401 7.68528 4.06763V3.00098H13.7518V4.06763C13.7536 4.41322 13.892 4.74409 14.1368 4.98805C14.3816 5.23201 14.7129 5.36925 15.0585 5.36983C15.23 5.37041 15.3999 5.33718 15.5585 5.27203C15.7172 5.20687 15.8614 5.11108 15.9829 4.99013C16.1045 4.86918 16.201 4.72545 16.267 4.56716C16.333 4.40886 16.3671 4.23912 16.3674 4.06763V3.00098H18.2451C18.5445 3.0004 18.8411 3.05879 19.1179 3.17283C19.3948 3.28687 19.6465 3.45432 19.8586 3.66562C20.0707 3.87692 20.2391 4.12794 20.3543 4.40433C20.4694 4.68073 20.5289 4.97709 20.5295 5.2765Z" fill="#E0E0E0"/>
<path d="M19.2251 5.2765C19.2251 6.09807 18.8987 6.88599 18.3178 7.46692C17.7368 8.04786 16.9489 8.37422 16.1274 8.37422H0.916504V5.2765C0.917087 4.97709 0.976638 4.68073 1.09176 4.40433C1.20687 4.12794 1.3753 3.87692 1.58743 3.66562C1.79956 3.45432 2.05123 3.28687 2.32807 3.17283C2.60491 3.05879 2.9015 3.0004 3.20091 3.00098H5.07866V4.06763C5.07843 4.23882 5.1123 4.40835 5.17831 4.5663C5.24432 4.72426 5.34113 4.86748 5.46309 4.98761C5.64601 5.16727 5.87774 5.28915 6.12942 5.33806C6.3811 5.38697 6.64161 5.36076 6.8785 5.26269C7.11539 5.16461 7.3182 4.99901 7.46166 4.78651C7.60511 4.57402 7.68288 4.32401 7.68528 4.06763V3.00098H13.7518V4.06763C13.7536 4.41322 13.892 4.74409 14.1368 4.98805C14.3816 5.23201 14.7129 5.36925 15.0585 5.36983C15.23 5.37041 15.3999 5.33718 15.5585 5.27203C15.7172 5.20687 15.8614 5.11108 15.9829 4.99013C16.1045 4.86918 16.201 4.72545 16.267 4.56716C16.333 4.40886 16.3671 4.23912 16.3674 4.06763V3.00098H16.9451C17.549 3.00098 18.1283 3.24058 18.5557 3.66719C18.9832 4.09381 19.2239 4.67259 19.2251 5.2765Z" fill="#E4EADF"/>
<path d="M20.5289 8.70814H0.915847C0.827443 8.70814 0.74266 8.67302 0.680149 8.61051C0.617638 8.548 0.58252 8.46321 0.58252 8.37481V5.27708C0.583697 4.58379 0.860084 3.91933 1.35094 3.42972C1.8418 2.94012 2.50696 2.66543 3.20025 2.66602H5.078C5.12196 2.66602 5.16549 2.67471 5.20607 2.6916C5.24666 2.70849 5.28351 2.73324 5.31449 2.76443C5.34547 2.79562 5.36998 2.83263 5.3866 2.87332C5.40322 2.91402 5.41162 2.95761 5.41133 3.00157V4.06822C5.41309 4.32579 5.51664 4.57221 5.6994 4.75372C5.88216 4.93523 6.12929 5.03709 6.38687 5.03709C6.51439 5.03738 6.64073 5.01255 6.75866 4.96402C6.87659 4.91549 6.98381 4.8442 7.07419 4.75423C7.16457 4.66426 7.23634 4.55738 7.28542 4.43967C7.33449 4.32196 7.35989 4.19574 7.36018 4.06822V3.00157C7.36018 2.91316 7.3953 2.82838 7.45781 2.76587C7.52033 2.70336 7.60511 2.66824 7.69351 2.66824H13.7512C13.8396 2.66824 13.9244 2.70336 13.9869 2.76587C14.0494 2.82838 14.0845 2.91316 14.0845 3.00157V4.06822C14.0863 4.3254 14.1895 4.57149 14.3718 4.75294C14.5541 4.93439 14.8006 5.03651 15.0578 5.03709C15.3156 5.03768 15.5631 4.936 15.7459 4.75437C15.9288 4.57273 16.0322 4.32597 16.0334 4.06822V3.00157C16.0334 2.91316 16.0685 2.82838 16.131 2.76587C16.1935 2.70336 16.2783 2.66824 16.3667 2.66824H18.2444C18.9374 2.66765 19.6022 2.94203 20.093 3.43116C20.5838 3.92029 20.8604 4.58418 20.8622 5.27708V8.37481C20.8622 8.46321 20.8271 8.548 20.7646 8.61051C20.702 8.67302 20.6173 8.70814 20.5289 8.70814ZM1.24918 8.04148H20.1955V5.27708C20.1938 4.76078 19.9874 4.26623 19.6217 3.90177C19.256 3.53731 18.7608 3.33267 18.2444 3.33267H16.7V4.06822C16.6993 4.39229 16.6025 4.70889 16.422 4.97802C16.2415 5.24716 15.9853 5.45678 15.6857 5.58041C15.3861 5.70405 15.0566 5.73615 14.7388 5.67267C14.421 5.60919 14.1292 5.45298 13.9001 5.22375C13.7466 5.07307 13.6249 4.8932 13.5421 4.69475C13.4593 4.49629 13.4171 4.28326 13.4179 4.06822V3.33267H8.02684V4.06822C8.0261 4.39229 7.92936 4.70889 7.74883 4.97802C7.5683 5.24716 7.31207 5.45678 7.0125 5.58041C6.71293 5.70405 6.38345 5.73615 6.06565 5.67267C5.74785 5.60919 5.45598 5.45298 5.22689 5.22375C5.07346 5.07307 4.95175 4.8932 4.86893 4.69475C4.78611 4.49629 4.74386 4.28326 4.74467 4.06822V3.33267H3.18914C2.67284 3.33267 2.17758 3.53731 1.81187 3.90177C1.44617 4.26623 1.23983 4.76078 1.23806 5.27708L1.24918 8.04148Z" fill="url(#paint1_linear_611_848)"/>
<path d="M16.3674 1.63622V4.06729C16.366 4.32414 16.2888 4.57486 16.1456 4.78803C16.0023 5.0012 15.7992 5.16732 15.5619 5.26557C15.3246 5.36382 15.0636 5.38982 14.8115 5.34031C14.5595 5.29081 14.3277 5.168 14.1452 4.98728C14.0232 4.86715 13.9264 4.72392 13.8604 4.56597C13.7944 4.40801 13.7605 4.23849 13.7607 4.06729V1.63622C13.7631 1.37985 13.8409 1.12984 13.9844 0.917339C14.1278 0.70484 14.3306 0.539242 14.5675 0.441169C14.8044 0.343096 15.0649 0.316883 15.3166 0.365795C15.5683 0.414706 15.8 0.536581 15.9829 0.716239C16.1049 0.83637 16.2017 0.979594 16.2677 1.13755C16.3337 1.29551 16.3676 1.46503 16.3674 1.63622Z" fill="#E0E0E0"/>
<path d="M15.3896 1.63633V4.0674C15.3894 4.3269 15.3116 4.58041 15.1663 4.7954C15.021 5.0104 14.8148 5.17707 14.5741 5.27405C14.4135 5.20789 14.2677 5.11045 14.1452 4.98739C14.0232 4.86726 13.9264 4.72403 13.8604 4.56608C13.7944 4.40812 13.7605 4.2386 13.7607 4.0674V1.63633C13.7611 1.37716 13.8387 1.12397 13.9835 0.909061C14.1284 0.694151 14.334 0.527263 14.5741 0.429688C14.7353 0.495795 14.8818 0.59323 15.0052 0.716349C15.1271 0.83648 15.2239 0.979704 15.29 1.13766C15.356 1.29562 15.3898 1.46514 15.3896 1.63633Z" fill="white"/>
<path d="M7.69412 1.63716V4.06823C7.69383 4.23953 7.65981 4.4091 7.59398 4.56724C7.52816 4.72539 7.43183 4.86903 7.3105 4.98995C7.18916 5.11087 7.0452 5.20671 6.88683 5.27199C6.72846 5.33727 6.55878 5.37072 6.38748 5.37043C6.23998 5.37013 6.09355 5.34535 5.95415 5.2971C5.69942 5.20739 5.4786 5.04119 5.32189 4.82124C5.16518 4.60128 5.08021 4.3383 5.07861 4.06823V1.63716C5.07924 1.36686 5.16383 1.10343 5.32067 0.883287C5.47752 0.663145 5.69888 0.497165 5.95415 0.408293C6.09355 0.360048 6.23998 0.335267 6.38748 0.334961C6.73308 0.335543 7.06442 0.472785 7.30921 0.716742C7.554 0.960699 7.69237 1.29157 7.69412 1.63716Z" fill="#E0E0E0"/>
<path d="M6.82747 1.63707V4.06814C6.82733 4.33825 6.7432 4.60163 6.58673 4.82181C6.43026 5.04198 6.20919 5.20805 5.95415 5.29701C5.69942 5.2073 5.4786 5.0411 5.32189 4.82115C5.16518 4.60119 5.08021 4.33821 5.07861 4.06814V1.63707C5.07924 1.36677 5.16383 1.10334 5.32067 0.883197C5.47752 0.663055 5.69888 0.497075 5.95415 0.408203C6.13794 0.473763 6.30491 0.579256 6.44303 0.717087C6.565 0.837217 6.66181 0.980442 6.72782 1.1384C6.79383 1.29635 6.8277 1.46588 6.82747 1.63707Z" fill="white"/>
<path d="M15.0579 5.70282C14.6239 5.70224 14.2078 5.52988 13.9005 5.22341C13.5932 4.91694 13.4197 4.50129 13.418 4.06729V1.63622C13.4187 1.31215 13.5155 0.995552 13.696 0.726414C13.8765 0.457275 14.1327 0.247657 14.4323 0.124025C14.7319 0.000393411 15.0614 -0.0317101 15.3792 0.031768C15.697 0.0952461 15.9888 0.25146 16.2179 0.480687C16.3714 0.631365 16.4931 0.811235 16.5759 1.00969C16.6587 1.20815 16.7009 1.42118 16.7001 1.63622V4.06729C16.6984 4.50167 16.5246 4.91766 16.2168 5.22419C15.909 5.53072 15.4923 5.70283 15.0579 5.70282ZM15.0579 0.66735C14.9304 0.667058 14.8041 0.691887 14.6862 0.74042C14.5682 0.788952 14.461 0.860237 14.3706 0.950206C14.2802 1.04017 14.2085 1.14706 14.1594 1.26477C14.1103 1.38248 14.0849 1.5087 14.0846 1.63622V4.06729C14.0864 4.32448 14.1896 4.57057 14.3719 4.75202C14.5542 4.93346 14.8007 5.03559 15.0579 5.03617C15.3157 5.03676 15.5632 4.93508 15.746 4.75345C15.9289 4.57181 16.0323 4.32505 16.0335 4.06729V1.63622C16.0336 1.50914 16.0083 1.38333 15.959 1.26617C15.9098 1.14901 15.8377 1.04288 15.7468 0.954012C15.6566 0.863072 15.5493 0.790912 15.4311 0.741708C15.3128 0.692504 15.186 0.66723 15.0579 0.66735Z" fill="url(#paint2_linear_611_848)"/>
<path d="M6.38732 5.70282C6.17187 5.70328 5.95846 5.6611 5.75938 5.57872C5.56029 5.49634 5.37948 5.37539 5.22734 5.22283C5.07391 5.07215 4.9522 4.89228 4.86939 4.69382C4.78657 4.49537 4.74432 4.28234 4.74513 4.06729V1.63622C4.74587 1.31215 4.84261 0.995552 5.02314 0.726414C5.20367 0.457275 5.4599 0.247657 5.75947 0.124025C6.05904 0.000393411 6.38852 -0.0317101 6.70632 0.031768C7.02412 0.0952461 7.31599 0.25146 7.54508 0.480687C7.69851 0.631365 7.82022 0.811235 7.90304 1.00969C7.98586 1.20815 8.02811 1.42118 8.0273 1.63622V4.06729C8.02612 4.50147 7.85282 4.91746 7.54539 5.22406C7.23796 5.53065 6.8215 5.70282 6.38732 5.70282ZM6.38732 0.66735C6.12957 0.666759 5.8821 0.768435 5.69922 0.95007C5.51633 1.13171 5.41296 1.37847 5.41178 1.63622V4.06729C5.41354 4.32487 5.5171 4.57129 5.69986 4.7528C5.88262 4.93431 6.12975 5.03617 6.38732 5.03617C6.51485 5.03646 6.64118 5.01163 6.75911 4.9631C6.87705 4.91457 6.98426 4.84328 7.07464 4.75331C7.16502 4.66334 7.2368 4.55645 7.28587 4.43875C7.33494 4.32104 7.36035 4.19482 7.36064 4.06729V1.63622C7.36074 1.50914 7.33543 1.38333 7.2862 1.26617C7.23697 1.14901 7.16482 1.04288 7.07398 0.954012C6.98421 0.863139 6.87729 0.791003 6.75941 0.741793C6.64153 0.692583 6.51506 0.667279 6.38732 0.66735Z" fill="url(#paint3_linear_611_848)"/>
<path d="M16.0685 17.8893H5.37532C5.28692 17.8893 5.20213 17.8542 5.13962 17.7917C5.07711 17.7292 5.04199 17.6444 5.04199 17.556C5.04199 17.4676 5.07711 17.3828 5.13962 17.3203C5.20213 17.2578 5.28692 17.2227 5.37532 17.2227H16.0685C16.1569 17.2227 16.2417 17.2578 16.3042 17.3203C16.3667 17.3828 16.4018 17.4676 16.4018 17.556C16.4018 17.6444 16.3667 17.7292 16.3042 17.7917C16.2417 17.8542 16.1569 17.8893 16.0685 17.8893Z" fill="url(#paint4_linear_611_848)"/>
<path d="M14.9447 17.8888C14.8562 17.8888 14.7715 17.8537 14.709 17.7912C14.6464 17.7287 14.6113 17.6439 14.6113 17.5555C14.6119 17.0447 14.5117 16.5387 14.3165 16.0666C14.1213 15.5945 13.8348 15.1656 13.4736 14.8044C13.1124 14.4432 12.6835 14.1567 12.2114 13.9615C11.7393 13.7663 11.2334 13.6661 10.7225 13.6667C10.2124 13.6658 9.70707 13.7657 9.23564 13.9607C8.76422 14.1556 8.33595 14.4418 7.97543 14.8027C7.61492 15.1636 7.32925 15.5922 7.13484 16.0639C6.94042 16.5355 6.8411 17.0409 6.84256 17.5511C6.84318 17.596 6.83471 17.6405 6.81768 17.6821C6.80064 17.7236 6.77538 17.7613 6.74342 17.7929C6.71146 17.8244 6.67345 17.8492 6.63168 17.8657C6.58991 17.8822 6.54524 17.89 6.50035 17.8888C6.41194 17.8888 6.32716 17.8537 6.26465 17.7912C6.20214 17.7287 6.16702 17.6439 6.16702 17.5555C6.16496 16.9567 6.28139 16.3634 6.5096 15.8098C6.7378 15.2561 7.07328 14.7531 7.49671 14.3297C7.92013 13.9063 8.42314 13.5708 8.97676 13.3426C9.53039 13.1144 10.1237 12.998 10.7225 13C11.9286 13.0018 13.0846 13.482 13.937 14.3352C14.7894 15.1884 15.2685 16.345 15.2691 17.5511C15.2703 17.6387 15.2369 17.7233 15.1762 17.7865C15.1155 17.8498 15.0323 17.8865 14.9447 17.8888Z" fill="url(#paint5_linear_611_848)"/>
<path d="M10.722 13.6672C10.6336 13.6672 10.5488 13.632 10.4863 13.5695C10.4238 13.507 10.3887 13.4222 10.3887 13.3338V12.2005C10.3887 12.1121 10.4238 12.0273 10.4863 11.9648C10.5488 11.9023 10.6336 11.8672 10.722 11.8672C10.8104 11.8672 10.8952 11.9023 10.9577 11.9648C11.0202 12.0273 11.0553 12.1121 11.0553 12.2005V13.3383C11.0542 13.4259 11.0185 13.5096 10.9561 13.5711C10.8938 13.6327 10.8096 13.6672 10.722 13.6672Z" fill="url(#paint6_linear_611_848)"/>
<defs>
<linearGradient id="paint0_linear_611_848" x1="-2.38186" y1="15.0199" x2="24.2144" y2="15.0199" gradientUnits="userSpaceOnUse">
<stop stop-color="#302B3A"/>
<stop offset="1" stop-color="#404D5D"/>
</linearGradient>
<linearGradient id="paint1_linear_611_848" x1="-2.38186" y1="5.68708" x2="24.2144" y2="5.68708" gradientUnits="userSpaceOnUse">
<stop stop-color="#302B3A"/>
<stop offset="1" stop-color="#404D5D"/>
</linearGradient>
<linearGradient id="paint2_linear_611_848" x1="12.9382" y1="2.85141" x2="17.2427" y2="2.85141" gradientUnits="userSpaceOnUse">
<stop stop-color="#302B3A"/>
<stop offset="1" stop-color="#404D5D"/>
</linearGradient>
<linearGradient id="paint3_linear_611_848" x1="4.26534" y1="2.85141" x2="8.56985" y2="2.85141" gradientUnits="userSpaceOnUse">
<stop stop-color="#302B3A"/>
<stop offset="1" stop-color="#404D5D"/>
</linearGradient>
<linearGradient id="paint4_linear_611_848" x1="3.38147" y1="17.556" x2="18.2796" y2="17.556" gradientUnits="userSpaceOnUse">
<stop stop-color="#302B3A"/>
<stop offset="1" stop-color="#404D5D"/>
</linearGradient>
<linearGradient id="paint5_linear_611_848" x1="4.83649" y1="15.4445" x2="16.7737" y2="15.4445" gradientUnits="userSpaceOnUse">
<stop stop-color="#302B3A"/>
<stop offset="1" stop-color="#404D5D"/>
</linearGradient>
<linearGradient id="paint6_linear_611_848" x1="10.2912" y1="12.7672" x2="11.1655" y2="12.7672" gradientUnits="userSpaceOnUse">
<stop stop-color="#302B3A"/>
<stop offset="1" stop-color="#404D5D"/>
</linearGradient>
</defs>
</svg>
