<svg width="24" height="24" viewBox="0 0 24 24" fill="none" xmlns="http://www.w3.org/2000/svg">
<path d="M12.9635 14.8009L19.2327 22.306C19.8893 23.0912 21.0584 23.1975 21.8435 22.5409L21.8744 22.5152C22.7418 21.79 22.7641 20.4649 21.9224 19.7123L14.8578 13.2186L16.063 12.2123C11.3727 6.17118 5.5664 2.66546 1.4624 1.02832L12.9635 14.8009Z" fill="#E4EADF"/>
<path d="M21.2981 20.4561L15.0616 14.6207C14.9296 14.5007 14.729 14.4955 14.5901 14.6104L14.585 14.6155C14.4341 14.7407 14.4136 14.9652 14.537 15.1161L19.9421 21.7384C20.2679 22.1378 20.8576 22.1944 21.2536 21.8635L21.269 21.8498C21.6993 21.4915 21.7147 20.8332 21.2981 20.4561Z" fill="#CCCCCC"/>
<path d="M19.5721 22.0232L13.303 14.518L2.34526 1.40032C2.04355 1.26661 1.74869 1.14318 1.4624 1.02832L12.9653 14.8009L19.2344 22.306C19.891 23.0912 21.0601 23.1975 21.8453 22.5409L21.8744 22.5169C21.259 23.0295 20.227 22.8083 19.5721 22.0232Z" fill="#F6F8F4"/>
<path d="M6.00342 3.29785C9.08399 5.44585 12.564 8.47842 15.7286 12.4899L16.0628 12.2104C12.9274 8.17328 9.29485 5.26928 6.00342 3.29785Z" fill="#C8CDC3"/>
<path d="M14.8576 13.2188L14.7856 13.2787L21.6411 19.9456C22.4228 20.6896 22.5651 21.8279 21.9754 22.4193C22.7416 21.6788 22.7314 20.4325 21.9239 19.709L14.8576 13.2188Z" fill="#C8CDC3"/>
<path d="M20.657 23.1407C20.0776 23.1407 19.5016 22.8939 19.1005 22.4139L1.33018 1.13787C1.27875 1.07787 1.27704 0.990445 1.32332 0.927016C1.3679 0.863587 1.4519 0.839588 1.52561 0.86873C4.11761 1.90244 10.733 5.06702 16.1982 12.1059C16.2548 12.1796 16.2428 12.2842 16.1725 12.3424L15.1182 13.2236L22.0388 19.5836C22.4759 19.9744 22.721 20.5367 22.7108 21.1247C22.7005 21.7127 22.4365 22.2664 21.9839 22.6436L21.953 22.6693C21.5759 22.9864 21.1148 23.1407 20.657 23.1407ZM13.0953 14.691L19.3645 22.1962C19.9593 22.9076 21.0222 23.0036 21.7336 22.4087L21.7645 22.383C22.1399 22.0693 22.3593 21.6099 22.3679 21.1213C22.3765 20.6327 22.1725 20.1647 21.8073 19.839L14.741 13.3453C14.705 13.311 14.6845 13.2647 14.6862 13.215C14.6879 13.1653 14.7102 13.119 14.7479 13.0882L15.8262 12.1882C10.8393 5.82473 4.9199 2.69444 2.0399 1.45502L13.0953 14.691Z" fill="url(#paint0_linear_611_745)"/>
<path d="M20.2644 21.4697L14.8593 14.8474C14.7839 14.7548 14.7633 14.6366 14.7907 14.5303C14.7187 14.5354 14.6484 14.5628 14.5901 14.6108L14.585 14.616C14.4341 14.7411 14.4136 14.9657 14.537 15.1166L19.9421 21.7388C20.2679 22.1383 20.8576 22.1948 21.2536 21.864L21.269 21.8503C21.3221 21.8057 21.3684 21.7577 21.4079 21.7046C21.0273 21.9051 20.5473 21.816 20.2644 21.4697Z" fill="#B3B3B3"/>
<path d="M20.6621 22.2509C20.6261 22.2509 20.5901 22.2492 20.5558 22.2458C20.2609 22.2166 19.9969 22.0761 19.8101 21.8464L14.4049 15.2241C14.2232 14.9995 14.2541 14.6669 14.4752 14.4835C14.6826 14.3104 14.9809 14.3172 15.1764 14.4938L21.4164 20.3309C21.6495 20.5435 21.7798 20.8469 21.7729 21.1641C21.7661 21.4812 21.6221 21.7795 21.3786 21.9818L21.3632 21.9955C21.1644 22.1618 20.9192 22.2509 20.6621 22.2509ZM14.8215 14.6978C14.7786 14.6978 14.7358 14.7115 14.7015 14.7406C14.6175 14.8109 14.6072 14.9275 14.6706 15.0064L20.0758 21.6286C20.2044 21.7864 20.3861 21.8841 20.5884 21.9029C20.7889 21.9218 20.9878 21.8618 21.1438 21.7315L21.1592 21.7178C21.3272 21.5772 21.4249 21.3732 21.4301 21.1555C21.4352 20.9378 21.3444 20.7286 21.1832 20.5812L14.9432 14.7441C14.9106 14.7149 14.8661 14.6978 14.8215 14.6978Z" fill="url(#paint1_linear_611_745)"/>
<path d="M19.9283 8.57797L22.9197 5.07397C22.9951 4.98654 22.99 4.85626 22.9077 4.77397L22.8974 4.76368C22.8134 4.67968 22.678 4.67626 22.5906 4.75854L18.478 8.59683C18.3031 8.75969 18.0323 8.75454 17.8626 8.58654L17.8557 8.57968C17.6877 8.41168 17.6826 8.13911 17.8454 7.96426L21.6837 3.85168C21.7643 3.76426 21.7626 3.62883 21.6786 3.54483L21.6751 3.5414C21.5911 3.4574 21.4557 3.45397 21.3683 3.53626L17.2557 7.37454C17.0809 7.5374 16.81 7.53226 16.6403 7.36426L16.6334 7.3574C16.4654 7.1894 16.4603 6.91683 16.6231 6.74197L20.4614 2.6294C20.542 2.54197 20.5403 2.40654 20.4563 2.32254L20.4529 2.31911C20.3689 2.23511 20.2334 2.23168 20.146 2.31397L16.0351 6.15397C15.8603 6.31683 15.5894 6.31169 15.4197 6.14368L15.4129 6.13683C15.2449 5.96883 15.2397 5.69626 15.4026 5.5214L19.2409 1.40883C19.3214 1.3214 19.3197 1.18597 19.2357 1.10197L19.2254 1.09168C19.1431 1.0094 19.0129 1.00426 18.9254 1.07968L15.4231 4.07283C14.2437 5.07911 14.0003 6.75054 14.7271 8.03283L1.55972 20.1014C0.872288 20.7305 0.848288 21.8071 1.50829 22.4671L1.53229 22.4911C2.19229 23.1511 3.26714 23.1271 3.898 22.4397L15.9683 9.27397C17.2506 10.0008 18.922 9.7574 19.9283 8.57797Z" fill="#E4EADF"/>
<path d="M9.17665 14.8864L9.1715 14.8813C9.03436 14.7441 8.81322 14.7424 8.67436 14.8779L2.14293 20.547C1.77779 20.9036 1.77436 21.4881 2.13436 21.8499L2.14807 21.8636C2.54065 22.2561 3.18865 22.2116 3.52465 21.7693L9.2075 15.351C9.3155 15.2104 9.30179 15.0116 9.17665 14.8864Z" fill="#CCCCCC"/>
<path d="M2.43632 20.8401L8.96775 15.171C9.05175 15.0887 9.16661 15.0579 9.27461 15.0767C9.26261 15.0064 9.23004 14.9396 9.1769 14.8864L9.17175 14.8813C9.03461 14.7441 8.81347 14.7424 8.6729 14.8779L2.14147 20.547C1.77632 20.9036 1.7729 21.4881 2.1329 21.8499L2.14661 21.8636C2.19461 21.9116 2.24775 21.9527 2.30261 21.9887C2.07632 21.6321 2.1209 21.1504 2.43632 20.8401Z" fill="#B3B3B3"/>
<path d="M2.79786 22.3039C2.50986 22.3039 2.23386 22.1907 2.02986 21.985L2.01614 21.9713C1.80871 21.7639 1.69557 21.4879 1.69728 21.1964C1.699 20.9033 1.81557 20.629 2.02471 20.425L8.563 14.749C8.76014 14.5553 9.09271 14.5587 9.295 14.761C9.48529 14.9513 9.50414 15.2461 9.34643 15.4553L3.655 21.8839C3.47328 22.1239 3.18528 22.2799 2.87157 22.3021C2.84757 22.3039 2.82186 22.3039 2.79786 22.3039ZM8.91957 14.9496C8.87328 14.9496 8.82871 14.9667 8.79443 15.001L2.25614 20.677C2.12071 20.8107 2.04014 20.9976 2.03843 21.1981C2.03671 21.3987 2.11386 21.5873 2.25614 21.7296L2.26986 21.7433C2.42243 21.8959 2.63157 21.9747 2.84586 21.9593C3.06014 21.9456 3.25728 21.8376 3.38757 21.6661L9.079 15.2376C9.12529 15.1759 9.11843 15.0713 9.055 15.0079C9.01729 14.9684 8.96929 14.9496 8.91957 14.9496Z" fill="url(#paint2_linear_611_745)"/>
<path d="M21.5875 3.7571L17.7321 7.85253C17.5692 8.02567 17.5555 8.2811 17.7029 8.42853L17.7081 8.43367C17.7321 8.45767 17.7595 8.47481 17.7886 8.49196C17.6909 8.32739 17.7098 8.1131 17.8452 7.96739L21.6835 3.85481C21.7641 3.76739 21.7624 3.63196 21.6784 3.54796L21.6749 3.54453C21.6612 3.53081 21.6441 3.52224 21.6286 3.51367C21.6681 3.58567 21.6561 3.6851 21.5875 3.7571Z" fill="#C8CDC3"/>
<path d="M15.5673 6.29014L15.5725 6.29528C15.7199 6.44271 15.9753 6.43071 16.1485 6.26614L20.2439 2.41071C20.3159 2.34214 20.4153 2.33014 20.489 2.36957C20.4805 2.35414 20.4719 2.337 20.4582 2.32328L20.4547 2.31985C20.3707 2.23585 20.2353 2.23242 20.1479 2.31471L16.0353 6.153C15.8896 6.29014 15.6753 6.30728 15.5107 6.20957C15.5245 6.23871 15.5433 6.26614 15.5673 6.29014Z" fill="#C8CDC3"/>
<path d="M1.70714 20.2483L15.0477 8.3529C14.446 7.19576 14.5369 5.37176 15.706 4.35519L19.1774 1.3329C19.2134 1.30204 19.2563 1.2849 19.2991 1.27976C19.3043 1.21633 19.2854 1.1529 19.2374 1.1049L19.2271 1.09461C19.1449 1.01233 19.0146 1.00719 18.9271 1.08261L15.4231 4.07233C14.2437 5.07861 14.0003 6.75004 14.7271 8.03233L1.55972 20.1009C0.872288 20.73 0.848288 21.8066 1.50829 22.4666L1.51 22.4683C0.934002 21.8906 1.02314 20.8809 1.70714 20.2483Z" fill="white"/>
<path d="M19.9282 8.57702L22.9197 5.07302C22.9951 4.98559 22.9899 4.8553 22.9077 4.77302L22.8974 4.76273C22.8494 4.71473 22.7859 4.69587 22.7225 4.70102C22.7157 4.74387 22.7002 4.78502 22.6694 4.82273L19.6454 8.29416C18.6271 9.4633 16.8031 9.55244 15.6477 8.95244L3.75223 22.293C3.11794 22.977 2.10823 23.0662 1.53223 22.4884L1.53394 22.4902C2.19394 23.1502 3.2688 23.1262 3.89966 22.4387L15.9682 9.27302C17.2505 9.99987 18.9219 9.75644 19.9282 8.57702Z" fill="#C8CDC3"/>
<path d="M2.68966 23.1424C2.20623 23.1424 1.75366 22.9555 1.41251 22.6126L1.38851 22.5886C1.03708 22.2372 0.848512 21.7675 0.858798 21.2704C0.869084 20.7715 1.07823 20.3121 1.44508 19.9761L14.5131 7.99664C13.8102 6.63035 14.1359 4.94692 15.3119 3.94235L18.8159 0.950925C18.9702 0.818925 19.2051 0.827496 19.3491 0.971496C19.5085 1.13092 19.5137 1.37092 19.3679 1.52692L15.5279 5.6395C15.4285 5.7475 15.4302 5.91207 15.5348 6.01664C15.6445 6.12635 15.8108 6.12978 15.9171 6.02864L20.0297 2.19035C20.1857 2.04464 20.4257 2.04978 20.5748 2.19892C20.7291 2.35321 20.7325 2.5915 20.5868 2.7475L16.7502 6.86007C16.6508 6.96807 16.6525 7.13264 16.7571 7.23721C16.8668 7.34693 17.0331 7.35035 17.1394 7.24921L21.2519 3.41092C21.4079 3.26692 21.6462 3.27035 21.7971 3.4195C21.9514 3.57378 21.9548 3.81207 21.8091 3.96807L17.9708 8.08064C17.8714 8.18864 17.8731 8.35321 17.9777 8.45778C18.0874 8.5675 18.2537 8.57092 18.3599 8.46978L22.4725 4.6315C22.6285 4.48578 22.8685 4.49092 23.0177 4.64178C23.1719 4.79607 23.1805 5.02921 23.0485 5.1835L20.0571 8.6875C19.0525 9.8635 17.3674 10.1875 16.0028 9.48635L4.02337 22.5544C3.68737 22.9212 3.22623 23.1304 2.72908 23.1406C2.71708 23.1424 2.70337 23.1424 2.68966 23.1424ZM19.0679 1.20121C19.0577 1.20121 19.0474 1.20464 19.0388 1.2115L15.5348 4.20292C14.4479 5.13035 14.1719 6.70578 14.8765 7.94864C14.9159 8.01892 14.9022 8.10635 14.8439 8.1595L1.67651 20.2281C1.37823 20.5006 1.21023 20.8726 1.20166 21.2772C1.19308 21.6801 1.34566 22.0606 1.63023 22.3452L1.65423 22.3692C1.94051 22.6555 2.31766 22.8046 2.72223 22.7978C3.12508 22.7892 3.4988 22.6195 3.77137 22.3229L15.8417 9.1555C15.8948 9.09721 15.9839 9.08178 16.0525 9.12292C17.2954 9.8275 18.8708 9.5515 19.7982 8.46464L22.7897 4.96064C22.8068 4.94007 22.8051 4.91092 22.7862 4.89378C22.7571 4.86464 22.7262 4.86464 22.7074 4.8835L18.5948 8.72178C18.3514 8.94807 17.9777 8.94293 17.7411 8.70635C17.4994 8.46464 17.4942 8.09092 17.7205 7.8475L21.5588 3.73492C21.5777 3.71435 21.5759 3.68521 21.5571 3.66635C21.5348 3.64407 21.5039 3.64407 21.4851 3.66121L17.3725 7.4995C17.1291 7.72578 16.7554 7.72064 16.5188 7.48407C16.2771 7.24235 16.2719 6.86864 16.4982 6.62521L20.3365 2.51264C20.3554 2.49207 20.3537 2.46292 20.3348 2.44407C20.3125 2.42178 20.2817 2.42178 20.2628 2.44064L16.1519 6.27892C15.9085 6.50521 15.5348 6.50007 15.2982 6.2635C15.0565 6.02178 15.0497 5.64807 15.2777 5.40464L19.1159 1.29207C19.1348 1.2715 19.1331 1.24235 19.1142 1.2235C19.0988 1.20807 19.0817 1.20121 19.0679 1.20121Z" fill="url(#paint3_linear_611_745)"/>
<defs>
<linearGradient id="paint0_linear_611_745" x1="-1.84118" y1="11.9986" x2="26.252" y2="11.9986" gradientUnits="userSpaceOnUse">
<stop stop-color="#302B3A"/>
<stop offset="1" stop-color="#404D5D"/>
</linearGradient>
<linearGradient id="paint1_linear_611_745" x1="13.1923" y1="18.3042" x2="23.0107" y2="18.3042" gradientUnits="userSpaceOnUse">
<stop stop-color="#302B3A"/>
<stop offset="1" stop-color="#404D5D"/>
</linearGradient>
<linearGradient id="paint2_linear_611_745" x1="0.563639" y1="18.4552" x2="10.7345" y2="18.4552" gradientUnits="userSpaceOnUse">
<stop stop-color="#302B3A"/>
<stop offset="1" stop-color="#404D5D"/>
</linearGradient>
<linearGradient id="paint3_linear_611_745" x1="-2.39875" y1="11.9999" x2="26.8243" y2="11.9999" gradientUnits="userSpaceOnUse">
<stop stop-color="#302B3A"/>
<stop offset="1" stop-color="#404D5D"/>
</linearGradient>
</defs>
</svg>
