<svg width="31" height="31" viewBox="0 0 31 31" fill="none" xmlns="http://www.w3.org/2000/svg">
<path d="M26.7311 10.9439C26.7311 9.43651 26.132 7.99131 25.066 6.92545C24.0002 5.8596 22.555 5.26037 21.0476 5.26037C20.0628 5.26037 19.296 5.39929 18.5871 5.70809C17.8699 6.02045 17.1324 6.54114 16.2571 7.41634C15.7639 7.90958 14.9644 7.90958 14.4712 7.41634C13.596 6.54114 12.8584 6.02045 12.1413 5.70809C11.4323 5.39929 10.6656 5.26037 9.68067 5.26037C8.17332 5.26037 6.72813 5.8596 5.66227 6.92545C4.59641 7.99131 3.99719 9.43651 3.99719 10.9439C3.99719 12.9849 5.15852 14.6802 6.71312 16.2943L15.3642 24.9453L23.3208 16.9887L24.009 16.2932C25.5634 14.6646 26.7311 12.9727 26.7311 10.9439ZM29.2571 10.9439C29.2571 14.404 26.9743 16.9416 25.0969 18.7821L25.0981 18.7833L16.2571 27.6243C15.7639 28.1176 14.9644 28.1176 14.4712 27.6243L5.645 18.7982L4.91977 18.0754C3.21093 16.3103 1.47119 13.9862 1.47119 10.9439C1.47119 8.76656 2.3355 6.67784 3.87508 5.13826C5.41466 3.59868 7.50338 2.73438 9.68067 2.73438C10.9186 2.73438 12.0468 2.91121 13.1503 3.39178C13.9247 3.72912 14.6465 4.20098 15.3642 4.80771C16.0818 4.20098 16.8036 3.72912 17.5781 3.39178C18.6815 2.91121 19.8097 2.73438 21.0476 2.73438C23.2249 2.73438 25.3137 3.59868 26.8533 5.13826C28.3929 6.67784 29.2571 8.76656 29.2571 10.9439Z" fill="white"/>
</svg>
