<svg width="23" height="23" viewBox="0 0 23 23" fill="none" xmlns="http://www.w3.org/2000/svg">
<path d="M20.4777 3.64488C20.4777 3.02512 19.9753 2.5227 19.3555 2.5227L3.64488 2.5227C3.02512 2.5227 2.5227 3.02512 2.5227 3.64488L2.5227 19.3555C2.5227 19.9753 3.02512 20.4777 3.64488 20.4777L19.3555 20.4777C19.9753 20.4777 20.4777 19.9753 20.4777 19.3555L20.4777 3.64488ZM22.7221 19.3555C22.7221 21.2149 21.2149 22.7221 19.3555 22.7221L3.64488 22.7221C1.78559 22.7221 0.27832 21.2149 0.27832 19.3555L0.27832 3.64488C0.27832 1.78559 1.78559 0.27832 3.64488 0.27832L19.3555 0.27832C21.2149 0.27832 22.7221 1.78559 22.7221 3.64488L22.7221 19.3555Z" fill="#B0B0B0"/>
<path d="M15.9888 10.3779C16.6086 10.3779 17.111 10.8803 17.111 11.5001C17.111 12.1199 16.6086 12.6223 15.9888 12.6223L7.01135 12.6223C6.39159 12.6223 5.88916 12.1199 5.88916 11.5001C5.88916 10.8803 6.39159 10.3779 7.01135 10.3779L15.9888 10.3779Z" fill="#B0B0B0"/>
<path d="M10.3779 15.9893L10.3779 7.01184C10.3779 6.39207 10.8803 5.88965 11.5001 5.88965C12.1199 5.88965 12.6223 6.39207 12.6223 7.01184L12.6223 15.9893C12.6223 16.6091 12.1199 17.1115 11.5001 17.1115C10.8803 17.1115 10.3779 16.6091 10.3779 15.9893Z" fill="#B0B0B0"/>
</svg>
