<svg width="28" height="24" viewBox="0 0 28 24" fill="none" xmlns="http://www.w3.org/2000/svg">
<g clip-path="url(#clip0_1101_3917)">
<path d="M12.9436 8.2053H15.1953V5.95356H12.9436M14.0695 20.5899C9.1044 20.5899 5.06253 16.548 5.06253 11.5829C5.06253 6.61783 9.1044 2.57596 14.0695 2.57596C19.0346 2.57596 23.0764 6.61783 23.0764 11.5829C23.0764 16.548 19.0346 20.5899 14.0695 20.5899ZM14.0695 0.324219C12.591 0.324219 11.1269 0.615433 9.76097 1.18124C8.395 1.74704 7.15385 2.57635 6.10838 3.62181C3.99697 5.73323 2.81079 8.59692 2.81079 11.5829C2.81079 14.5689 3.99697 17.4326 6.10838 19.544C7.15385 20.5895 8.395 21.4188 9.76097 21.9846C11.1269 22.5504 12.591 22.8416 14.0695 22.8416C17.0555 22.8416 19.9192 21.6554 22.0306 19.544C24.142 17.4326 25.3282 14.5689 25.3282 11.5829C25.3282 10.1044 25.037 8.64036 24.4712 7.27439C23.9053 5.90843 23.076 4.66728 22.0306 3.62181C20.9851 2.57635 19.744 1.74704 18.378 1.18124C17.012 0.615433 15.548 0.324219 14.0695 0.324219ZM12.9436 17.2123H15.1953V10.457H12.9436V17.2123Z" fill="white"/>
</g>
<defs>
<clipPath id="clip0_1101_3917">
<rect width="26.2703" height="23.3514" fill="white" transform="translate(0.86499 0.324219)"/>
</clipPath>
</defs>
</svg>
