<svg width="16" height="17" viewBox="0 0 16 17" fill="none" xmlns="http://www.w3.org/2000/svg">
<g clip-path="url(#clip0_181_1115)">
<path d="M14.0299 4.84617C14.0299 3.36605 12.83 2.16617 11.3499 2.16617L4.64988 2.16617C3.16976 2.16617 1.96988 3.36605 1.96988 4.84617L1.96988 11.5462C1.96988 13.0263 3.16976 14.2262 4.64988 14.2262H11.3499C12.83 14.2262 14.0299 13.0263 14.0299 11.5462V4.84617ZM15.3699 11.5462C15.3699 13.7664 13.5701 15.5662 11.3499 15.5662H4.64988C2.4297 15.5662 0.629883 13.7664 0.629883 11.5462L0.629883 4.84617C0.629883 2.62599 2.4297 0.826172 4.64988 0.826172L11.3499 0.826172C13.5701 0.826172 15.3699 2.62599 15.3699 4.84617V11.5462Z" fill="#565D6D"/>
<path d="M6.48924 5.18993C7.11461 4.86547 7.82655 4.74636 8.52342 4.8497L8.65628 4.8726C9.31623 4.99775 9.92418 5.31874 10.4006 5.79515C10.9089 6.30339 11.2407 6.96137 11.3461 7.67231L11.3625 7.80322C11.4334 8.45795 11.31 9.12024 11.0058 9.70656C10.6814 10.3319 10.1676 10.839 9.53827 11.1558C8.90893 11.4725 8.19572 11.583 7.50013 11.4712C6.80446 11.3592 6.16177 11.0305 5.66351 10.5323C5.16527 10.034 4.83655 9.39132 4.7246 8.69566C4.61273 8.00007 4.72322 7.28685 5.03997 6.65752C5.35677 6.02819 5.86384 5.51444 6.48924 5.18993ZM8.32717 6.1753C7.90896 6.11329 7.4815 6.18472 7.10623 6.37944C6.73097 6.57416 6.42676 6.88251 6.23668 7.26012C6.04663 7.63773 5.98044 8.06566 6.04759 8.48301C6.11475 8.90042 6.31199 9.28587 6.61094 9.58482C6.90986 9.88378 7.29537 10.081 7.71278 10.1482C8.13013 10.2154 8.55806 10.1492 8.93567 9.95908C9.31328 9.769 9.62161 9.46482 9.81632 9.08956C9.9867 8.76126 10.0626 8.39323 10.0375 8.02633L10.0205 7.86862C9.95722 7.44209 9.75809 7.04746 9.45318 6.74257C9.18645 6.47581 8.85098 6.29002 8.48549 6.2054L8.32717 6.1753Z" fill="#565D6D"/>
<path d="M11.6766 3.85645L11.7452 3.85971C12.0831 3.89404 12.3466 4.17955 12.3466 4.52645C12.3466 4.87334 12.0831 5.15885 11.7452 5.19318L11.6766 5.19645H11.67C11.3 5.19645 11 4.89647 11 4.52645C11 4.15642 11.3 3.85645 11.67 3.85645H11.6766Z" fill="#565D6D"/>
</g>
<defs>
<clipPath id="clip0_181_1115">
<rect width="16" height="16" fill="white" transform="translate(0 0.196289)"/>
</clipPath>
</defs>
</svg>
