<svg width="27" height="25" viewBox="0 0 27 25" fill="none" xmlns="http://www.w3.org/2000/svg">
<path d="M16.8687 22.9294L16.8687 20.5196C16.8687 19.561 16.4876 18.6418 15.8097 17.9639C15.2167 17.3709 14.4391 17.0048 13.6118 16.9225L13.254 16.9049L6.02463 16.9049C5.06595 16.9049 4.14681 17.286 3.46892 17.9639C2.79103 18.6418 2.40992 19.561 2.40992 20.5196L2.40992 22.9294C2.40992 23.5949 1.87047 24.1343 1.20502 24.1343C0.53958 24.1343 0.00012207 23.5949 0.00012207 22.9294L0.00012207 20.5196C0.00012207 18.9218 0.635298 17.3899 1.76511 16.2601C2.89493 15.1303 4.42683 14.4951 6.02463 14.4951L13.254 14.4951L13.5528 14.5022C15.0419 14.5761 16.4544 15.2009 17.5136 16.2601C18.6433 17.3899 19.2785 18.9218 19.2785 20.5196L19.2785 22.9294C19.2785 23.5949 18.7391 24.1343 18.0736 24.1343C17.4082 24.1343 16.8687 23.5949 16.8687 22.9294Z" fill="url(#paint0_linear_212_24382)"/>
<path d="M20.5014 6.02446C20.5014 5.22382 20.2359 4.44559 19.746 3.81235C19.3171 3.2581 18.7375 2.84204 18.0798 2.61215L17.7939 2.52508L17.6763 2.4886C17.1036 2.27641 16.7737 1.66052 16.9302 1.05661C17.0869 0.452857 17.674 0.0756387 18.2775 0.168223L18.3988 0.192936L18.6388 0.260001C19.8321 0.622664 20.8852 1.34834 21.651 2.33799C22.4677 3.39345 22.9112 4.68992 22.9112 6.02446C22.9112 7.35902 22.4677 8.65547 21.651 9.711C20.8342 10.7664 19.6906 11.5211 18.3988 11.856C17.7546 12.023 17.0973 11.6363 16.9302 10.9923C16.7632 10.3483 17.1499 9.69088 17.7939 9.52386C18.569 9.3229 19.2559 8.86989 19.746 8.23659C20.236 7.60334 20.5014 6.82513 20.5014 6.02446Z" fill="url(#paint1_linear_212_24382)"/>
<path d="M24.1296 22.9386L24.1296 20.53L24.1167 20.2312C24.0586 19.537 23.8013 18.8719 23.3719 18.318C22.9424 17.7639 22.3625 17.3483 21.7045 17.119L21.4186 17.0318L21.3009 16.9953C20.7281 16.7838 20.3978 16.1685 20.5537 15.5645C20.7097 14.9607 21.2963 14.5819 21.8998 14.6739L22.021 14.6996L22.2611 14.7668C23.455 15.1283 24.5101 15.852 25.2768 16.8412C26.0946 17.8961 26.5383 19.193 26.5394 20.5278V22.9386C26.5393 23.6041 25.9999 24.1435 25.3345 24.1435C24.6692 24.1435 24.1297 23.6041 24.1296 22.9386Z" fill="url(#paint2_linear_212_24382)"/>
<path d="M13.2542 6.0245C13.2542 4.02816 11.6359 2.4098 9.63949 2.4098C7.64316 2.4098 6.02479 4.02816 6.02479 6.0245C6.02479 8.02085 7.64316 9.63921 9.63949 9.63921C11.6359 9.63921 13.2542 8.02085 13.2542 6.0245ZM15.664 6.0245C15.664 9.35174 12.9667 12.049 9.63949 12.049C6.31226 12.049 3.61499 9.35174 3.61499 6.0245C3.61499 2.69727 6.31226 0 9.63949 0C12.9667 0 15.664 2.69727 15.664 6.0245Z" fill="url(#paint3_linear_212_24382)"/>
<defs>
<linearGradient id="paint0_linear_212_24382" x1="-2.8179" y1="19.3147" x2="22.4653" y2="19.3147" gradientUnits="userSpaceOnUse">
<stop stop-color="#302B3A"/>
<stop offset="1" stop-color="#404D5D"/>
</linearGradient>
<linearGradient id="paint1_linear_212_24382" x1="16.0114" y1="6.02456" x2="23.9063" y2="6.02456" gradientUnits="userSpaceOnUse">
<stop stop-color="#302B3A"/>
<stop offset="1" stop-color="#404D5D"/>
</linearGradient>
<linearGradient id="paint2_linear_212_24382" x1="19.6345" y1="19.4018" x2="27.5352" y2="19.4018" gradientUnits="userSpaceOnUse">
<stop stop-color="#302B3A"/>
<stop offset="1" stop-color="#404D5D"/>
</linearGradient>
<linearGradient id="paint3_linear_212_24382" x1="1.85373" y1="6.0245" x2="17.6557" y2="6.0245" gradientUnits="userSpaceOnUse">
<stop stop-color="#302B3A"/>
<stop offset="1" stop-color="#404D5D"/>
</linearGradient>
</defs>
</svg>
