<svg width="15" height="15" viewBox="0 0 15 15" fill="none" xmlns="http://www.w3.org/2000/svg">
<g clip-path="url(#clip0_1039_9641)">
<path d="M12.4063 5.0251C12.3239 6.169 11.4754 7.0502 10.5501 7.0502C9.62483 7.0502 8.77491 6.16928 8.69392 5.0251C8.60954 3.83507 9.43555 3 10.5501 3C11.6647 3 12.4907 3.85673 12.4063 5.0251Z" stroke="white" stroke-linecap="round" stroke-linejoin="round"/>
<path d="M10.5503 8.84961C8.71741 8.84961 6.95487 9.76006 6.51331 11.5331C6.45482 11.7677 6.60191 11.9998 6.84293 11.9998H14.2579C14.4989 11.9998 14.6452 11.7677 14.5875 11.5331C14.146 9.73165 12.3834 8.84961 10.5503 8.84961Z" stroke="white" stroke-miterlimit="10"/>
<path d="M6.72485 5.53003C6.65904 6.44358 5.97337 7.16305 5.23426 7.16305C4.49516 7.16305 3.80836 6.44386 3.74368 5.53003C3.67646 4.57964 4.34385 3.90039 5.23426 3.90039C6.12468 3.90039 6.79207 4.59708 6.72485 5.53003Z" stroke="white" stroke-linecap="round" stroke-linejoin="round"/>
<path d="M6.89366 8.90603C6.38601 8.67343 5.8269 8.58398 5.23432 8.58398C3.77186 8.58398 2.36283 9.31105 2.00987 10.7272C1.96347 10.9145 2.08103 11.0999 2.2734 11.0999H5.43119" stroke="white" stroke-miterlimit="10" stroke-linecap="round"/>
</g>
<defs>
<clipPath id="clip0_1039_9641">
<rect width="14" height="14" fill="white" transform="translate(0.893066 0.314453)"/>
</clipPath>
</defs>
</svg>
