<svg width="22" height="22" viewBox="0 0 22 22" fill="none" xmlns="http://www.w3.org/2000/svg">
<path d="M0.75 10.75C0.75 16.273 5.227 20.75 10.75 20.75C16.273 20.75 20.75 16.273 20.75 10.75C20.75 5.227 16.273 0.75 10.75 0.75C5.227 0.75 0.75 5.227 0.75 10.75Z" stroke="#747174" stroke-width="1.5" stroke-linecap="round" stroke-linejoin="round"/>
<path d="M11.7499 0.799805C11.7499 0.799805 14.7499 4.7498 14.7499 10.7498C14.7499 16.7498 11.7499 20.6998 11.7499 20.6998M9.74988 20.6998C9.74988 20.6998 6.74988 16.7498 6.74988 10.7498C6.74988 4.7498 9.74988 0.799805 9.74988 0.799805M1.37988 14.2498H20.1199M1.37988 7.2498H20.1199" stroke="#747174" stroke-width="1.5" stroke-linecap="round" stroke-linejoin="round"/>
</svg>
