<svg width="29" height="26" viewBox="0 0 29 26" fill="none" xmlns="http://www.w3.org/2000/svg">
<path d="M25.7311 8.94386C25.7311 7.43651 25.132 5.99131 24.066 4.92545C23.0002 3.8596 21.555 3.26037 20.0476 3.26037C19.0628 3.26037 18.296 3.39929 17.5871 3.70809C16.8699 4.02045 16.1324 4.54114 15.2571 5.41634C14.7639 5.90958 13.9644 5.90958 13.4712 5.41634C12.596 4.54114 11.8584 4.02045 11.1413 3.70809C10.4323 3.39929 9.66558 3.26037 8.68067 3.26037C7.17332 3.26037 5.72813 3.8596 4.66227 4.92545C3.59641 5.99131 2.99719 7.43651 2.99719 8.94386C2.99719 10.9849 4.15852 12.6802 5.71312 14.2943L14.3642 22.9453L22.3208 14.9887L23.009 14.2932C24.5634 12.6646 25.7311 10.9727 25.7311 8.94386ZM28.2571 8.94386C28.2571 12.404 25.9743 14.9416 24.0969 16.7821L24.0981 16.7833L15.2571 25.6243C14.7639 26.1176 13.9644 26.1176 13.4712 25.6243L4.645 16.7982L3.91977 16.0754C2.21093 14.3103 0.471191 11.9862 0.471191 8.94386C0.471191 6.76656 1.3355 4.67784 2.87508 3.13826C4.41466 1.59868 6.50338 0.734375 8.68067 0.734375C9.91864 0.734375 11.0468 0.911207 12.1503 1.39178C12.9247 1.72912 13.6465 2.20098 14.3642 2.80771C15.0818 2.20098 15.8036 1.72912 16.5781 1.39178C17.6815 0.911207 18.8097 0.734375 20.0476 0.734375C22.2249 0.734375 24.3137 1.59868 25.8533 3.13826C27.3929 4.67784 28.2571 6.76656 28.2571 8.94386Z" fill="white"/>
</svg>
