<svg width="11" height="11" viewBox="0 0 11 11" fill="none" xmlns="http://www.w3.org/2000/svg">
<path d="M10.05 4.68945C10.42 4.68945 10.72 4.98941 10.72 5.35945C10.72 5.72949 10.42 6.02945 10.05 6.02945L0.67 6.02945C0.299972 6.02945 0 5.72949 0 5.35945C0 4.98941 0.299972 4.68945 0.67 4.68945L10.05 4.68945Z" fill="white"/>
<path d="M4.87128 0.196133C5.11656 -0.0491672 5.50449 -0.0643027 5.76767 0.150332L5.81872 0.196133L10.5087 4.88615C10.7704 5.14779 10.7704 5.5719 10.5087 5.83353L5.81872 10.5235C5.55709 10.7852 5.13291 10.7852 4.87128 10.5235C4.60964 10.2619 4.60964 9.83779 4.87128 9.57615L9.08759 5.35984L4.87128 1.14355L4.82551 1.09252C4.61085 0.829363 4.62599 0.441434 4.87128 0.196133Z" fill="white"/>
</svg>
