<svg width="16" height="17" viewBox="0 0 16 17" fill="none" xmlns="http://www.w3.org/2000/svg">
<path d="M11.3376 1.07535C12.3915 1.08458 13.3999 1.50781 14.1452 2.25309C14.8904 2.9984 15.3131 4.00676 15.3223 5.06067C15.3308 6.04888 14.975 7.00317 14.3271 7.7433L14.1943 7.88789L12.1758 9.9064C11.7682 10.314 11.2776 10.6295 10.7376 10.8309C10.1976 11.0323 9.62047 11.1148 9.04561 11.0737C8.47062 11.0325 7.91117 10.8684 7.40525 10.5921C6.96271 10.3503 6.57035 10.0275 6.24783 9.64141L6.1137 9.47197L6.07575 9.41502C5.90087 9.1239 5.97135 8.74214 6.24914 8.5343C6.52692 8.32667 6.91313 8.3668 7.14288 8.61678L7.18676 8.66978L7.27574 8.78234C7.49081 9.03982 7.75264 9.25509 8.04778 9.41636C8.38499 9.60054 8.75791 9.71009 9.14115 9.73756C9.52432 9.76503 9.90917 9.70955 10.2692 9.57535C10.6292 9.44101 10.9567 9.23077 11.2283 8.95895L13.2298 6.95748C13.718 6.45202 13.9884 5.77449 13.9823 5.0718C13.9761 4.36933 13.6945 3.69731 13.1978 3.20051C12.7009 2.70364 12.0285 2.42149 11.3258 2.41535C10.6232 2.40924 9.94622 2.67964 9.44078 3.16779L9.44017 3.16713L8.29514 4.30627C8.0327 4.56715 7.60859 4.56606 7.3477 4.30365C7.08687 4.04124 7.08794 3.61711 7.35031 3.35623L8.50251 2.21056L8.50974 2.20401C9.26792 1.47174 10.2836 1.06619 11.3376 1.07535Z" fill="#565D6D"/>
<path d="M6.95455 5.71147C7.52948 5.75264 8.08906 5.91668 8.59485 6.19303C9.10076 6.46941 9.54116 6.85159 9.88647 7.31316C10.108 7.60943 10.0477 8.02912 9.75167 8.25082C9.4554 8.47239 9.0351 8.41223 8.8134 8.11602C8.58326 7.80829 8.2896 7.55309 7.95238 7.36877C7.61517 7.18465 7.24225 7.07497 6.85901 7.04757C6.47579 7.02009 6.09102 7.07558 5.73102 7.20978C5.41595 7.32736 5.12604 7.50317 4.87651 7.72735L4.77182 7.82618L2.76967 9.82767L2.77033 9.82827C2.28217 10.3337 2.01178 11.0107 2.01789 11.7133C2.02403 12.4159 2.30618 13.0884 2.80305 13.5853C3.29984 14.082 3.97187 14.3636 4.67433 14.3698C5.37702 14.3759 6.05456 14.1056 6.56002 13.6173L7.69718 12.4802C7.95882 12.2185 8.38293 12.2185 8.64463 12.4802C8.9062 12.7418 8.90626 13.1659 8.64463 13.4276L7.49042 14.5818C6.73231 15.3138 5.71702 15.7188 4.66321 15.7098C3.6093 15.7006 2.60093 15.2779 1.85562 14.5327C1.11034 13.7874 0.687119 12.779 0.677886 11.7251C0.668727 10.6711 1.07427 9.65541 1.80655 8.89724L1.8144 8.88873L3.8244 6.87873L3.98078 6.7302C4.35507 6.39397 4.78994 6.13051 5.26254 5.95421C5.80256 5.75279 6.37967 5.67031 6.95455 5.71147Z" fill="#565D6D"/>
</svg>
