<svg width="15" height="15" viewBox="0 0 15 15" fill="none" xmlns="http://www.w3.org/2000/svg">
<path d="M13.2139 1L8.88058 13C8.85133 13.0638 8.80437 13.1179 8.74528 13.1558C8.68619 13.1938 8.61746 13.2139 8.54725 13.2139C8.47704 13.2139 8.4083 13.1938 8.34921 13.1558C8.29012 13.1179 8.24316 13.0638 8.21391 13L5.88058 8.33333L1.21391 6C1.15009 5.97075 1.096 5.92379 1.05808 5.8647C1.02016 5.80561 1 5.73688 1 5.66667C1 5.59646 1.02016 5.52772 1.05808 5.46863C1.096 5.40954 1.15009 5.36258 1.21391 5.33333L13.2139 1Z" stroke="white" stroke-width="2" stroke-linecap="round" stroke-linejoin="round"/>
</svg>
