<svg width="44" height="43" viewBox="0 0 44 43" fill="none" xmlns="http://www.w3.org/2000/svg">
<rect width="44" height="42.4" rx="5" fill="black"/>
<path d="M23.1236 24.4684L30.4376 33.2244C31.2036 34.1404 32.5676 34.2644 33.4836 33.4984L33.5196 33.4684C34.5316 32.6224 34.5576 31.0764 33.5756 30.1984L25.3336 22.6224L26.7396 21.4484C21.2676 14.4004 14.4936 10.3104 9.70557 8.40039L23.1236 24.4684Z" fill="#E4EADF"/>
<path d="M32.8476 31.0663L25.5716 24.2583C25.4176 24.1183 25.1836 24.1123 25.0216 24.2463L25.0156 24.2523C24.8396 24.3983 24.8156 24.6603 24.9596 24.8363L31.2656 32.5623C31.6456 33.0283 32.3336 33.0943 32.7956 32.7083L32.8136 32.6923C33.3156 32.2743 33.3336 31.5063 32.8476 31.0663Z" fill="#CCCCCC"/>
<path d="M30.8336 32.8944L23.5196 24.1384L10.7356 8.83439C10.3836 8.67839 10.0396 8.53439 9.70557 8.40039L23.1256 24.4684L30.4396 33.2244C31.2056 34.1404 32.5696 34.2644 33.4856 33.4984L33.5196 33.4704C32.8016 34.0684 31.5976 33.8104 30.8336 32.8944Z" fill="#F6F8F4"/>
<path d="M15.0039 11.0488C18.5979 13.5548 22.6579 17.0928 26.3499 21.7728L26.7399 21.4468C23.0819 16.7368 18.8439 13.3488 15.0039 11.0488Z" fill="#C8CDC3"/>
<path d="M25.334 22.6221L25.25 22.6921L33.248 30.4701C34.16 31.3381 34.326 32.6661 33.638 33.3561C34.532 32.4921 34.52 31.0381 33.578 30.1941L25.334 22.6221Z" fill="#C8CDC3"/>
<path d="M32.0997 34.1985C31.4237 34.1985 30.7517 33.9105 30.2837 33.3505L9.55172 8.52853C9.49172 8.45853 9.48972 8.35653 9.54372 8.28253C9.59572 8.20853 9.69372 8.18053 9.77972 8.21453C12.8037 9.42053 20.5217 13.1125 26.8977 21.3245C26.9637 21.4105 26.9497 21.5325 26.8677 21.6005L25.6377 22.6285L33.7117 30.0485C34.2217 30.5045 34.5077 31.1605 34.4957 31.8465C34.4837 32.5325 34.1757 33.1785 33.6477 33.6185L33.6117 33.6485C33.1717 34.0185 32.6337 34.1985 32.0997 34.1985ZM23.2777 24.3405L30.5917 33.0965C31.2857 33.9265 32.5257 34.0385 33.3557 33.3445L33.3917 33.3145C33.8297 32.9485 34.0857 32.4125 34.0957 31.8425C34.1057 31.2725 33.8677 30.7265 33.4417 30.3465L25.1977 22.7705C25.1557 22.7305 25.1317 22.6765 25.1337 22.6185C25.1357 22.5605 25.1617 22.5065 25.2057 22.4705L26.4637 21.4205C20.6457 13.9965 13.7397 10.3445 10.3797 8.89853L23.2777 24.3405Z" fill="url(#paint0_linear_553_3515)"/>
<path d="M31.6416 32.2483L25.3356 24.5223C25.2476 24.4143 25.2236 24.2763 25.2556 24.1523C25.1716 24.1583 25.0896 24.1903 25.0216 24.2463L25.0156 24.2523C24.8396 24.3983 24.8156 24.6603 24.9596 24.8363L31.2656 32.5623C31.6456 33.0283 32.3336 33.0943 32.7956 32.7083L32.8136 32.6923C32.8756 32.6403 32.9296 32.5843 32.9756 32.5223C32.5316 32.7563 31.9716 32.6523 31.6416 32.2483Z" fill="#B3B3B3"/>
<path d="M32.1055 33.1603C32.0635 33.1603 32.0215 33.1583 31.9815 33.1543C31.6375 33.1203 31.3295 32.9563 31.1115 32.6883L24.8055 24.9623C24.5935 24.7003 24.6295 24.3123 24.8875 24.0983C25.1295 23.8963 25.4775 23.9043 25.7055 24.1103L32.9855 30.9203C33.2575 31.1683 33.4095 31.5223 33.4015 31.8923C33.3935 32.2623 33.2255 32.6103 32.9415 32.8463L32.9235 32.8623C32.6915 33.0563 32.4055 33.1603 32.1055 33.1603ZM25.2915 24.3483C25.2415 24.3483 25.1915 24.3643 25.1515 24.3983C25.0535 24.4803 25.0415 24.6163 25.1155 24.7083L31.4215 32.4343C31.5715 32.6183 31.7835 32.7323 32.0195 32.7543C32.2535 32.7763 32.4855 32.7063 32.6675 32.5543L32.6855 32.5383C32.8815 32.3743 32.9955 32.1363 33.0015 31.8823C33.0075 31.6283 32.9015 31.3843 32.7135 31.2123L25.4335 24.4023C25.3955 24.3683 25.3435 24.3483 25.2915 24.3483Z" fill="url(#paint1_linear_553_3515)"/>
<path d="M31.2502 17.2086L34.7402 13.1206C34.8282 13.0186 34.8222 12.8666 34.7262 12.7706L34.7142 12.7586C34.6162 12.6606 34.4582 12.6566 34.3562 12.7526L29.5582 17.2306C29.3542 17.4206 29.0382 17.4146 28.8402 17.2186L28.8322 17.2106C28.6362 17.0146 28.6302 16.6966 28.8202 16.4926L33.2982 11.6946C33.3922 11.5926 33.3902 11.4346 33.2922 11.3366L33.2882 11.3326C33.1902 11.2346 33.0322 11.2306 32.9302 11.3266L28.1322 15.8046C27.9282 15.9946 27.6122 15.9886 27.4142 15.7926L27.4062 15.7846C27.2102 15.5886 27.2042 15.2706 27.3942 15.0666L31.8722 10.2686C31.9662 10.1666 31.9642 10.0086 31.8662 9.91064L31.8622 9.90664C31.7642 9.80864 31.6062 9.80464 31.5042 9.90064L26.7082 14.3806C26.5042 14.5706 26.1882 14.5646 25.9902 14.3686L25.9822 14.3606C25.7862 14.1646 25.7802 13.8466 25.9702 13.6426L30.4482 8.84464C30.5422 8.74264 30.5402 8.58464 30.4422 8.48664L30.4302 8.47464C30.3342 8.37864 30.1822 8.37264 30.0802 8.46064L25.9942 11.9526C24.6182 13.1266 24.3342 15.0766 25.1822 16.5726L9.82016 30.6526C9.01816 31.3866 8.99016 32.6426 9.76016 33.4126L9.78816 33.4406C10.5582 34.2106 11.8122 34.1826 12.5482 33.3806L26.6302 18.0206C28.1262 18.8686 30.0762 18.5846 31.2502 17.2086Z" fill="#E4EADF"/>
<path d="M18.706 24.5677L18.7 24.5617C18.54 24.4017 18.282 24.3997 18.12 24.5577L10.5 31.1717C10.074 31.5877 10.07 32.2697 10.49 32.6917L10.506 32.7077C10.964 33.1657 11.72 33.1137 12.112 32.5977L18.742 25.1097C18.868 24.9457 18.852 24.7137 18.706 24.5677Z" fill="#CCCCCC"/>
<path d="M10.8421 31.5137L18.4621 24.8997C18.5601 24.8037 18.6941 24.7677 18.8201 24.7897C18.8061 24.7077 18.7681 24.6297 18.7061 24.5677L18.7001 24.5617C18.5401 24.4017 18.2821 24.3997 18.1181 24.5577L10.4981 31.1717C10.0721 31.5877 10.0681 32.2697 10.4881 32.6917L10.5041 32.7077C10.5601 32.7637 10.6221 32.8117 10.6861 32.8537C10.4221 32.4377 10.4741 31.8757 10.8421 31.5137Z" fill="#B3B3B3"/>
<path d="M11.264 33.2215C10.928 33.2215 10.606 33.0895 10.368 32.8495L10.352 32.8335C10.11 32.5915 9.978 32.2695 9.98 31.9295C9.982 31.5875 10.118 31.2675 10.362 31.0295L17.99 24.4075C18.22 24.1815 18.608 24.1855 18.844 24.4215C19.066 24.6435 19.088 24.9875 18.904 25.2315L12.264 32.7315C12.052 33.0115 11.716 33.1935 11.35 33.2195C11.322 33.2215 11.292 33.2215 11.264 33.2215ZM18.406 24.6415C18.352 24.6415 18.3 24.6615 18.26 24.7015L10.632 31.3235C10.474 31.4795 10.38 31.6975 10.378 31.9315C10.376 32.1655 10.466 32.3855 10.632 32.5515L10.648 32.5675C10.826 32.7455 11.07 32.8375 11.32 32.8195C11.57 32.8035 11.8 32.6775 11.952 32.4775L18.592 24.9775C18.646 24.9055 18.638 24.7835 18.564 24.7095C18.52 24.6635 18.464 24.6415 18.406 24.6415Z" fill="url(#paint2_linear_553_3515)"/>
<path d="M33.1861 11.5838L28.6881 16.3618C28.4981 16.5638 28.4821 16.8618 28.6541 17.0338L28.6601 17.0398C28.6881 17.0678 28.7201 17.0878 28.7541 17.1078C28.6401 16.9158 28.6621 16.6658 28.8201 16.4958L33.2981 11.6978C33.3921 11.5958 33.3901 11.4378 33.2921 11.3398L33.2881 11.3358C33.2721 11.3198 33.2521 11.3098 33.2341 11.2998C33.2801 11.3838 33.2661 11.4998 33.1861 11.5838Z" fill="#C8CDC3"/>
<path d="M26.1622 14.5398L26.1682 14.5458C26.3402 14.7178 26.6382 14.7038 26.8402 14.5118L31.6182 10.0138C31.7022 9.93383 31.8182 9.91983 31.9042 9.96583C31.8942 9.94783 31.8842 9.92783 31.8682 9.91183L31.8642 9.90783C31.7662 9.80983 31.6082 9.80583 31.5062 9.90183L26.7082 14.3798C26.5382 14.5398 26.2882 14.5598 26.0962 14.4458C26.1122 14.4798 26.1342 14.5118 26.1622 14.5398Z" fill="#C8CDC3"/>
<path d="M9.99216 30.8236L25.5562 16.9456C24.8542 15.5956 24.9602 13.4676 26.3242 12.2816L30.3742 8.75557C30.4162 8.71957 30.4662 8.69957 30.5162 8.69357C30.5222 8.61957 30.5002 8.54557 30.4442 8.48957L30.4322 8.47757C30.3362 8.38157 30.1842 8.37557 30.0822 8.46357L25.9942 11.9516C24.6182 13.1256 24.3342 15.0756 25.1822 16.5716L9.82016 30.6516C9.01816 31.3856 8.99016 32.6416 9.76016 33.4116L9.76216 33.4136C9.09016 32.7396 9.19416 31.5616 9.99216 30.8236Z" fill="white"/>
<path d="M31.2501 17.2075L34.7401 13.1195C34.8281 13.0175 34.8221 12.8655 34.7261 12.7695L34.7141 12.7575C34.6581 12.7015 34.5841 12.6795 34.5101 12.6855C34.5021 12.7355 34.4841 12.7835 34.4481 12.8275L30.9201 16.8775C29.7321 18.2415 27.6041 18.3455 26.2561 17.6455L12.3781 33.2095C11.6381 34.0075 10.4601 34.1115 9.78809 33.4375L9.79009 33.4395C10.5601 34.2095 11.8141 34.1815 12.5501 33.3795L26.6301 18.0195C28.1261 18.8675 30.0761 18.5835 31.2501 17.2075Z" fill="#C8CDC3"/>
<path d="M11.1379 34.2003C10.5739 34.2003 10.0459 33.9823 9.64793 33.5823L9.61993 33.5543C9.20993 33.1443 8.98993 32.5963 9.00193 32.0163C9.01393 31.4343 9.25793 30.8983 9.68593 30.5063L24.9319 16.5303C24.1119 14.9363 24.4919 12.9723 25.8639 11.8003L29.9519 8.31026C30.1319 8.15626 30.4059 8.16626 30.5739 8.33426C30.7599 8.52026 30.7659 8.80026 30.5959 8.98226L26.1159 13.7803C25.9999 13.9063 26.0019 14.0983 26.1239 14.2203C26.2519 14.3483 26.4459 14.3523 26.5699 14.2343L31.3679 9.75626C31.5499 9.58626 31.8299 9.59226 32.0039 9.76626C32.1839 9.94626 32.1879 10.2243 32.0179 10.4063L27.5419 15.2043C27.4259 15.3303 27.4279 15.5223 27.5499 15.6443C27.6779 15.7723 27.8719 15.7763 27.9959 15.6583L32.7939 11.1803C32.9759 11.0123 33.2539 11.0163 33.4299 11.1903C33.6099 11.3703 33.6139 11.6483 33.4439 11.8303L28.9659 16.6283C28.8499 16.7543 28.8519 16.9463 28.9739 17.0683C29.1019 17.1963 29.2959 17.2003 29.4199 17.0823L34.2179 12.6043C34.3999 12.4343 34.6799 12.4403 34.8539 12.6163C35.0339 12.7963 35.0439 13.0683 34.8899 13.2483L31.3999 17.3363C30.2279 18.7083 28.2619 19.0863 26.6699 18.2683L12.6939 33.5143C12.3019 33.9423 11.7639 34.1863 11.1839 34.1983C11.1699 34.2003 11.1539 34.2003 11.1379 34.2003ZM30.2459 8.60226C30.2339 8.60226 30.2219 8.60626 30.2119 8.61426L26.1239 12.1043C24.8559 13.1863 24.5339 15.0243 25.3559 16.4743C25.4019 16.5563 25.3859 16.6583 25.3179 16.7203L9.95593 30.8003C9.60793 31.1183 9.41193 31.5523 9.40193 32.0243C9.39193 32.4943 9.56993 32.9383 9.90193 33.2703L9.92993 33.2983C10.2639 33.6323 10.7039 33.8063 11.1759 33.7983C11.6459 33.7883 12.0819 33.5903 12.3999 33.2443L26.4819 17.8823C26.5439 17.8143 26.6479 17.7963 26.7279 17.8443C28.1779 18.6663 30.0159 18.3443 31.0979 17.0763L34.5879 12.9883C34.6079 12.9643 34.6059 12.9303 34.5839 12.9103C34.5499 12.8763 34.5139 12.8763 34.4919 12.8983L29.6939 17.3763C29.4099 17.6403 28.9739 17.6343 28.6979 17.3583C28.4159 17.0763 28.4099 16.6403 28.6739 16.3563L33.1519 11.5583C33.1739 11.5343 33.1719 11.5003 33.1499 11.4783C33.1239 11.4523 33.0879 11.4523 33.0659 11.4723L28.2679 15.9503C27.9839 16.2143 27.5479 16.2083 27.2719 15.9323C26.9899 15.6503 26.9839 15.2143 27.2479 14.9303L31.7259 10.1323C31.7479 10.1083 31.7459 10.0743 31.7239 10.0523C31.6979 10.0263 31.6619 10.0263 31.6399 10.0483L26.8439 14.5263C26.5599 14.7903 26.1239 14.7843 25.8479 14.5083C25.5659 14.2263 25.5579 13.7903 25.8239 13.5063L30.3019 8.70826C30.3239 8.68426 30.3219 8.65026 30.2999 8.62826C30.2819 8.61026 30.2619 8.60226 30.2459 8.60226Z" fill="url(#paint3_linear_553_3515)"/>
<defs>
<linearGradient id="paint0_linear_553_3515" x1="5.8518" y1="21.1994" x2="38.6271" y2="21.1994" gradientUnits="userSpaceOnUse">
<stop stop-color="#302B3A"/>
<stop offset="1" stop-color="#404D5D"/>
</linearGradient>
<linearGradient id="paint1_linear_553_3515" x1="23.3907" y1="28.5557" x2="34.8456" y2="28.5557" gradientUnits="userSpaceOnUse">
<stop stop-color="#302B3A"/>
<stop offset="1" stop-color="#404D5D"/>
</linearGradient>
<linearGradient id="paint2_linear_553_3515" x1="8.65742" y1="28.7314" x2="20.5234" y2="28.7314" gradientUnits="userSpaceOnUse">
<stop stop-color="#302B3A"/>
<stop offset="1" stop-color="#404D5D"/>
</linearGradient>
<linearGradient id="paint3_linear_553_3515" x1="5.20146" y1="21.2007" x2="39.295" y2="21.2007" gradientUnits="userSpaceOnUse">
<stop stop-color="#302B3A"/>
<stop offset="1" stop-color="#404D5D"/>
</linearGradient>
</defs>
</svg>
