<svg width="40" height="40" viewBox="0 0 40 40" fill="none" xmlns="http://www.w3.org/2000/svg">
<path d="M18.3617 4.69074C18.4331 4.30841 18.636 3.96309 18.9352 3.7146C19.2344 3.4661 19.6111 3.33008 20 3.33008C20.3889 3.33008 20.7656 3.4661 21.0648 3.7146C21.364 3.96309 21.5669 4.30841 21.6383 4.69074L23.39 13.9541C23.5144 14.6126 23.8345 15.2184 24.3084 15.6924C24.7823 16.1663 25.3881 16.4863 26.0467 16.6107L35.31 18.3624C35.6923 18.4338 36.0376 18.6367 36.2861 18.9359C36.5346 19.2351 36.6707 19.6118 36.6707 20.0007C36.6707 20.3897 36.5346 20.7664 36.2861 21.0656C36.0376 21.3648 35.6923 21.5677 35.31 21.6391L26.0467 23.3907C25.3881 23.5151 24.7823 23.8352 24.3084 24.3091C23.8345 24.783 23.5144 25.3888 23.39 26.0474L21.6383 35.3107C21.5669 35.6931 21.364 36.0384 21.0648 36.2869C20.7656 36.5354 20.3889 36.6714 20 36.6714C19.6111 36.6714 19.2344 36.5354 18.9352 36.2869C18.636 36.0384 18.4331 35.6931 18.3617 35.3107L16.61 26.0474C16.4856 25.3888 16.1655 24.783 15.6916 24.3091C15.2177 23.8352 14.6119 23.5151 13.9533 23.3907L4.69 21.6391C4.30768 21.5677 3.96236 21.3648 3.71387 21.0656C3.46537 20.7664 3.32935 20.3897 3.32935 20.0007C3.32935 19.6118 3.46537 19.2351 3.71387 18.9359C3.96236 18.6367 4.30768 18.4338 4.69 18.3624L13.9533 16.6107C14.6119 16.4863 15.2177 16.1663 15.6916 15.6924C16.1655 15.2184 16.4856 14.6126 16.61 13.9541L18.3617 4.69074ZM33.3333 3.33407V10.0007V3.33407ZM36.6667 6.6674H30H36.6667Z" fill="black"/>
<path d="M33.3333 3.33407V10.0007M36.6667 6.6674H30M18.3617 4.69074C18.4331 4.30841 18.636 3.96309 18.9352 3.7146C19.2344 3.4661 19.6111 3.33008 20 3.33008C20.3889 3.33008 20.7656 3.4661 21.0648 3.7146C21.364 3.96309 21.5669 4.30841 21.6383 4.69074L23.39 13.9541C23.5144 14.6126 23.8345 15.2184 24.3084 15.6924C24.7823 16.1663 25.3881 16.4863 26.0467 16.6107L35.31 18.3624C35.6923 18.4338 36.0376 18.6367 36.2861 18.9359C36.5346 19.2351 36.6707 19.6118 36.6707 20.0007C36.6707 20.3897 36.5346 20.7664 36.2861 21.0656C36.0376 21.3648 35.6923 21.5677 35.31 21.6391L26.0467 23.3907C25.3881 23.5151 24.7823 23.8352 24.3084 24.3091C23.8345 24.783 23.5144 25.3888 23.39 26.0474L21.6383 35.3107C21.5669 35.6931 21.364 36.0384 21.0648 36.2869C20.7656 36.5354 20.3889 36.6714 20 36.6714C19.6111 36.6714 19.2344 36.5354 18.9352 36.2869C18.636 36.0384 18.4331 35.6931 18.3617 35.3107L16.61 26.0474C16.4856 25.3888 16.1655 24.783 15.6916 24.3091C15.2177 23.8352 14.6119 23.5151 13.9533 23.3907L4.69 21.6391C4.30768 21.5677 3.96236 21.3648 3.71387 21.0656C3.46537 20.7664 3.32935 20.3897 3.32935 20.0007C3.32935 19.6118 3.46537 19.2351 3.71387 18.9359C3.96236 18.6367 4.30768 18.4338 4.69 18.3624L13.9533 16.6107C14.6119 16.4863 15.2177 16.1663 15.6916 15.6924C16.1655 15.2184 16.4856 14.6126 16.61 13.9541L18.3617 4.69074Z" stroke="black" stroke-width="2" stroke-linecap="round" stroke-linejoin="round"/>
<path d="M6.66683 36.6667C8.50778 36.6667 10.0002 35.1743 10.0002 33.3333C10.0002 31.4924 8.50778 30 6.66683 30C4.82588 30 3.3335 31.4924 3.3335 33.3333C3.3335 35.1743 4.82588 36.6667 6.66683 36.6667Z" stroke="black" stroke-width="2" stroke-linecap="round" stroke-linejoin="round"/>
</svg>
