<svg width="16" height="16" viewBox="0 0 16 16" fill="none" xmlns="http://www.w3.org/2000/svg">
<path d="M12.6841 6.42858C12.6267 5.26929 12.1412 4.16887 11.3166 3.34423C10.492 2.51959 9.39156 2.03419 8.23226 1.97675L7.99997 1.97086C6.75612 1.97086 5.56289 2.46468 4.68334 3.34423C3.80379 4.22377 3.30997 5.41699 3.30997 6.66086C3.30997 8.10759 4.12522 9.66722 5.18453 11.0591C6.20816 12.4039 7.38324 13.4924 7.99997 14.0276C8.61671 13.4924 9.79175 12.4039 10.8154 11.0591C11.8747 9.66722 12.69 8.10759 12.69 6.66086L12.6841 6.42858ZM14.03 6.66086C14.03 8.55944 12.9897 10.4149 11.8819 11.8704C10.8991 13.1617 9.79772 14.2224 9.10902 14.8376L8.84075 15.0732C8.82936 15.083 8.81744 15.0929 8.80538 15.1019C8.6023 15.2547 8.36043 15.3458 8.10858 15.3663L7.99997 15.3709C7.74584 15.3709 7.49774 15.2984 7.28414 15.1634L7.19456 15.1019L7.15919 15.0732C6.51916 14.5205 5.24123 13.3461 4.11802 11.8704C3.01023 10.4149 1.96997 8.55944 1.96997 6.66086C1.96997 5.0616 2.60507 3.52765 3.73592 2.39681C4.86676 1.26596 6.40071 0.630859 7.99997 0.630859C9.59919 0.630859 11.1332 1.26596 12.2641 2.39681C13.3949 3.52765 14.03 5.0616 14.03 6.66086Z" fill="url(#paint0_linear_212_24256)"/>
<path d="M9.34007 6.67219C9.34007 5.93213 8.74015 5.33219 8.00007 5.33219C7.25999 5.33219 6.66007 5.93213 6.66007 6.67219C6.66007 7.41227 7.25999 8.01219 8.00007 8.01219C8.74015 8.01219 9.34007 7.41227 9.34007 6.67219ZM10.6801 6.67219C10.6801 8.15228 9.48017 9.35219 8.00007 9.35219C6.51994 9.35219 5.32007 8.15228 5.32007 6.67219C5.32007 5.19206 6.51994 3.99219 8.00007 3.99219C9.48017 3.99219 10.6801 5.19206 10.6801 6.67219Z" fill="url(#paint1_linear_212_24256)"/>
<defs>
<linearGradient id="paint0_linear_212_24256" x1="0.207102" y1="8.00086" x2="16.0235" y2="8.00086" gradientUnits="userSpaceOnUse">
<stop stop-color="#302B3A"/>
<stop offset="1" stop-color="#404D5D"/>
</linearGradient>
<linearGradient id="paint1_linear_212_24256" x1="4.53657" y1="6.67219" x2="11.5661" y2="6.67219" gradientUnits="userSpaceOnUse">
<stop stop-color="#302B3A"/>
<stop offset="1" stop-color="#404D5D"/>
</linearGradient>
</defs>
</svg>
