<svg width="24" height="22" viewBox="0 0 24 22" fill="none" xmlns="http://www.w3.org/2000/svg">
<path d="M14.5166 14H18.5166L21.5166 21H1.5166L4.5166 14H8.5166M12.5166 7C12.5166 7.26522 12.4112 7.51957 12.2237 7.70711C12.0362 7.89464 11.7818 8 11.5166 8C11.2514 8 10.997 7.89464 10.8095 7.70711C10.622 7.51957 10.5166 7.26522 10.5166 7C10.5166 6.73478 10.622 6.48043 10.8095 6.29289C10.997 6.10536 11.2514 6 11.5166 6C11.7818 6 12.0362 6.10536 12.2237 6.29289C12.4112 6.48043 12.5166 6.73478 12.5166 7ZM5.5166 7C5.5166 12 11.5166 17 11.5166 17C11.5166 17 17.5166 12 17.5166 7C17.5166 3.583 14.8306 1 11.5166 1C8.2026 1 5.5166 3.583 5.5166 7Z" stroke="#747174" stroke-width="2"/>
</svg>
