<svg width="20" height="20" viewBox="0 0 20 20" fill="none" xmlns="http://www.w3.org/2000/svg">
<g clip-path="url(#clip0_212_24427)">
<path d="M8.58099 0.978387C10.5151 0.673682 12.4923 0.999618 14.2224 1.9016L14.5645 2.08965L14.6358 2.13504C14.9773 2.38087 15.0839 2.85048 14.8692 3.2228C14.6544 3.59509 14.1944 3.73814 13.8107 3.56565L13.7353 3.52675L13.4548 3.37356C12.0394 2.63567 10.4219 2.36889 8.83962 2.61813C7.15182 2.88403 5.60591 3.72066 4.4602 4.98817C3.3145 6.25573 2.63781 7.87798 2.54325 9.58393C2.44873 11.29 2.94196 12.9774 3.94064 14.3637C4.93931 15.7501 6.38342 16.7524 8.03147 17.2031C9.6795 17.6538 11.4325 17.5259 12.9977 16.8408C14.563 16.1556 15.8461 14.954 16.633 13.4373C17.3706 12.0154 17.6302 10.3967 17.3787 8.82041L17.3211 8.50592L17.309 8.42168C17.2672 8.00322 17.5479 7.6127 17.9688 7.5268C18.39 7.44097 18.8018 7.69075 18.9269 8.09256L18.9479 8.17443L19.0177 8.55863C19.3251 10.4854 19.0075 12.4637 18.1057 14.2016C17.144 16.0554 15.5762 17.524 13.6632 18.3613C11.7503 19.1987 9.60803 19.3547 7.59377 18.8039C5.57944 18.253 3.81411 17.0284 2.59351 15.334C1.37293 13.6395 0.770187 11.5775 0.885687 9.49238C1.00122 7.40722 1.82865 5.42457 3.22898 3.87529C4.6293 2.32609 6.51819 1.30339 8.58099 0.978387Z" fill="#FF773C"/>
<path d="M17.7914 2.70674C18.1174 2.44085 18.5979 2.4596 18.9018 2.76348C19.2057 3.06736 19.2245 3.54793 18.9586 3.87393L18.9018 3.93715L10.6018 12.2371C10.2979 12.541 9.81736 12.5597 9.49142 12.2939L9.42818 12.2371L6.93816 9.74712L6.88142 9.68396C6.61553 9.35794 6.63428 8.87737 6.93816 8.5735C7.24203 8.2696 7.72261 8.25085 8.04861 8.51673L8.11183 8.5735L10.015 10.4766L17.7282 2.76348L17.7914 2.70674Z" fill="#FF773C"/>
</g>
<defs>
<clipPath id="clip0_212_24427">
<rect width="20" height="20" fill="white"/>
</clipPath>
</defs>
</svg>
