<svg width="15" height="14" viewBox="0 0 15 14" fill="none" xmlns="http://www.w3.org/2000/svg">
<path d="M9.38 12.69L9.38 11.35C9.38 10.8169 9.16808 10.3058 8.79114 9.92886C8.46136 9.59909 8.02894 9.39554 7.56892 9.34978L7.37 9.34L3.35 9.34C2.81691 9.34 2.30582 9.55192 1.92887 9.92886C1.55192 10.3058 1.34 10.8169 1.34 11.35L1.34 12.69C1.34 13.06 1.04003 13.36 0.67 13.36C0.299972 13.36 0 13.06 0 12.69L0 11.35C0 10.4615 0.353197 9.60967 0.981443 8.98142C1.6097 8.35322 2.46153 8 3.35 8L7.37 8L7.53616 8.00395C8.36415 8.04502 9.14959 8.39249 9.73858 8.98142C10.3668 9.60967 10.72 10.4615 10.72 11.35L10.72 12.69C10.72 13.06 10.42 13.36 10.05 13.36C9.67996 13.36 9.38 13.06 9.38 12.69Z" fill="url(#paint0_linear_212_24274)"/>
<path d="M11.3624 3.35012C11.3624 2.90491 11.2147 2.47216 10.9423 2.12004C10.7039 1.81184 10.3815 1.58049 10.0158 1.45266L9.85685 1.40424L9.79145 1.38395C9.473 1.26597 9.28956 0.92349 9.37659 0.587679C9.46369 0.251956 9.79018 0.0421987 10.1258 0.0936815L10.1932 0.107423L10.3267 0.144715C10.9902 0.346379 11.5758 0.7499 12.0017 1.3002C12.4558 1.88711 12.7024 2.60802 12.7024 3.35012C12.7024 4.09221 12.4558 4.81312 12.0017 5.40006C11.5475 5.98691 10.9116 6.4066 10.1932 6.5928C9.835 6.68566 9.46952 6.47065 9.37659 6.11254C9.28373 5.75442 9.49873 5.38887 9.85685 5.296C10.2879 5.18425 10.6698 4.93235 10.9423 4.5802C11.2148 4.22807 11.3624 3.79534 11.3624 3.35012Z" fill="url(#paint1_linear_212_24274)"/>
<path d="M13.3651 12.6893L13.3651 11.35L13.3579 11.1838C13.3256 10.7977 13.1825 10.4279 12.9437 10.1199C12.7049 9.81184 12.3825 9.58069 12.0166 9.45319L11.8576 9.40475L11.7921 9.38445C11.4736 9.26679 11.29 8.92469 11.3767 8.58882C11.4634 8.25308 11.7896 8.04244 12.1252 8.09356L12.1926 8.1079L12.3261 8.14521C12.99 8.34628 13.5767 8.74868 14.003 9.29875C14.4577 9.88534 14.7045 10.6065 14.7051 11.3487L14.7051 12.6893C14.705 13.0593 14.4051 13.3593 14.0351 13.3593C13.6651 13.3593 13.3652 13.0593 13.3651 12.6893Z" fill="url(#paint2_linear_212_24274)"/>
<path d="M7.37001 3.35C7.37001 2.23991 6.47013 1.34 5.36001 1.34C4.24992 1.34 3.35001 2.23991 3.35001 3.35C3.35001 4.46009 4.24992 5.36 5.36001 5.36C6.47013 5.36 7.37001 4.46009 7.37001 3.35ZM8.71001 3.35C8.71001 5.20015 7.21015 6.7 5.36001 6.7C3.50986 6.7 2.01001 5.20015 2.01001 3.35C2.01001 1.49985 3.50986 0 5.36001 0C7.21015 0 8.71001 1.49985 8.71001 3.35Z" fill="url(#paint3_linear_212_24274)"/>
<defs>
<linearGradient id="paint0_linear_212_24274" x1="-1.56699" y1="10.68" x2="12.492" y2="10.68" gradientUnits="userSpaceOnUse">
<stop stop-color="#302B3A"/>
<stop offset="1" stop-color="#404D5D"/>
</linearGradient>
<linearGradient id="paint1_linear_212_24274" x1="8.86567" y1="3.35017" x2="13.2557" y2="3.35017" gradientUnits="userSpaceOnUse">
<stop stop-color="#302B3A"/>
<stop offset="1" stop-color="#404D5D"/>
</linearGradient>
<linearGradient id="paint2_linear_212_24274" x1="10.8656" y1="10.7226" x2="15.2588" y2="10.7226" gradientUnits="userSpaceOnUse">
<stop stop-color="#302B3A"/>
<stop offset="1" stop-color="#404D5D"/>
</linearGradient>
<linearGradient id="paint3_linear_212_24274" x1="1.03064" y1="3.35" x2="9.81752" y2="3.35" gradientUnits="userSpaceOnUse">
<stop stop-color="#302B3A"/>
<stop offset="1" stop-color="#404D5D"/>
</linearGradient>
</defs>
</svg>
