<svg width="29" height="29" viewBox="0 0 29 29" fill="none" xmlns="http://www.w3.org/2000/svg">
<path d="M22.929 13.29C23.5944 13.29 24.1339 13.8295 24.1339 14.4949C24.1339 15.1604 23.5944 15.6998 22.929 15.6998L6.06037 15.6998C5.39493 15.6998 4.85547 15.1604 4.85547 14.4949C4.85547 13.8295 5.39493 13.29 6.06037 13.29L22.929 13.29Z" fill="url(#paint0_linear_212_24371)"/>
<path d="M13.2899 22.929L13.2899 6.06037C13.2899 5.39493 13.8294 4.85547 14.4948 4.85547C15.1603 4.85547 15.6997 5.39493 15.6997 6.06037L15.6997 22.929C15.6997 23.5944 15.1603 24.1339 14.4948 24.1339C13.8294 24.1339 13.2899 23.5944 13.2899 22.929Z" fill="url(#paint1_linear_212_24371)"/>
<defs>
<linearGradient id="paint0_linear_212_24371" x1="2.03745" y1="14.4949" x2="27.3206" y2="14.4949" gradientUnits="userSpaceOnUse">
<stop stop-color="#302B3A"/>
<stop offset="1" stop-color="#404D5D"/>
</linearGradient>
<linearGradient id="paint1_linear_212_24371" x1="12.9377" y1="14.4947" x2="16.0981" y2="14.4947" gradientUnits="userSpaceOnUse">
<stop stop-color="#302B3A"/>
<stop offset="1" stop-color="#404D5D"/>
</linearGradient>
</defs>
</svg>
