<svg width="15" height="15" viewBox="0 0 15 15" fill="none" xmlns="http://www.w3.org/2000/svg">
<path d="M6.61954 7.52142L5.62231 6.54139C5.49622 6.4153 5.3385 6.35226 5.14914 6.35226C4.95978 6.35226 4.79656 6.42103 4.65947 6.55858C4.53338 6.68467 4.47034 6.84514 4.47034 7.04C4.47034 7.23486 4.53338 7.39533 4.65947 7.52142L6.13811 9.00007C6.27566 9.13762 6.43614 9.20639 6.61954 9.20639C6.80293 9.20639 6.96341 9.13762 7.10096 9.00007L10.0239 6.07716C10.1614 5.93961 10.2272 5.77914 10.2213 5.59574C10.2153 5.41234 10.1495 5.25187 10.0239 5.11432C9.88632 4.97677 9.72287 4.90524 9.53351 4.89974C9.34415 4.89424 9.18092 4.96003 9.04383 5.09712L6.61954 7.52142ZM4.69385 13.7455L3.69662 12.0605L1.80533 11.6479C1.63339 11.6135 1.49584 11.5245 1.39268 11.381C1.28952 11.2375 1.2494 11.08 1.27233 10.9086L1.46146 8.96568L0.171936 7.48703C0.057312 7.36095 0 7.21194 0 7.04C0 6.86806 0.057312 6.71905 0.171936 6.59297L1.46146 5.11432L1.27233 3.17144C1.2494 2.9995 1.28952 2.84178 1.39268 2.69827C1.49584 2.55476 1.63339 2.46604 1.80533 2.43212L3.69662 2.01947L4.69385 0.334496C4.78555 0.185485 4.91164 0.0850745 5.07211 0.0332644C5.23259 -0.0185456 5.39306 -0.00983422 5.55353 0.0593987L7.34167 0.815917L9.1298 0.0593987C9.29027 -0.00937573 9.45075 -0.0180871 9.61122 0.0332644C9.7717 0.084616 9.89778 0.185027 9.98948 0.334496L10.9867 2.01947L12.878 2.43212C13.0499 2.4665 13.1875 2.55545 13.2907 2.69896C13.3938 2.84247 13.4339 2.99996 13.411 3.17144L13.2219 5.11432L14.5114 6.59297C14.626 6.71905 14.6833 6.86806 14.6833 7.04C14.6833 7.21194 14.626 7.36095 14.5114 7.48703L13.2219 8.96568L13.411 10.9086C13.4339 11.0805 13.3938 11.2382 13.2907 11.3817C13.1875 11.5252 13.0499 11.614 12.878 11.6479L10.9867 12.0605L9.98948 13.7455C9.89778 13.8945 9.7717 13.9949 9.61122 14.0467C9.45075 14.0985 9.29027 14.0898 9.1298 14.0206L7.34167 13.2641L5.55353 14.0206C5.39306 14.0894 5.23259 14.0981 5.07211 14.0467C4.91164 13.9954 4.78555 13.895 4.69385 13.7455Z" fill="white"/>
</svg>
