<svg width="24" height="24" viewBox="0 0 24 24" fill="none" xmlns="http://www.w3.org/2000/svg">
<g clip-path="url(#clip0_1258_3397)">
<path fill-rule="evenodd" clip-rule="evenodd" d="M12 1C13.4445 0.999993 14.8749 1.28451 16.2095 1.83731C17.5441 2.39011 18.7567 3.20036 19.7782 4.2218C20.7996 5.24324 21.6099 6.45587 22.1627 7.79045C22.7155 9.12504 23 10.5554 23 12C23 18.0751 18.0751 23 12 23C5.92489 23 1 18.0751 1 12C1 5.92489 5.92489 1 12 1ZM13.1 13.1H10.9C8.17672 13.1 5.83872 14.7493 4.83032 17.1037C6.42587 19.3411 9.04256 20.8 12 20.8C14.9574 20.8 17.5741 19.3411 19.1697 17.1036C18.1613 14.7493 15.8233 13.1 13.1 13.1ZM12 4.3C10.1774 4.3 8.69998 5.77747 8.69998 7.6C8.69998 9.42252 10.1774 10.9 12 10.9C13.8225 10.9 15.3 9.42252 15.3 7.6C15.3 5.77747 13.8226 4.3 12 4.3Z" fill="#E4EADF"/>
</g>
<defs>
<clipPath id="clip0_1258_3397">
<rect width="22" height="22" fill="white" transform="translate(1 1)"/>
</clipPath>
</defs>
</svg>
