<svg width="25" height="24" viewBox="0 0 25 24" fill="none" xmlns="http://www.w3.org/2000/svg">
<path d="M22.5295 9.37402V20.3894C22.5292 20.689 22.4699 20.9856 22.3549 21.2622C22.2399 21.5389 22.0715 21.7902 21.8594 22.0017C21.6472 22.2132 21.3954 22.3809 21.1185 22.4951C20.8415 22.6093 20.5447 22.6677 20.2451 22.6671H5.20091C4.59602 22.6677 4.01564 22.4282 3.5873 22.0011C3.15895 21.574 2.91768 20.9943 2.9165 20.3894V9.37402H22.5295Z" fill="#E0E0E0"/>
<path d="M20.9451 16.0939V20.0938C20.9454 20.3947 20.8862 20.6926 20.771 20.9705C20.6557 21.2483 20.4867 21.5007 20.2736 21.713C20.0604 21.9253 19.8074 22.0933 19.5291 22.2075C19.2508 22.3217 18.9527 22.3797 18.6518 22.3783H4.08763C3.73085 22.1807 3.43383 21.8908 3.22777 21.5389C3.02171 21.187 2.9142 20.7861 2.91654 20.3783V9.37402H15.9163C17.3677 9.80106 18.6418 10.6864 19.5483 11.8977C20.4547 13.1089 20.9448 14.581 20.9451 16.0939Z" fill="#E4EADF"/>
<path d="M20.2444 22.9998H5.20025C4.50696 23.0004 3.8418 22.7257 3.35094 22.2361C2.86008 21.7465 2.5837 21.082 2.58252 20.3887V9.37337C2.58252 9.28496 2.61764 9.20018 2.68015 9.13767C2.74266 9.07516 2.82744 9.04004 2.91585 9.04004H22.5289C22.6173 9.04004 22.702 9.07516 22.7646 9.13767C22.8271 9.20018 22.8622 9.28496 22.8622 9.37337V20.3887C22.861 21.082 22.5846 21.7465 22.0938 22.2361C21.6029 22.7257 20.9377 23.0004 20.2444 22.9998ZM3.24918 9.70669V20.3887C3.25035 20.9052 3.4565 21.4001 3.82234 21.7647C4.18817 22.1293 4.68377 22.3337 5.20025 22.3332H20.2444C20.7609 22.3337 21.2565 22.1293 21.6224 21.7647C21.9882 21.4001 22.1943 20.9052 22.1955 20.3887V9.70669H3.24918Z" fill="url(#paint0_linear_1258_3372)"/>
<path d="M22.5295 6.2765V9.37422H2.9165V6.2765C2.91709 5.97709 2.97664 5.68073 3.09176 5.40433C3.20687 5.12794 3.3753 4.87692 3.58743 4.66562C3.79956 4.45432 4.05123 4.28687 4.32807 4.17283C4.60491 4.05879 4.9015 4.0004 5.20091 4.00098H7.07866V5.06763C7.07843 5.23882 7.1123 5.40835 7.17831 5.5663C7.24432 5.72426 7.34113 5.86748 7.46309 5.98761C7.64601 6.16727 7.87774 6.28915 8.12942 6.33806C8.3811 6.38697 8.64161 6.36076 8.8785 6.26269C9.11539 6.16461 9.3182 5.99901 9.46166 5.78651C9.60511 5.57402 9.68288 5.32401 9.68528 5.06763V4.00098H15.7518V5.06763C15.7536 5.41322 15.892 5.74409 16.1368 5.98805C16.3816 6.23201 16.7129 6.36925 17.0585 6.36983C17.23 6.37041 17.3999 6.33718 17.5585 6.27203C17.7172 6.20687 17.8614 6.11108 17.9829 5.99013C18.1045 5.86918 18.201 5.72545 18.267 5.56716C18.333 5.40886 18.3671 5.23912 18.3674 5.06763V4.00098H20.2451C20.5445 4.0004 20.8411 4.05879 21.1179 4.17283C21.3948 4.28687 21.6465 4.45432 21.8586 4.66562C22.0707 4.87692 22.2391 5.12794 22.3543 5.40433C22.4694 5.68073 22.5289 5.97709 22.5295 6.2765Z" fill="#E0E0E0"/>
<path d="M21.2251 6.2765C21.2251 7.09807 20.8987 7.88599 20.3178 8.46692C19.7368 9.04786 18.9489 9.37422 18.1274 9.37422H2.9165V6.2765C2.91709 5.97709 2.97664 5.68073 3.09176 5.40433C3.20687 5.12794 3.3753 4.87692 3.58743 4.66562C3.79956 4.45432 4.05123 4.28687 4.32807 4.17283C4.60491 4.05879 4.9015 4.0004 5.20091 4.00098H7.07866V5.06763C7.07843 5.23882 7.1123 5.40835 7.17831 5.5663C7.24432 5.72426 7.34113 5.86748 7.46309 5.98761C7.64601 6.16727 7.87774 6.28915 8.12942 6.33806C8.3811 6.38697 8.64161 6.36076 8.8785 6.26269C9.11539 6.16461 9.3182 5.99901 9.46166 5.78651C9.60511 5.57402 9.68288 5.32401 9.68528 5.06763V4.00098H15.7518V5.06763C15.7536 5.41322 15.892 5.74409 16.1368 5.98805C16.3816 6.23201 16.7129 6.36925 17.0585 6.36983C17.23 6.37041 17.3999 6.33718 17.5585 6.27203C17.7172 6.20687 17.8614 6.11108 17.9829 5.99013C18.1045 5.86918 18.201 5.72545 18.267 5.56716C18.333 5.40886 18.3671 5.23912 18.3674 5.06763V4.00098H18.9451C19.549 4.00098 20.1283 4.24058 20.5557 4.66719C20.9832 5.09381 21.2239 5.67259 21.2251 6.2765Z" fill="#E4EADF"/>
<path d="M22.5289 9.70814H2.91585C2.82744 9.70814 2.74266 9.67302 2.68015 9.61051C2.61764 9.548 2.58252 9.46321 2.58252 9.37481V6.27708C2.5837 5.58379 2.86008 4.91933 3.35094 4.42972C3.8418 3.94012 4.50696 3.66543 5.20025 3.66602H7.078C7.12196 3.66602 7.16549 3.67471 7.20607 3.6916C7.24666 3.70849 7.28351 3.73324 7.31449 3.76443C7.34547 3.79562 7.36998 3.83263 7.3866 3.87332C7.40322 3.91402 7.41162 3.95761 7.41133 4.00157V5.06822C7.41309 5.32579 7.51664 5.57221 7.6994 5.75372C7.88216 5.93523 8.12929 6.03709 8.38687 6.03709C8.51439 6.03738 8.64073 6.01255 8.75866 5.96402C8.87659 5.91549 8.98381 5.8442 9.07419 5.75423C9.16457 5.66426 9.23634 5.55738 9.28542 5.43967C9.33449 5.32196 9.35989 5.19574 9.36018 5.06822V4.00157C9.36018 3.91316 9.3953 3.82838 9.45781 3.76587C9.52033 3.70336 9.60511 3.66824 9.69351 3.66824H15.7512C15.8396 3.66824 15.9244 3.70336 15.9869 3.76587C16.0494 3.82838 16.0845 3.91316 16.0845 4.00157V5.06822C16.0863 5.3254 16.1895 5.57149 16.3718 5.75294C16.5541 5.93439 16.8006 6.03651 17.0578 6.03709C17.3156 6.03768 17.5631 5.936 17.7459 5.75437C17.9288 5.57273 18.0322 5.32597 18.0334 5.06822V4.00157C18.0334 3.91316 18.0685 3.82838 18.131 3.76587C18.1935 3.70336 18.2783 3.66824 18.3667 3.66824H20.2444C20.9374 3.66765 21.6022 3.94203 22.093 4.43116C22.5838 4.92029 22.8604 5.58418 22.8622 6.27708V9.37481C22.8622 9.46321 22.8271 9.548 22.7646 9.61051C22.702 9.67302 22.6173 9.70814 22.5289 9.70814ZM3.24918 9.04148H22.1955V6.27708C22.1938 5.76078 21.9874 5.26623 21.6217 4.90177C21.256 4.53731 20.7608 4.33267 20.2444 4.33267H18.7V5.06822C18.6993 5.39229 18.6025 5.70889 18.422 5.97802C18.2415 6.24716 17.9853 6.45678 17.6857 6.58041C17.3861 6.70405 17.0566 6.73615 16.7388 6.67267C16.421 6.60919 16.1292 6.45298 15.9001 6.22375C15.7466 6.07307 15.6249 5.8932 15.5421 5.69475C15.4593 5.49629 15.4171 5.28326 15.4179 5.06822V4.33267H10.0268V5.06822C10.0261 5.39229 9.92936 5.70889 9.74883 5.97802C9.5683 6.24716 9.31207 6.45678 9.0125 6.58041C8.71293 6.70405 8.38345 6.73615 8.06565 6.67267C7.74785 6.60919 7.45598 6.45298 7.22689 6.22375C7.07346 6.07307 6.95175 5.8932 6.86893 5.69475C6.78611 5.49629 6.74386 5.28326 6.74467 5.06822V4.33267H5.18914C4.67284 4.33267 4.17758 4.53731 3.81187 4.90177C3.44617 5.26623 3.23983 5.76078 3.23806 6.27708L3.24918 9.04148Z" fill="url(#paint1_linear_1258_3372)"/>
<path d="M18.3674 2.63622V5.06729C18.366 5.32414 18.2888 5.57486 18.1456 5.78803C18.0023 6.0012 17.7992 6.16732 17.5619 6.26557C17.3246 6.36382 17.0636 6.38982 16.8115 6.34031C16.5595 6.29081 16.3277 6.168 16.1452 5.98728C16.0232 5.86715 15.9264 5.72392 15.8604 5.56597C15.7944 5.40801 15.7605 5.23849 15.7607 5.06729V2.63622C15.7631 2.37985 15.8409 2.12984 15.9844 1.91734C16.1278 1.70484 16.3306 1.53924 16.5675 1.44117C16.8044 1.3431 17.0649 1.31688 17.3166 1.36579C17.5683 1.41471 17.8 1.53658 17.9829 1.71624C18.1049 1.83637 18.2017 1.97959 18.2677 2.13755C18.3337 2.29551 18.3676 2.46503 18.3674 2.63622Z" fill="#E0E0E0"/>
<path d="M17.3896 2.63633V5.0674C17.3894 5.3269 17.3116 5.58041 17.1663 5.7954C17.021 6.0104 16.8148 6.17707 16.5741 6.27405C16.4135 6.20789 16.2677 6.11045 16.1452 5.98739C16.0232 5.86726 15.9264 5.72403 15.8604 5.56608C15.7944 5.40812 15.7605 5.2386 15.7607 5.0674V2.63633C15.7611 2.37716 15.8387 2.12397 15.9835 1.90906C16.1284 1.69415 16.334 1.52726 16.5741 1.42969C16.7353 1.4958 16.8818 1.59323 17.0052 1.71635C17.1271 1.83648 17.2239 1.9797 17.29 2.13766C17.356 2.29562 17.3898 2.46514 17.3896 2.63633Z" fill="white"/>
<path d="M9.69412 2.63716V5.06823C9.69383 5.23953 9.65981 5.4091 9.59398 5.56724C9.52816 5.72539 9.43183 5.86903 9.3105 5.98995C9.18916 6.11087 9.0452 6.20671 8.88683 6.27199C8.72846 6.33727 8.55878 6.37072 8.38748 6.37043C8.23998 6.37013 8.09355 6.34535 7.95415 6.2971C7.69942 6.20739 7.4786 6.04119 7.32189 5.82124C7.16518 5.60128 7.08021 5.3383 7.07861 5.06823V2.63716C7.07924 2.36686 7.16383 2.10343 7.32067 1.88329C7.47752 1.66315 7.69888 1.49717 7.95415 1.40829C8.09355 1.36005 8.23998 1.33527 8.38748 1.33496C8.73308 1.33554 9.06442 1.47279 9.30921 1.71674C9.554 1.9607 9.69237 2.29157 9.69412 2.63716Z" fill="#E0E0E0"/>
<path d="M8.82747 2.63707V5.06814C8.82733 5.33825 8.7432 5.60163 8.58673 5.82181C8.43026 6.04198 8.20919 6.20805 7.95415 6.29701C7.69942 6.2073 7.4786 6.0411 7.32189 5.82115C7.16518 5.60119 7.08021 5.33821 7.07861 5.06814V2.63707C7.07924 2.36677 7.16383 2.10334 7.32067 1.8832C7.47752 1.66306 7.69888 1.49708 7.95415 1.4082C8.13794 1.47376 8.30491 1.57926 8.44303 1.71709C8.565 1.83722 8.66181 1.98044 8.72782 2.1384C8.79383 2.29635 8.8277 2.46588 8.82747 2.63707Z" fill="white"/>
<path d="M17.0579 6.70282C16.6239 6.70224 16.2078 6.52988 15.9005 6.22341C15.5932 5.91694 15.4197 5.50129 15.418 5.06729V2.63622C15.4187 2.31215 15.5155 1.99555 15.696 1.72641C15.8765 1.45727 16.1327 1.24766 16.4323 1.12403C16.7319 1.00039 17.0614 0.96829 17.3792 1.03177C17.697 1.09525 17.9888 1.25146 18.2179 1.48069C18.3714 1.63137 18.4931 1.81123 18.5759 2.00969C18.6587 2.20815 18.7009 2.42118 18.7001 2.63622V5.06729C18.6984 5.50167 18.5246 5.91766 18.2168 6.22419C17.909 6.53072 17.4923 6.70283 17.0579 6.70282ZM17.0579 1.66735C16.9304 1.66706 16.8041 1.69189 16.6862 1.74042C16.5682 1.78895 16.461 1.86024 16.3706 1.95021C16.2802 2.04017 16.2085 2.14706 16.1594 2.26477C16.1103 2.38248 16.0849 2.5087 16.0846 2.63622V5.06729C16.0864 5.32448 16.1896 5.57057 16.3719 5.75202C16.5542 5.93346 16.8007 6.03559 17.0579 6.03617C17.3157 6.03676 17.5632 5.93508 17.746 5.75345C17.9289 5.57181 18.0323 5.32505 18.0335 5.06729V2.63622C18.0336 2.50914 18.0083 2.38333 17.959 2.26617C17.9098 2.14901 17.8377 2.04288 17.7468 1.95401C17.6566 1.86307 17.5493 1.79091 17.4311 1.74171C17.3128 1.6925 17.186 1.66723 17.0579 1.66735Z" fill="url(#paint2_linear_1258_3372)"/>
<path d="M8.38732 6.70282C8.17187 6.70328 7.95846 6.6611 7.75938 6.57872C7.56029 6.49634 7.37948 6.37539 7.22734 6.22283C7.07391 6.07215 6.9522 5.89228 6.86939 5.69382C6.78657 5.49537 6.74432 5.28234 6.74513 5.06729V2.63622C6.74587 2.31215 6.84261 1.99555 7.02314 1.72641C7.20367 1.45727 7.4599 1.24766 7.75947 1.12403C8.05904 1.00039 8.38852 0.96829 8.70632 1.03177C9.02412 1.09525 9.31599 1.25146 9.54508 1.48069C9.69851 1.63137 9.82022 1.81123 9.90304 2.00969C9.98586 2.20815 10.0281 2.42118 10.0273 2.63622V5.06729C10.0261 5.50147 9.85282 5.91746 9.54539 6.22406C9.23796 6.53065 8.8215 6.70282 8.38732 6.70282ZM8.38732 1.66735C8.12957 1.66676 7.8821 1.76843 7.69922 1.95007C7.51633 2.13171 7.41296 2.37847 7.41178 2.63622V5.06729C7.41354 5.32487 7.5171 5.57129 7.69986 5.7528C7.88262 5.93431 8.12975 6.03617 8.38732 6.03617C8.51485 6.03646 8.64118 6.01163 8.75911 5.9631C8.87705 5.91457 8.98426 5.84328 9.07464 5.75331C9.16502 5.66334 9.2368 5.55645 9.28587 5.43875C9.33494 5.32104 9.36035 5.19482 9.36064 5.06729V2.63622C9.36074 2.50914 9.33543 2.38333 9.2862 2.26617C9.23697 2.14901 9.16482 2.04288 9.07398 1.95401C8.98421 1.86314 8.87729 1.791 8.75941 1.74179C8.64153 1.69258 8.51506 1.66728 8.38732 1.66735Z" fill="url(#paint3_linear_1258_3372)"/>
<path d="M18.0685 18.8893H7.37532C7.28692 18.8893 7.20213 18.8542 7.13962 18.7917C7.07711 18.7292 7.04199 18.6444 7.04199 18.556C7.04199 18.4676 7.07711 18.3828 7.13962 18.3203C7.20213 18.2578 7.28692 18.2227 7.37532 18.2227H18.0685C18.1569 18.2227 18.2417 18.2578 18.3042 18.3203C18.3667 18.3828 18.4018 18.4676 18.4018 18.556C18.4018 18.6444 18.3667 18.7292 18.3042 18.7917C18.2417 18.8542 18.1569 18.8893 18.0685 18.8893Z" fill="url(#paint4_linear_1258_3372)"/>
<path d="M16.9447 18.8888C16.8562 18.8888 16.7715 18.8537 16.709 18.7912C16.6464 18.7287 16.6113 18.6439 16.6113 18.5555C16.6119 18.0447 16.5117 17.5387 16.3165 17.0666C16.1213 16.5945 15.8348 16.1656 15.4736 15.8044C15.1124 15.4432 14.6835 15.1567 14.2114 14.9615C13.7393 14.7663 13.2334 14.6661 12.7225 14.6667C12.2124 14.6658 11.7071 14.7657 11.2356 14.9607C10.7642 15.1556 10.336 15.4418 9.97543 15.8027C9.61492 16.1636 9.32925 16.5922 9.13484 17.0639C8.94042 17.5355 8.8411 18.0409 8.84256 18.5511C8.84318 18.596 8.83471 18.6405 8.81768 18.6821C8.80064 18.7236 8.77538 18.7613 8.74342 18.7929C8.71146 18.8244 8.67345 18.8492 8.63168 18.8657C8.58991 18.8822 8.54524 18.89 8.50035 18.8888C8.41194 18.8888 8.32716 18.8537 8.26465 18.7912C8.20214 18.7287 8.16702 18.6439 8.16702 18.5555C8.16496 17.9567 8.28139 17.3634 8.5096 16.8098C8.7378 16.2561 9.07328 15.7531 9.49671 15.3297C9.92013 14.9063 10.4231 14.5708 10.9768 14.3426C11.5304 14.1144 12.1237 13.998 12.7225 14C13.9286 14.0018 15.0846 14.482 15.937 15.3352C16.7894 16.1884 17.2685 17.345 17.2691 18.5511C17.2703 18.6387 17.2369 18.7233 17.1762 18.7865C17.1155 18.8498 17.0323 18.8865 16.9447 18.8888Z" fill="url(#paint5_linear_1258_3372)"/>
<path d="M12.722 14.6672C12.6336 14.6672 12.5488 14.632 12.4863 14.5695C12.4238 14.507 12.3887 14.4222 12.3887 14.3338V13.2005C12.3887 13.1121 12.4238 13.0273 12.4863 12.9648C12.5488 12.9023 12.6336 12.8672 12.722 12.8672C12.8104 12.8672 12.8952 12.9023 12.9577 12.9648C13.0202 13.0273 13.0553 13.1121 13.0553 13.2005V14.3383C13.0542 14.4259 13.0185 14.5096 12.9561 14.5711C12.8938 14.6327 12.8096 14.6672 12.722 14.6672Z" fill="url(#paint6_linear_1258_3372)"/>
<defs>
<linearGradient id="paint0_linear_1258_3372" x1="-0.381857" y1="16.0199" x2="26.2144" y2="16.0199" gradientUnits="userSpaceOnUse">
<stop stop-color="#302B3A"/>
<stop offset="1" stop-color="#404D5D"/>
</linearGradient>
<linearGradient id="paint1_linear_1258_3372" x1="-0.381857" y1="6.68708" x2="26.2144" y2="6.68708" gradientUnits="userSpaceOnUse">
<stop stop-color="#302B3A"/>
<stop offset="1" stop-color="#404D5D"/>
</linearGradient>
<linearGradient id="paint2_linear_1258_3372" x1="14.9382" y1="3.85141" x2="19.2427" y2="3.85141" gradientUnits="userSpaceOnUse">
<stop stop-color="#302B3A"/>
<stop offset="1" stop-color="#404D5D"/>
</linearGradient>
<linearGradient id="paint3_linear_1258_3372" x1="6.26534" y1="3.85141" x2="10.5699" y2="3.85141" gradientUnits="userSpaceOnUse">
<stop stop-color="#302B3A"/>
<stop offset="1" stop-color="#404D5D"/>
</linearGradient>
<linearGradient id="paint4_linear_1258_3372" x1="5.38147" y1="18.556" x2="20.2796" y2="18.556" gradientUnits="userSpaceOnUse">
<stop stop-color="#302B3A"/>
<stop offset="1" stop-color="#404D5D"/>
</linearGradient>
<linearGradient id="paint5_linear_1258_3372" x1="6.83649" y1="16.4445" x2="18.7737" y2="16.4445" gradientUnits="userSpaceOnUse">
<stop stop-color="#302B3A"/>
<stop offset="1" stop-color="#404D5D"/>
</linearGradient>
<linearGradient id="paint6_linear_1258_3372" x1="12.2912" y1="13.7672" x2="13.1655" y2="13.7672" gradientUnits="userSpaceOnUse">
<stop stop-color="#302B3A"/>
<stop offset="1" stop-color="#404D5D"/>
</linearGradient>
</defs>
</svg>
