<svg width="25" height="24" viewBox="0 0 25 24" fill="none" xmlns="http://www.w3.org/2000/svg">
<path d="M16.25 11C16.25 12.3261 15.7232 13.5979 14.7855 14.5355C13.8479 15.4732 12.5761 16 11.25 16C9.92392 16 8.65215 15.4732 7.71447 14.5355C6.77678 13.5979 6.25 12.3261 6.25 11C6.25 9.67392 6.77678 8.40215 7.71447 7.46447C8.65215 6.52678 9.92392 6 11.25 6C12.5761 6 13.8479 6.52678 14.7855 7.46447C15.7232 8.40215 16.25 9.67392 16.25 11Z" fill="#E4EADF"/>
<path fill-rule="evenodd" clip-rule="evenodd" d="M1.25 10.9055C1.25017 9.32306 1.6294 7.76369 2.35595 6.35792C3.0825 4.95216 4.13522 3.7409 5.42599 2.82555C6.71675 1.9102 8.20801 1.3174 9.77491 1.09677C11.3418 0.876131 12.9388 1.03409 14.4321 1.55741C15.9254 2.08073 17.2717 2.95419 18.3581 4.10467C19.4446 5.25515 20.2396 6.64917 20.6767 8.17004C21.1138 9.6909 21.1803 11.2944 20.8705 12.8462C20.5606 14.398 19.8836 15.853 18.896 17.0894L22.941 21.1346C23.1415 21.3422 23.2525 21.6202 23.25 21.9088C23.2474 22.1974 23.1317 22.4735 22.9276 22.6776C22.7235 22.8817 22.4475 22.9975 22.1589 23C21.8703 23.0025 21.5923 22.8915 21.3847 22.691L17.3397 18.6458C15.8822 19.8104 14.1256 20.5397 12.2719 20.7499C10.4183 20.96 8.54293 20.6424 6.86179 19.8337C5.18066 19.0249 3.76205 17.7579 2.76926 16.1784C1.77646 14.5989 1.24984 12.7711 1.25 10.9055ZM11.1561 3.20039C10.1443 3.20039 9.14239 3.39969 8.20761 3.78691C7.27283 4.17412 6.42347 4.74168 5.70802 5.45716C4.99257 6.17265 4.42504 7.02205 4.03784 7.95688C3.65064 8.89171 3.45135 9.89365 3.45135 10.9055C3.45135 11.9173 3.65064 12.9193 4.03784 13.8541C4.42504 14.7889 4.99257 15.6383 5.70802 16.3538C6.42347 17.0693 7.27283 17.6369 8.20761 18.0241C9.14239 18.4113 10.1443 18.6106 11.1561 18.6106C13.1995 18.6106 15.1592 17.7988 16.6042 16.3538C18.0491 14.9088 18.8608 12.949 18.8608 10.9055C18.8608 8.86198 18.0491 6.90215 16.6042 5.45716C15.1592 4.01217 13.1995 3.20039 11.1561 3.20039Z" fill="#E4EADF"/>
</svg>
