<svg width="15" height="15" viewBox="0 0 15 15" fill="none" xmlns="http://www.w3.org/2000/svg">
<path d="M10.4622 10.4627C10.7368 10.1881 11.171 10.1712 11.4656 10.4115L11.5228 10.4627L14.7776 13.7176L14.8297 13.7747C15.0697 14.0693 15.0521 14.5036 14.7776 14.7781C14.5031 15.0526 14.0688 15.0702 13.7742 14.8302L13.7171 14.7781L10.4622 11.5233L10.411 11.4661C10.1707 11.1715 10.1876 10.7373 10.4622 10.4627Z" fill="#22262E"/>
<path d="M12 6.75C12 3.85051 9.6495 1.5 6.75 1.5C3.85051 1.5 1.5 3.85051 1.5 6.75C1.5 9.6495 3.85051 12 6.75 12C9.6495 12 12 9.6495 12 6.75ZM13.5 6.75C13.5 10.478 10.478 13.5 6.75 13.5C3.02208 13.5 0 10.478 0 6.75C0 3.02208 3.02208 0 6.75 0C10.478 0 13.5 3.02208 13.5 6.75Z" fill="#22262E"/>
</svg>
