<svg width="14" height="20" viewBox="0 0 14 20" fill="none" xmlns="http://www.w3.org/2000/svg">
<path d="M7 20C5.23333 20 3.79167 19.721 2.675 19.163C1.55833 18.605 1 17.884 1 17C1 16.6 1.121 16.2293 1.363 15.888C1.605 15.5467 1.942 15.2507 2.374 15L3.949 16.475C3.799 16.5417 3.63633 16.6167 3.461 16.7C3.28567 16.7833 3.14833 16.8833 3.049 17C3.26567 17.2667 3.76567 17.5 4.549 17.7C5.33233 17.9 6.14933 18 7 18C7.85067 18 8.67167 17.9 9.463 17.7C10.2543 17.5 10.7583 17.2667 10.975 17C10.8583 16.8667 10.7083 16.7583 10.525 16.675C10.3417 16.5917 10.1667 16.5167 10 16.45L11.55 14.95C12.0167 15.2167 12.375 15.521 12.625 15.863C12.875 16.205 13 16.584 13 17C13 17.8833 12.4417 18.6043 11.325 19.163C10.2083 19.7217 8.76667 20.0007 7 20ZM7.025 14.5C8.675 13.2833 9.91667 12.0627 10.75 10.838C11.5833 9.61334 12 8.384 12 7.15C12 5.45 11.4583 4.16667 10.375 3.3C9.29167 2.43334 8.16667 2 7 2C5.83333 2 4.70833 2.43334 3.625 3.3C2.54167 4.16667 2 5.45 2 7.15C2 8.26667 2.40833 9.42933 3.225 10.638C4.04167 11.8467 5.30833 13.134 7.025 14.5ZM7 17C4.65 15.2667 2.896 13.5833 1.738 11.95C0.58 10.3167 0.000666667 8.71667 0 7.15C0 5.96667 0.212667 4.929 0.638 4.037C1.06333 3.145 1.609 2.39934 2.275 1.8C2.941 1.20067 3.691 0.750669 4.525 0.450002C5.359 0.149336 6.184 -0.000664454 7 2.21239e-06C7.816 0.000668879 8.641 0.150669 9.475 0.450002C10.309 0.749336 11.059 1.19934 11.725 1.8C12.391 2.40067 12.937 3.14667 13.363 4.038C13.789 4.92934 14.0013 5.96667 14 7.15C14 8.71667 13.421 10.3167 12.263 11.95C11.105 13.5833 9.35067 15.2667 7 17ZM7 9C7.55 9 8.021 8.80434 8.413 8.413C8.805 8.02167 9.00067 7.55067 9 7C8.99933 6.44934 8.80367 5.97867 8.413 5.588C8.02233 5.19734 7.55133 5.00134 7 5C6.44867 4.99867 5.978 5.19467 5.588 5.588C5.198 5.98134 5.002 6.452 5 7C4.998 7.548 5.194 8.019 5.588 8.413C5.982 8.807 6.45267 9.00267 7 9Z" fill="#747174"/>
</svg>
