<svg width="30" height="29" viewBox="0 0 30 29" fill="none" xmlns="http://www.w3.org/2000/svg">
<path d="M27.8811 13.7813L24.7251 12.7641C22.7065 12.098 21.5238 10.4645 20.9687 8.4118L19.5799 1.64664C19.5436 1.51297 19.4553 1.33398 19.1834 1.33398C18.9546 1.33398 18.8232 1.51297 18.7869 1.64664L17.3981 8.41406C16.8407 10.4667 15.6604 12.1002 13.6417 12.7663L10.4857 13.7836C10.0393 13.9286 10.0325 14.5584 10.4766 14.7102L13.6553 15.8045C15.6672 16.4729 16.8407 18.1041 17.3981 20.1477L18.7892 26.8381C18.8254 26.9718 18.9002 27.212 19.1857 27.212C19.487 27.212 19.5459 26.9718 19.5822 26.8381L20.9732 20.1477C21.5306 18.1019 22.7042 16.4706 24.7161 15.8045L27.8947 14.7102C28.3343 14.5562 28.3275 13.9263 27.8811 13.7813Z" fill="#F1F1EF"/>
<path d="M28.1801 14.0648C28.1303 13.9402 28.0328 13.8315 27.881 13.7816L24.725 12.7644C22.7064 12.0983 21.5237 10.4648 20.9686 8.41211L19.5798 1.64695C19.5594 1.56992 19.4869 1.42945 19.4031 1.38867L19.8517 8.17875C20.1847 11.2781 20.4702 12.7372 22.9442 13.1631C25.0694 13.5302 27.5276 13.9516 28.1801 14.0648Z" fill="white"/>
<path d="M28.1866 14.418L22.7129 15.6731C20.7848 16.1625 19.7223 17.2795 19.7223 20.2021L19.1853 27.212C19.3688 27.1938 19.5183 27.0941 19.5818 26.8381L20.9729 20.1477C21.5302 18.1019 22.7038 16.4706 24.7157 15.8045L27.8944 14.7102C28.0439 14.6559 28.1391 14.5448 28.1866 14.418Z" fill="#C5C5C5"/>
<path d="M9.80583 19.6677C7.91856 19.0446 7.74637 18.3423 7.42918 17.1574L6.63848 14.3842C6.5909 14.2053 6.12419 14.2053 6.07434 14.3842L5.53739 16.9467C5.21793 18.1271 4.53825 19.065 3.37825 19.4479L1.5295 20.2499C1.27348 20.3338 1.26895 20.6963 1.52497 20.7824L3.38731 21.4417C4.54278 21.8246 5.21793 22.7625 5.53965 23.9384L6.07661 26.3898C6.12645 26.5688 6.5909 26.5688 6.63848 26.3898L7.26833 23.9497C7.58778 22.767 8.07715 21.8268 9.64723 21.4417L11.3963 20.7824C11.6523 20.694 11.65 20.3315 11.3918 20.2477L9.80583 19.6677Z" fill="#F1F1EF"/>
<path d="M6.78806 17.1172C6.98063 18.898 7.07806 19.3919 8.52126 19.7612L11.5277 20.348C11.496 20.3049 11.4507 20.2687 11.3895 20.2506L9.8036 19.6683C8.14743 19.1019 7.68978 18.3814 7.37938 16.9405C7.06899 15.4995 6.73821 14.5593 6.73821 14.5593C6.62267 14.2489 6.45728 14.2648 6.45728 14.2648L6.78806 17.1172Z" fill="white"/>
<path d="M6.84234 23.3337C6.84234 21.6548 7.75992 20.8234 9.21898 20.8234L11.4891 20.7305C11.4891 20.7305 11.3577 20.9049 11.1289 20.9593L9.64719 21.4419C8.38977 21.9471 7.81656 22.2009 7.42687 23.9205C7.42687 23.9205 6.92391 25.921 6.82875 26.1317C6.69734 26.4262 6.54102 26.4874 6.54102 26.4874L6.84234 23.3337Z" fill="#C5C5C5"/>
<path d="M13.868 6.3754C13.9949 6.33236 13.9904 6.1511 13.8612 6.11486L12.1122 5.64361C11.9323 5.59482 11.7681 5.50034 11.6355 5.36933C11.5029 5.23832 11.4064 5.07525 11.3555 4.89595L10.6667 2.05259C10.6327 1.91439 10.4356 1.91439 10.4016 2.05486L9.75367 4.88689C9.7048 5.07117 9.60764 5.23908 9.47224 5.37329C9.33683 5.5075 9.16806 5.60316 8.98336 5.6504L7.24562 6.10126C7.11648 6.13525 7.10742 6.3165 7.23429 6.36181L9.06718 6.99618C9.3957 7.10946 9.64945 7.37681 9.74914 7.70986L10.4039 10.3357C10.4379 10.4717 10.6327 10.4739 10.6667 10.3357L11.3441 7.70079C11.3943 7.53633 11.4829 7.38619 11.6027 7.26285C11.7225 7.13952 11.87 7.04654 12.0329 6.99165L13.868 6.3754Z" fill="#C5C5C5" stroke="#C5C5C5" stroke-width="0.125" stroke-miterlimit="10"/>
</svg>
