<svg width="10" height="10" viewBox="0 0 10 10" fill="none" xmlns="http://www.w3.org/2000/svg">
<path d="M8.457 0.0852299C8.33655 0.0320858 8.20678 0.0032509 8.07516 0.000377835L1.00409 0.00037716C0.872234 0.000377034 0.741666 0.0263487 0.619845 0.076809C0.498023 0.127269 0.387332 0.20123 0.294093 0.294469C0.10579 0.482772 1.81966e-06 0.738167 1.65107e-06 1.00447C1.77751e-06 1.13633 0.0259731 1.2669 0.0764334 1.38872C0.126894 1.51054 0.200855 1.62123 0.294094 1.71447C0.482397 1.90277 0.737791 2.00856 1.00409 2.00856L5.66393 2.00149L0.296987 7.36843C0.10945 7.55597 0.00409369 7.81032 0.0040936 8.07554C0.00409351 8.34075 0.10945 8.59511 0.296987 8.78264C0.484523 8.97018 0.738877 9.07554 1.00409 9.07554C1.26931 9.07554 1.52366 8.97018 1.7112 8.78264L7.07814 3.4157L7.07107 8.07554C7.07053 8.20755 7.09613 8.33836 7.1464 8.46042C7.19667 8.58249 7.27061 8.6934 7.36395 8.78674C7.4573 8.88009 7.56821 8.95403 7.69027 9.0043C7.81234 9.05457 7.94315 9.08017 8.07516 9.07963C8.20717 9.08017 8.33798 9.05457 8.46005 9.0043C8.58212 8.95403 8.69302 8.88009 8.78637 8.78674C8.87971 8.6934 8.95366 8.58249 9.00392 8.46043C9.05419 8.33836 9.07979 8.20755 9.07925 8.07554L9.07925 1.00447C9.07638 0.872846 9.04754 0.743084 8.9944 0.622631C8.89297 0.379755 8.69987 0.18666 8.457 0.0852299Z" fill="#FF773C"/>
</svg>
