<svg width="33" height="34" viewBox="0 0 33 34" fill="none" xmlns="http://www.w3.org/2000/svg">
<path d="M15.1482 3.98664C15.2072 3.66166 15.3745 3.36814 15.6214 3.15692C15.8682 2.9457 16.179 2.83008 16.4999 2.83008C16.8208 2.83008 17.1315 2.9457 17.3784 3.15692C17.6252 3.36814 17.7926 3.66166 17.8515 3.98664L19.2966 11.8605C19.3993 12.4203 19.6633 12.9352 20.0543 13.338C20.4453 13.7408 20.945 14.0129 21.4884 14.1186L29.1306 15.6076C29.446 15.6683 29.7309 15.8407 29.9359 16.095C30.1409 16.3493 30.2532 16.6695 30.2532 17.0001C30.2532 17.3307 30.1409 17.6509 29.9359 17.9052C29.7309 18.1596 29.446 18.332 29.1306 18.3927L21.4884 19.8816C20.945 19.9874 20.4453 20.2594 20.0543 20.6623C19.6633 21.0651 19.3993 21.58 19.2966 22.1398L17.8515 30.0136C17.7926 30.3386 17.6252 30.6321 17.3784 30.8433C17.1315 31.0546 16.8208 31.1702 16.4999 31.1702C16.179 31.1702 15.8682 31.0546 15.6214 30.8433C15.3745 30.6321 15.2072 30.3386 15.1482 30.0136L13.7031 22.1398C13.6005 21.58 13.3364 21.0651 12.9455 20.6623C12.5545 20.2594 12.0547 19.9874 11.5114 19.8816L3.86912 18.3927C3.5537 18.332 3.26882 18.1596 3.06381 17.9052C2.8588 17.6509 2.74658 17.3307 2.74658 17.0001C2.74658 16.6695 2.8588 16.3493 3.06381 16.095C3.26882 15.8407 3.5537 15.6683 3.86912 15.6076L11.5114 14.1186C12.0547 14.0129 12.5545 13.7408 12.9455 13.338C13.3364 12.9352 13.6005 12.4203 13.7031 11.8605L15.1482 3.98664ZM27.4999 2.83347V8.50014V2.83347ZM30.2499 5.6668H24.7499H30.2499Z" fill="white"/>
<path d="M27.4999 2.83347V8.50014M30.2499 5.6668H24.7499M15.1482 3.98664C15.2072 3.66166 15.3745 3.36814 15.6214 3.15692C15.8682 2.9457 16.179 2.83008 16.4999 2.83008C16.8208 2.83008 17.1315 2.9457 17.3784 3.15692C17.6252 3.36814 17.7926 3.66166 17.8515 3.98664L19.2966 11.8605C19.3993 12.4203 19.6633 12.9352 20.0543 13.338C20.4453 13.7408 20.945 14.0129 21.4884 14.1186L29.1306 15.6076C29.446 15.6683 29.7309 15.8407 29.9359 16.095C30.1409 16.3494 30.2532 16.6695 30.2532 17.0001C30.2532 17.3307 30.1409 17.6509 29.9359 17.9052C29.7309 18.1596 29.446 18.332 29.1306 18.3927L21.4884 19.8816C20.945 19.9874 20.4453 20.2594 20.0543 20.6623C19.6633 21.0651 19.3993 21.58 19.2966 22.1398L17.8515 30.0136C17.7926 30.3386 17.6252 30.6321 17.3784 30.8433C17.1315 31.0546 16.8208 31.1702 16.4999 31.1702C16.179 31.1702 15.8682 31.0546 15.6214 30.8433C15.3745 30.6321 15.2072 30.3386 15.1482 30.0136L13.7031 22.1398C13.6005 21.58 13.3364 21.0651 12.9455 20.6623C12.5545 20.2594 12.0547 19.9874 11.5114 19.8816L3.86912 18.3927C3.5537 18.332 3.26882 18.1596 3.06381 17.9052C2.8588 17.6509 2.74658 17.3307 2.74658 17.0001C2.74658 16.6695 2.8588 16.3494 3.06381 16.095C3.26882 15.8407 3.5537 15.6683 3.86912 15.6076L11.5114 14.1186C12.0547 14.0129 12.5545 13.7408 12.9455 13.338C13.3364 12.9352 13.6005 12.4203 13.7031 11.8605L15.1482 3.98664Z" stroke="white" stroke-linecap="round" stroke-linejoin="round"/>
<path d="M5.5 31.1667C7.01878 31.1667 8.25 29.8981 8.25 28.3333C8.25 26.7685 7.01878 25.5 5.5 25.5C3.98122 25.5 2.75 26.7685 2.75 28.3333C2.75 29.8981 3.98122 31.1667 5.5 31.1667Z" stroke="white" stroke-width="2" stroke-linecap="round" stroke-linejoin="round"/>
</svg>
