<svg width="16" height="18" viewBox="0 0 16 18" fill="none" xmlns="http://www.w3.org/2000/svg">
<path d="M5 1.99952C4.73478 1.99952 4.48043 2.10488 4.29289 2.29241C4.10536 2.47995 4 2.7343 4 2.99952C4 3.26474 4.10536 3.51909 4.29289 3.70663C4.48043 3.89416 4.73478 3.99952 5 3.99952C5.26522 3.99952 5.51957 3.89416 5.70711 3.70663C5.89464 3.51909 6 3.26474 6 2.99952C6 2.7343 5.89464 2.47995 5.70711 2.29241C5.51957 2.10488 5.26522 1.99952 5 1.99952ZM2.17 1.99952C2.3766 1.41399 2.75974 0.906954 3.2666 0.54831C3.77346 0.189666 4.37909 -0.00292969 5 -0.00292969C5.62091 -0.00292969 6.22654 0.189666 6.7334 0.54831C7.24026 0.906954 7.6234 1.41399 7.83 1.99952H15C15.2652 1.99952 15.5196 2.10488 15.7071 2.29241C15.8946 2.47995 16 2.7343 16 2.99952C16 3.26474 15.8946 3.51909 15.7071 3.70663C15.5196 3.89416 15.2652 3.99952 15 3.99952H7.83C7.6234 4.58505 7.24026 5.09209 6.7334 5.45073C6.22654 5.80938 5.62091 6.00197 5 6.00197C4.37909 6.00197 3.77346 5.80938 3.2666 5.45073C2.75974 5.09209 2.3766 4.58505 2.17 3.99952H1C0.734784 3.99952 0.48043 3.89416 0.292893 3.70663C0.105357 3.51909 0 3.26474 0 2.99952C0 2.7343 0.105357 2.47995 0.292893 2.29241C0.48043 2.10488 0.734784 1.99952 1 1.99952H2.17ZM11 7.99952C10.7348 7.99952 10.4804 8.10488 10.2929 8.29241C10.1054 8.47995 10 8.7343 10 8.99952C10 9.26474 10.1054 9.51909 10.2929 9.70663C10.4804 9.89416 10.7348 9.99952 11 9.99952C11.2652 9.99952 11.5196 9.89416 11.7071 9.70663C11.8946 9.51909 12 9.26474 12 8.99952C12 8.7343 11.8946 8.47995 11.7071 8.29241C11.5196 8.10488 11.2652 7.99952 11 7.99952ZM8.17 7.99952C8.3766 7.41399 8.75974 6.90695 9.2666 6.54831C9.77346 6.18967 10.3791 5.99707 11 5.99707C11.6209 5.99707 12.2265 6.18967 12.7334 6.54831C13.2403 6.90695 13.6234 7.41399 13.83 7.99952H15C15.2652 7.99952 15.5196 8.10488 15.7071 8.29241C15.8946 8.47995 16 8.7343 16 8.99952C16 9.26474 15.8946 9.51909 15.7071 9.70663C15.5196 9.89416 15.2652 9.99952 15 9.99952H13.83C13.6234 10.5851 13.2403 11.0921 12.7334 11.4507C12.2265 11.8094 11.6209 12.002 11 12.002C10.3791 12.002 9.77346 11.8094 9.2666 11.4507C8.75974 11.0921 8.3766 10.5851 8.17 9.99952H1C0.734784 9.99952 0.48043 9.89416 0.292893 9.70663C0.105357 9.51909 0 9.26474 0 8.99952C0 8.7343 0.105357 8.47995 0.292893 8.29241C0.48043 8.10488 0.734784 7.99952 1 7.99952H8.17ZM5 13.9995C4.73478 13.9995 4.48043 14.1049 4.29289 14.2924C4.10536 14.4799 4 14.7343 4 14.9995C4 15.2647 4.10536 15.5191 4.29289 15.7066C4.48043 15.8942 4.73478 15.9995 5 15.9995C5.26522 15.9995 5.51957 15.8942 5.70711 15.7066C5.89464 15.5191 6 15.2647 6 14.9995C6 14.7343 5.89464 14.4799 5.70711 14.2924C5.51957 14.1049 5.26522 13.9995 5 13.9995ZM2.17 13.9995C2.3766 13.414 2.75974 12.907 3.2666 12.5483C3.77346 12.1897 4.37909 11.9971 5 11.9971C5.62091 11.9971 6.22654 12.1897 6.7334 12.5483C7.24026 12.907 7.6234 13.414 7.83 13.9995H15C15.2652 13.9995 15.5196 14.1049 15.7071 14.2924C15.8946 14.4799 16 14.7343 16 14.9995C16 15.2647 15.8946 15.5191 15.7071 15.7066C15.5196 15.8942 15.2652 15.9995 15 15.9995H7.83C7.6234 16.5851 7.24026 17.0921 6.7334 17.4507C6.22654 17.8094 5.62091 18.002 5 18.002C4.37909 18.002 3.77346 17.8094 3.2666 17.4507C2.75974 17.0921 2.3766 16.5851 2.17 15.9995H1C0.734784 15.9995 0.48043 15.8942 0.292893 15.7066C0.105357 15.5191 0 15.2647 0 14.9995C0 14.7343 0.105357 14.4799 0.292893 14.2924C0.48043 14.1049 0.734784 13.9995 1 13.9995H2.17Z" fill="#D2D1D1"/>
</svg>
