<svg width="31" height="31" viewBox="0 0 31 31" fill="none" xmlns="http://www.w3.org/2000/svg">
<path d="M22.0498 6.89337C22.543 6.40013 23.3425 6.40013 23.8357 6.89337C24.3291 7.38659 24.3291 8.18608 23.8357 8.67932L8.6798 23.8353C8.18657 24.3285 7.38707 24.3285 6.89384 23.8353C6.40062 23.3421 6.40062 22.5425 6.89384 22.0493L22.0498 6.89337Z" fill="white"/>
<path d="M6.89365 6.89316C7.35605 6.43075 8.08733 6.40222 8.5834 6.80682L8.6796 6.89316L23.8355 22.0491L23.9219 22.1454C24.3265 22.6414 24.2979 23.3726 23.8355 23.835C23.3731 24.2975 22.6419 24.3261 22.1458 23.9214L22.0497 23.835L6.89365 8.67912L6.80731 8.58291C6.40271 8.08685 6.43124 7.35556 6.89365 6.89316Z" fill="white"/>
</svg>
